<svg width="1920" height="1080" viewBox="0 0 1920 1080" fill="none" xmlns="http://www.w3.org/2000/svg">
<path d="M1302.17 406.74H1349.13V425.78C1349.13 438.01 1339.21 447.93 1326.98 447.93H1324.31C1312.08 447.93 1302.16 438.01 1302.16 425.78V406.74H1302.17Z" fill="#084970"/>
<path opacity="0.31" d="M1344.11 805.78H488.85C483.63 761.82 480.05 716.58 486.63 672.8C493.21 629.02 513.14 585.4 549.18 559.69C564.29 548.91 581.68 541.61 596.6 530.58C633.04 503.63 650.12 458.53 667.21 416.55C685.6 371.39 707.62 325.05 746.94 296.2C777.34 273.9 819.63 265.89 854.56 282.23C890.93 299.24 897.81 350.9 938.23 361.65C984.45 373.94 1030.86 326.2 1068.56 374.87C1080.1 389.77 1087.17 407.74 1098.68 422.66C1113.01 441.26 1134.16 454.48 1157.16 459.22C1177.06 463.32 1199.04 461.6 1216.08 472.67C1233.53 484 1240.47 504.94 1255.75 518.36C1272.92 533.43 1297.28 539.68 1319.11 544.05C1404.53 561.18 1406.25 639.01 1412.33 711.42C1413.68 727.52 1412.89 805.76 1436.56 805.76C1436.55 805.78 1344.11 805.78 1344.11 805.78Z" fill="#D3D3D3"/>
<path opacity="0.25" d="M1302.17 406.74H1349.13V425.78C1349.13 438.01 1339.21 447.93 1326.98 447.93H1324.31C1312.08 447.93 1302.16 438.01 1302.16 425.78V406.74H1302.17Z" fill="black"/>
<path d="M1365.4 624.19C1360.92 624.19 1357.29 620.56 1357.29 616.08V493.33C1357.29 488.85 1360.92 485.22 1365.4 485.22C1369.88 485.22 1373.51 488.85 1373.51 493.33V616.07C1373.51 620.55 1369.88 624.19 1365.4 624.19Z" fill="#FAB9AF"/>
<path d="M1364.83 568.78L1351.14 750.11H1325.66V568.78H1364.83Z" fill="#4CAF50"/>
<g opacity="0.44">
<path opacity="0.34" d="M1325.66 568.78V750.11H1327.96L1332.73 568.78H1325.66Z" fill="black"/>
</g>
<path d="M1286.48 568.78L1300.17 750.11H1325.66V568.78H1286.48Z" fill="#4CAF50"/>
<path d="M1351.14 750.11C1351.14 750.11 1371.14 757.81 1371.14 771C1347.39 771 1325.66 771 1325.66 771V750.11H1351.14Z" fill="#084970"/>
<path opacity="0.34" d="M1351.14 750.11C1351.14 750.11 1371.14 757.81 1371.14 771C1347.39 771 1325.66 771 1325.66 771V750.11H1351.14Z" fill="black"/>
<path opacity="0.34" d="M1325.66 771V750.11H1333.25L1328.58 771H1325.66Z" fill="black"/>
<path d="M1278.69 483.15L1265.06 547L1269.33 552.41C1269.33 552.41 1282.24 555.3 1289.35 541.67C1289.79 516.19 1290.54 487.89 1290.54 487.89L1278.69 483.15Z" fill="#FAB9AF"/>
<path opacity="0.04" d="M1278.69 483.15L1265.06 547L1269.33 552.41C1269.33 552.41 1282.24 555.3 1289.35 541.67C1289.79 516.19 1290.54 487.89 1290.54 487.89L1278.69 483.15Z" fill="black"/>
<path d="M1293.06 459.12C1293.06 459.12 1279.87 466.41 1274.39 487C1290.98 497.67 1290.98 497.67 1290.98 497.67L1293.06 459.12Z" fill="#4CAF50"/>
<path opacity="0.07" d="M1293.06 459.12C1293.06 459.12 1279.87 466.41 1274.39 487C1290.98 497.67 1290.98 497.67 1290.98 497.67L1293.06 459.12Z" fill="black"/>
<path d="M1358.25 459.12C1358.25 459.12 1371.44 466.41 1376.92 487C1360.33 497.67 1360.33 497.67 1360.33 497.67L1358.25 459.12Z" fill="#4CAF50"/>
<path opacity="0.07" d="M1358.25 459.12C1358.25 459.12 1371.44 466.41 1376.92 487C1360.33 497.67 1360.33 497.67 1360.33 497.67L1358.25 459.12Z" fill="black"/>
<path d="M1334.16 433.96H1317.16V453.52H1334.16V433.96Z" fill="#FAB9AF"/>
<path d="M1325.66 440.78C1307.66 440.78 1293.07 426.19 1293.07 408.19V392.33H1358.26V408.19C1358.25 426.19 1343.66 440.78 1325.66 440.78Z" fill="#FAB9AF"/>
<path d="M1364.83 568.78H1286.48V474.29C1286.48 462.82 1295.78 453.52 1307.25 453.52H1344.05C1355.52 453.52 1364.82 462.82 1364.82 474.29V568.78H1364.83Z" fill="#4CAF50"/>
<path opacity="0.35" d="M1364.83 568.78H1286.48V474.29C1286.48 462.82 1295.78 453.52 1307.25 453.52H1344.05C1355.52 453.52 1364.82 462.82 1364.82 474.29V568.78H1364.83Z" fill="white"/>
<path d="M1258.64 450.42C1258.24 449.23 1265.2 430.67 1265.2 430.67C1265.2 430.67 1273.2 431.74 1267.72 444.48C1262.68 452.04 1258.64 450.42 1258.64 450.42Z" fill="#FAB9AF"/>
<path opacity="0.06" d="M1267.72 443.7C1267.72 443.7 1269.93 439.37 1269.61 436C1268.26 436 1265.97 436.27 1265.97 436.27C1265.97 436.27 1263.24 443.22 1263.21 443.81C1263.2 444 1259.14 448.89 1259.14 449.37C1259.14 451.13 1264.15 447.85 1264.15 447.85C1264.15 447.85 1266.15 446.28 1267.72 443.7Z" fill="black"/>
<path d="M1275.25 430.67H1271.44C1270.57 430.67 1269.87 431.37 1269.87 432.24V437.62H1276.81V432.24C1276.82 431.37 1276.12 430.67 1275.25 430.67Z" fill="#FDBD57"/>
<path d="M1279.43 437.52H1267.28V453.52H1279.43V437.52Z" fill="#43A447"/>
<path d="M1277.9 466.22L1277.23 469.44L1267.34 470.77L1262.12 468.49L1261.12 465.55C1261.12 465.55 1270.12 464.11 1270.68 464.22C1271.24 464.33 1277.9 466.22 1277.9 466.22Z" fill="#FAB9AF"/>
<path opacity="0.06" d="M1277.9 466.22L1277.23 469.44L1267.34 470.77L1262.12 468.49L1261.12 465.55C1261.12 465.55 1270.12 464.11 1270.68 464.22C1271.24 464.33 1277.9 466.22 1277.9 466.22Z" fill="black"/>
<path d="M1269.34 552.41C1260.48 552.41 1253.51 544.85 1254.22 536.02L1259.24 473.74H1276.87L1284.46 536.02C1285.17 544.85 1278.2 552.41 1269.34 552.41Z" fill="#FAB9AF"/>
<path d="M1259.23 473.74C1259.23 473.74 1255.01 456.22 1255.01 455.67C1255.01 455.11 1264.34 442.23 1266.57 442C1268.79 441.78 1280.24 442 1280.24 442C1280.24 442 1286.34 444.56 1284.51 455.67C1282.68 466.78 1275.57 467.45 1270.68 467.78C1265.79 468.11 1262.57 467.34 1262.57 467.34C1262.57 467.34 1265.57 470.9 1277.24 469.45L1276.87 473.75H1259.23V473.74Z" fill="#FAB9AF"/>
<path opacity="0.35" d="M1358.25 493.89L1347.03 500.78L1335.8 493.89V475.44H1358.25V493.89Z" fill="white"/>
<path d="M1300.17 750.11C1300.17 750.11 1280.17 757.81 1280.17 771C1303.92 771 1325.65 771 1325.65 771V750.11H1300.17Z" fill="#084970"/>
<path opacity="0.34" d="M1300.17 750.11C1300.17 750.11 1280.17 757.81 1280.17 771C1303.92 771 1325.65 771 1325.65 771V750.11H1300.17Z" fill="black"/>
<path d="M1361.14 389.22H1328.88H1322.43H1290.17C1290.17 389.22 1285.59 398.7 1293.4 413.33C1311.74 413.33 1321.26 403.04 1325.66 395.9C1330.06 403.03 1339.58 413.33 1357.92 413.33C1365.73 398.7 1361.14 389.22 1361.14 389.22Z" fill="#084970"/>
<path d="M1325.66 339.97C1305.31 339.97 1288.44 355.75 1285.3 376.41H1366.02C1362.87 355.75 1346 339.97 1325.66 339.97Z" fill="#FDBD57"/>
<path d="M1366.01 376.41H1285.3H1280.32V395.37H1286.36H1364.95H1370.99V376.41H1366.01Z" fill="#FDBD57"/>
<path d="M1335.34 336.16H1315.97V376.41H1335.34V336.16Z" fill="#FDBD57"/>
<path opacity="0.26" d="M1335.34 336.16H1315.97V376.41H1335.34V336.16Z" fill="white"/>
<path opacity="0.06" d="M1366.01 376.41H1285.3H1280.32V395.37H1286.36H1364.95H1370.99V376.41H1366.01Z" fill="black"/>
<path d="M985.33 624.19C980.85 624.19 977.22 620.56 977.22 616.08V493.33C977.22 488.85 980.85 485.22 985.33 485.22C989.81 485.22 993.44 488.85 993.44 493.33V616.07C993.44 620.55 989.81 624.19 985.33 624.19Z" fill="#FAB9AF"/>
<path d="M984.77 568.78L971.07 750.11H945.59V568.78H984.77Z" fill="#4CAF50"/>
<g opacity="0.44">
<path opacity="0.34" d="M945.59 568.78V750.11H947.9L952.67 568.78H945.59Z" fill="black"/>
</g>
<path d="M906.42 568.78L920.11 750.11H945.59V568.78H906.42Z" fill="#4CAF50"/>
<path d="M971.07 750.11C971.07 750.11 991.07 757.81 991.07 771C967.32 771 945.59 771 945.59 771V750.11H971.07Z" fill="#084970"/>
<path opacity="0.34" d="M971.07 750.11C971.07 750.11 991.07 757.81 991.07 771C967.32 771 945.59 771 945.59 771V750.11H971.07Z" fill="black"/>
<path opacity="0.34" d="M945.59 771V750.11H953.19L948.52 771H945.59Z" fill="black"/>
<path d="M898.63 483.15L885 547L889.27 552.41C889.27 552.41 902.18 555.3 909.29 541.67C909.73 516.19 910.48 487.89 910.48 487.89L898.63 483.15Z" fill="#FAB9AF"/>
<path opacity="0.04" d="M898.63 483.15L885 547L889.27 552.41C889.27 552.41 902.18 555.3 909.29 541.67C909.73 516.19 910.48 487.89 910.48 487.89L898.63 483.15Z" fill="black"/>
<path d="M913 459.12C913 459.12 899.81 466.41 894.33 487C910.92 497.67 910.92 497.67 910.92 497.67L913 459.12Z" fill="#4CAF50"/>
<path opacity="0.07" d="M913 459.12C913 459.12 899.81 466.41 894.33 487C910.92 497.67 910.92 497.67 910.92 497.67L913 459.12Z" fill="black"/>
<path d="M978.19 459.12C978.19 459.12 991.38 466.41 996.86 487C980.27 497.67 980.27 497.67 980.27 497.67L978.19 459.12Z" fill="#4CAF50"/>
<path opacity="0.07" d="M978.19 459.12C978.19 459.12 991.38 466.41 996.86 487C980.27 497.67 980.27 497.67 980.27 497.67L978.19 459.12Z" fill="#4CAF50"/>
<path d="M954.09 433.96H937.09V453.52H954.09V433.96Z" fill="#FAB9AF"/>
<path d="M945.59 440.78C927.59 440.78 913 426.19 913 408.19V392.33H978.19V408.19C978.19 426.19 963.59 440.78 945.59 440.78Z" fill="#FAB9AF"/>
<path d="M942.7 400.79C935.96 402.77 928.79 403.33 922.49 406.61C919.05 408.4 915.56 411.04 911.81 410.34C908.01 409.63 905.34 405.41 905.08 401.2C904.82 396.99 906.51 392.9 908.73 389.45C914.38 380.65 923.81 374.89 933.62 374.25C940.92 373.77 953.41 376.46 957.72 383.88C962.54 392.19 947.98 399.24 942.7 400.79Z" fill="#084970"/>
<path d="M962.42 399.78C966.16 401.54 970.24 402.98 972.95 406.3C974.91 408.69 976.42 412.19 979.34 412.49C982.48 412.82 984.67 409.08 985.33 405.72C986.6 399.22 985 392.12 981.11 387.02C977.22 381.92 971.11 378.92 965.04 379.12C959.86 379.3 952.9 382.67 952.65 389.31C952.46 394.37 958.79 398.07 962.42 399.78Z" fill="#084970"/>
<path d="M649.593 496.57H560.46V656.57H649.593V496.57Z" fill="#398C3C"/>
<path d="M593.389 495H466V655H593.389V495Z" fill="#5EB061"/>
<path d="M1025.22 620.63H716.78V627.74H1025.22V620.63Z" fill="#D3D3D3"/>
<path d="M1408.03 620.63H1099.59V627.74H1408.03V620.63Z" fill="#D3D3D3"/>
<path d="M1365.82 972.31C1365.04 974.04 1364.41 975.87 1363.81 977.67C1364.5 975.9 1365.17 974.11 1365.82 972.31Z" fill="#4C8DCB"/>
<path d="M1560.56 771H359.44C348.39 771 339.44 779.95 339.44 791C339.44 802.05 348.39 811 359.44 811H1560.55C1571.6 811 1580.55 802.05 1580.55 791C1580.56 779.95 1571.6 771 1560.56 771Z" fill="#D3D3D3"/>
<path d="M1025.22 654.41H716.78C700.09 654.41 686.56 640.88 686.56 624.19C686.56 607.5 700.09 593.97 716.78 593.97H1025.22C1041.91 593.97 1055.44 607.5 1055.44 624.19C1055.44 640.88 1041.91 654.41 1025.22 654.41Z" stroke="#FDBD57" stroke-width="10" stroke-miterlimit="10"/>
<path d="M716.78 649.52C730.769 649.52 742.11 638.179 742.11 624.19C742.11 610.201 730.769 598.86 716.78 598.86C702.791 598.86 691.45 610.201 691.45 624.19C691.45 638.179 702.791 649.52 716.78 649.52Z" fill="#43A447"/>
<path d="M871 649.52C884.989 649.52 896.33 638.179 896.33 624.19C896.33 610.201 884.989 598.86 871 598.86C857.011 598.86 845.67 610.201 845.67 624.19C845.67 638.179 857.011 649.52 871 649.52Z" fill="#43A447"/>
<path d="M1025.22 649.52C1039.21 649.52 1050.55 638.179 1050.55 624.19C1050.55 610.201 1039.21 598.86 1025.22 598.86C1011.23 598.86 999.89 610.201 999.89 624.19C999.89 638.179 1011.23 649.52 1025.22 649.52Z" fill="#43A447"/>
<path d="M716.78 633.6C721.977 633.6 726.19 629.387 726.19 624.19C726.19 618.993 721.977 614.78 716.78 614.78C711.583 614.78 707.37 618.993 707.37 624.19C707.37 629.387 711.583 633.6 716.78 633.6Z" fill="white"/>
<path d="M871 633.6C876.197 633.6 880.41 629.387 880.41 624.19C880.41 618.993 876.197 614.78 871 614.78C865.803 614.78 861.59 618.993 861.59 624.19C861.59 629.387 865.803 633.6 871 633.6Z" fill="white"/>
<path d="M1025.22 633.6C1030.42 633.6 1034.63 629.387 1034.63 624.19C1034.63 618.993 1030.42 614.78 1025.22 614.78C1020.02 614.78 1015.81 618.993 1015.81 624.19C1015.81 629.387 1020.02 633.6 1025.22 633.6Z" fill="white"/>
<path d="M743.37 659.44H720.7V753.66H743.37V659.44Z" fill="#52BA56"/>
<path d="M753.59 753.67H710.48V771H753.59V753.67Z" fill="#3D9841"/>
<path opacity="0.15" d="M753.59 753.67H710.48V771H753.59V753.67Z" fill="#43A447"/>
<path d="M1021.3 659.44H998.63V753.66H1021.3V659.44Z" fill="#52BA56"/>
<path d="M1031.52 753.67H988.41V771H1031.52V753.67Z" fill="#43A447"/>
<path opacity="0.15" d="M1031.52 753.67H988.41V771H1031.52V753.67Z" fill="black"/>
<path d="M1408.04 654.41H1099.6C1082.91 654.41 1069.38 640.88 1069.38 624.19C1069.38 607.5 1082.91 593.97 1099.6 593.97H1408.04C1424.73 593.97 1438.26 607.5 1438.26 624.19C1438.26 640.88 1424.73 654.41 1408.04 654.41Z" stroke="#FDBD57" stroke-width="10" stroke-miterlimit="10"/>
<path d="M1099.59 649.52C1113.58 649.52 1124.92 638.179 1124.92 624.19C1124.92 610.201 1113.58 598.86 1099.59 598.86C1085.6 598.86 1074.26 610.201 1074.26 624.19C1074.26 638.179 1085.6 649.52 1099.59 649.52Z" fill="#43A447"/>
<path d="M1253.81 649.52C1267.8 649.52 1279.14 638.179 1279.14 624.19C1279.14 610.201 1267.8 598.86 1253.81 598.86C1239.82 598.86 1228.48 610.201 1228.48 624.19C1228.48 638.179 1239.82 649.52 1253.81 649.52Z" fill="#43A447"/>
<path d="M1408.04 649.52C1422.03 649.52 1433.37 638.179 1433.37 624.19C1433.37 610.201 1422.03 598.86 1408.04 598.86C1394.05 598.86 1382.71 610.201 1382.71 624.19C1382.71 638.179 1394.05 649.52 1408.04 649.52Z" fill="#43A447"/>
<path d="M1099.59 633.6C1104.79 633.6 1109 629.387 1109 624.19C1109 618.993 1104.79 614.78 1099.59 614.78C1094.39 614.78 1090.18 618.993 1090.18 624.19C1090.18 629.387 1094.39 633.6 1099.59 633.6Z" fill="white"/>
<path d="M1253.81 633.6C1259.01 633.6 1263.22 629.387 1263.22 624.19C1263.22 618.993 1259.01 614.78 1253.81 614.78C1248.61 614.78 1244.4 618.993 1244.4 624.19C1244.4 629.387 1248.61 633.6 1253.81 633.6Z" fill="white"/>
<path d="M1408.04 633.6C1413.24 633.6 1417.45 629.387 1417.45 624.19C1417.45 618.993 1413.24 614.78 1408.04 614.78C1402.84 614.78 1398.63 618.993 1398.63 624.19C1398.63 629.387 1402.84 633.6 1408.04 633.6Z" fill="white"/>
<path d="M1126.19 659.44H1103.52V753.66H1126.19V659.44Z" fill="#52BA56"/>
<path d="M1136.41 753.67H1093.3V771H1136.41V753.67Z" fill="#43A447"/>
<path opacity="0.15" d="M1136.41 753.67H1093.3V771H1136.41V753.67Z" fill="black"/>
<path d="M1404.11 659.44H1381.44V753.66H1404.11V659.44Z" fill="#52BA56"/>
<path d="M1414.33 753.67H1371.22V771H1414.33V753.67Z" fill="#43A447"/>
<path opacity="0.15" d="M1414.33 753.67H1371.22V771H1414.33V753.67Z" fill="#43A447"/>
<path d="M836.13 502.41H749.59V588.95H836.13V502.41Z" fill="#FDBD57"/>
<path opacity="0.26" d="M836.13 502.41H749.59V588.95H836.13V502.41Z" fill="white"/>
<path d="M836.13 502.41L867.67 529.44L863.89 533.89L836.13 509.44V502.41Z" fill="#FDBD57"/>
<path d="M749.59 502.41L718.06 529.44L721.84 533.89L749.59 509.44V502.41Z" fill="#FDBD57"/>
<path d="M1216.59 502.41H1130.05V588.95H1216.59V502.41Z" fill="#FDBD57"/>
<path opacity="0.26" d="M1216.59 502.41H1130.05V588.95H1216.59V502.41Z" fill="white"/>
<path d="M1216.59 502.41L1248.13 529.44L1244.35 533.89L1216.59 509.44V502.41Z" fill="#FDBD57"/>
<path d="M1130.05 502.41L1098.52 529.44L1102.3 533.89L1130.05 509.44V502.41Z" fill="#FDBD57"/>
<path d="M671.54 653.1H466.11V771H671.54V653.1Z" fill="#43A447"/>
<path d="M652.77 447.8H484.88C474.51 447.8 466.11 456.21 466.11 466.57V497.56H671.54V466.57C671.54 456.21 663.14 447.8 652.77 447.8Z" fill="#50B654"/>
<path d="M568 726C582.359 726 594 714.359 594 700C594 685.641 582.359 674 568 674C553.641 674 542 685.641 542 700C542 714.359 553.641 726 568 726Z" fill="#4C8DCB"/>
<path opacity="0.46" d="M568 726C582.359 726 594 714.359 594 700C594 685.641 582.359 674 568 674C553.641 674 542 685.641 542 700C542 714.359 553.641 726 568 726Z" fill="white"/>
<path d="M566.898 704.238L548.869 695.617C548.534 695.456 548.389 695.049 548.549 694.714C548.68 694.452 548.956 694.306 549.233 694.335L569.097 696.432C571.354 696.665 573 698.704 572.752 700.961C572.519 703.218 570.481 704.864 568.223 704.617C567.772 704.573 567.306 704.442 566.898 704.238Z" fill="#4C8DCB"/>
<path opacity="0.26" d="M749.59 502.41L763.19 533.89H822.54L836.13 502.41H749.59Z" fill="white"/>
<path opacity="0.26" d="M1130.05 502.41L1143.65 533.89H1202.99L1216.59 502.41H1130.05Z" fill="white"/>
<path d="M945.59 339.97C925.24 339.97 908.37 355.75 905.23 376.41H985.95C982.81 355.75 965.94 339.97 945.59 339.97Z" fill="#FDBD57"/>
<path d="M984.77 376.41H904.05H899.07V395.37H905.11H983.7H989.74V376.41H984.77Z" fill="#FDBD57"/>
<path d="M954.09 336.16H934.72V376.41H954.09V336.16Z" fill="#FDBD57"/>
<path opacity="0.26" d="M955.28 336.16H935.91V376.41H955.28V336.16Z" fill="white"/>
<path opacity="0.06" d="M985.95 376.41H905.23H900.26V395.37H906.3H984.89H990.93V376.41H985.95Z" fill="black"/>
<path d="M984.77 568.78H906.42V474.29C906.42 462.82 915.72 453.52 927.19 453.52H963.99C975.46 453.52 984.76 462.82 984.76 474.29V568.78H984.77Z" fill="#4CAF50"/>
<path opacity="0.35" d="M984.77 568.78H906.42V474.29C906.42 462.82 915.72 453.52 927.19 453.52H963.99C975.46 453.52 984.76 462.82 984.76 474.29V568.78H984.77Z" fill="white"/>
<path d="M878.58 450.42C878.18 449.23 885.14 430.67 885.14 430.67C885.14 430.67 893.14 431.74 887.66 444.48C882.62 452.04 878.58 450.42 878.58 450.42Z" fill="#FAB9AF"/>
<path opacity="0.06" d="M887.66 443.7C887.66 443.7 889.87 439.37 889.55 436C888.2 436 885.91 436.27 885.91 436.27C885.91 436.27 883.18 443.22 883.15 443.81C883.14 444 879.08 448.89 879.08 449.37C879.08 451.13 884.09 447.85 884.09 447.85C884.09 447.85 886.08 446.28 887.66 443.7Z" fill="black"/>
<path d="M895.19 430.67H891.38C890.51 430.67 889.81 431.37 889.81 432.24V437.62H896.75V432.24C896.76 431.37 896.06 430.67 895.19 430.67Z" fill="#FDBD57"/>
<path d="M899.36 437.52H887.21V453.52H899.36V437.52Z" fill="#43A447"/>
<path d="M897.84 466.22L897.17 469.44L887.28 470.77L882.06 468.49L881.06 465.55C881.06 465.55 890.06 464.11 890.62 464.22C891.18 464.33 897.84 466.22 897.84 466.22Z" fill="#FAB9AF"/>
<path opacity="0.06" d="M897.84 466.22L897.17 469.44L887.28 470.77L882.06 468.49L881.06 465.55C881.06 465.55 890.06 464.11 890.62 464.22C891.18 464.33 897.84 466.22 897.84 466.22Z" fill="black"/>
<path d="M889.27 552.41C880.41 552.41 873.44 544.85 874.15 536.02L879.17 473.74H896.8L904.39 536.02C905.11 544.85 898.13 552.41 889.27 552.41Z" fill="#FAB9AF"/>
<path d="M879.17 473.74C879.17 473.74 874.95 456.22 874.95 455.67C874.95 455.11 884.28 442.23 886.51 442C888.73 441.78 900.18 442 900.18 442C900.18 442 906.28 444.56 904.45 455.67C902.62 466.78 895.51 467.45 890.62 467.78C885.73 468.11 882.51 467.34 882.51 467.34C882.51 467.34 885.51 470.9 897.18 469.45L896.81 473.75H879.17V473.74Z" fill="#FAB9AF"/>
<path opacity="0.35" d="M938.33 493.89L927.11 500.78L915.89 493.89V475.44H938.33V493.89Z" fill="white"/>
<path d="M920.11 750.11C920.11 750.11 900.11 757.81 900.11 771C923.86 771 945.59 771 945.59 771V750.11H920.11Z" fill="#084970"/>
<path opacity="0.34" d="M920.11 750.11C920.11 750.11 900.11 757.81 900.11 771C923.86 771 945.59 771 945.59 771V750.11H920.11Z" fill="black"/>
</svg>
