<svg xmlns="http://www.w3.org/2000/svg" xmlns:xlink="http://www.w3.org/1999/xlink" version="1.1" id="Design" x="0px" y="0px" viewBox="0 0 1920 1080" style="enable-background:new 0 0 1920 1080;" xml:space="preserve">
<style xmlns="http://www.w3.org/2000/svg" type="text/css">
	.st0{opacity:0.31;fill:#D3D3D3;}
	.st1{fill:#084970;}
	.st2{opacity:0.25;}
	.st3{fill:#FAB9AF;}
	.st4{fill:#4C8DCB;}
	.st5{opacity:0.44;}
	.st6{opacity:0.34;}
	.st7{opacity:0.04;}
	.st8{fill:#FDBD57;}
	.st9{opacity:0.07;}
	.st10{opacity:0.35;fill:#FFFFFF;}
	.st11{opacity:0.06;}
	.st12{opacity:0.26;fill:#FFFFFF;}
	.st13{fill:#D3D3D3;}
	.st14{fill:#0B538C;}
	.st15{fill:#F2F2F3;}
	.st16{fill:none;stroke:#FDBD57;stroke-width:10;stroke-miterlimit:10;}
	.st17{fill:#FFFFFF;}
	.st18{opacity:0.15;}
	.st19{fill:none;stroke:#FDBD57;stroke-width:7;stroke-miterlimit:10;}
	.st20{fill:none;}
	.st21{opacity:0.16;}
	.st22{opacity:0.46;fill:#FFFFFF;}
</style>
<path xmlns="http://www.w3.org/2000/svg" class="st0" d="M1416.11,788.78H560.85c-5.22-43.96-8.8-89.2-2.22-132.98c6.58-43.78,26.51-87.4,62.55-113.11  c15.11-10.78,32.5-18.08,47.42-29.11c36.44-26.95,53.52-72.05,70.61-114.03c18.39-45.16,40.41-91.5,79.73-120.35  c30.4-22.3,72.69-30.31,107.62-13.97c36.37,17.01,43.25,68.67,83.67,79.42c46.22,12.29,92.63-35.45,130.33,13.22  c11.54,14.9,18.61,32.87,30.12,47.79c14.33,18.6,35.48,31.82,58.48,36.56c19.9,4.1,41.88,2.38,58.92,13.45  c17.45,11.33,24.39,32.27,39.67,45.69c17.17,15.07,41.53,21.32,63.36,25.69c85.42,17.13,87.14,94.96,93.22,167.37  c1.35,16.1,0.56,94.34,24.23,94.34C1508.55,788.78,1416.11,788.78,1416.11,788.78z"/>
<path xmlns="http://www.w3.org/2000/svg" class="st1" d="M1302.17,406.74h46.96v19.04c0,12.23-9.92,22.15-22.15,22.15h-2.67c-12.23,0-22.15-9.92-22.15-22.15V406.74z"/>
<path xmlns="http://www.w3.org/2000/svg" class="st2" d="M1302.17,406.74h46.96v19.04c0,12.23-9.92,22.15-22.15,22.15h-2.67c-12.23,0-22.15-9.92-22.15-22.15V406.74z"/>
<path xmlns="http://www.w3.org/2000/svg" class="st3" d="M1365.4,624.19L1365.4,624.19c-4.48,0-8.11-3.63-8.11-8.11V493.33c0-4.48,3.63-8.11,8.11-8.11l0,0  c4.48,0,8.11,3.63,8.11,8.11v122.74C1373.51,620.55,1369.88,624.19,1365.4,624.19z"/>
<polygon xmlns="http://www.w3.org/2000/svg" class="st4" points="1364.83,568.78 1351.14,750.11 1325.66,750.11 1325.66,568.78 "/>
<g xmlns="http://www.w3.org/2000/svg" class="st5">
	<polygon class="st6" points="1325.66,568.78 1325.66,750.11 1327.96,750.11 1332.73,568.78  "/>
</g>
<polygon xmlns="http://www.w3.org/2000/svg" class="st4" points="1286.48,568.78 1300.17,750.11 1325.66,750.11 1325.66,568.78 "/>
<path xmlns="http://www.w3.org/2000/svg" class="st1" d="M1351.14,750.11c0,0,20,7.7,20,20.89c-23.75,0-45.48,0-45.48,0v-20.89H1351.14z"/>
<path xmlns="http://www.w3.org/2000/svg" class="st6" d="M1351.14,750.11c0,0,20,7.7,20,20.89c-23.75,0-45.48,0-45.48,0v-20.89H1351.14z"/>
<polygon xmlns="http://www.w3.org/2000/svg" class="st6" points="1325.66,771 1325.66,750.11 1333.25,750.11 1328.58,771 "/>
<path xmlns="http://www.w3.org/2000/svg" class="st3" d="M1278.69,483.15L1265.06,547l4.27,5.41c0,0,12.91,2.89,20.02-10.74c0.44-25.48,1.19-53.78,1.19-53.78  L1278.69,483.15z"/>
<path xmlns="http://www.w3.org/2000/svg" class="st7" d="M1278.69,483.15L1265.06,547l4.27,5.41c0,0,12.91,2.89,20.02-10.74c0.44-25.48,1.19-53.78,1.19-53.78  L1278.69,483.15z"/>
<path xmlns="http://www.w3.org/2000/svg" class="st8" d="M1293.06,459.12c0,0-13.19,7.29-18.67,27.88c16.59,10.67,16.59,10.67,16.59,10.67L1293.06,459.12z"/>
<path xmlns="http://www.w3.org/2000/svg" class="st9" d="M1293.06,459.12c0,0-13.19,7.29-18.67,27.88c16.59,10.67,16.59,10.67,16.59,10.67L1293.06,459.12z"/>
<path xmlns="http://www.w3.org/2000/svg" class="st8" d="M1358.25,459.12c0,0,13.19,7.29,18.67,27.88c-16.59,10.67-16.59,10.67-16.59,10.67L1358.25,459.12z"/>
<path xmlns="http://www.w3.org/2000/svg" class="st9" d="M1358.25,459.12c0,0,13.19,7.29,18.67,27.88c-16.59,10.67-16.59,10.67-16.59,10.67L1358.25,459.12z"/>
<rect xmlns="http://www.w3.org/2000/svg" x="1317.16" y="433.96" class="st3" width="17" height="19.56"/>
<path xmlns="http://www.w3.org/2000/svg" class="st3" d="M1325.66,440.78L1325.66,440.78c-18,0-32.59-14.59-32.59-32.59v-15.86h65.19v15.86  C1358.25,426.19,1343.66,440.78,1325.66,440.78z"/>
<path xmlns="http://www.w3.org/2000/svg" class="st8" d="M1364.83,568.78h-78.35v-94.49c0-11.47,9.3-20.77,20.77-20.77h36.8c11.47,0,20.77,9.3,20.77,20.77V568.78z"/>
<path xmlns="http://www.w3.org/2000/svg" class="st10" d="M1364.83,568.78h-78.35v-94.49c0-11.47,9.3-20.77,20.77-20.77h36.8c11.47,0,20.77,9.3,20.77,20.77V568.78z"/>
<g xmlns="http://www.w3.org/2000/svg">
	<path class="st3" d="M1258.64,450.42c-0.4-1.19,6.56-19.75,6.56-19.75s8,1.07,2.52,13.81   C1262.68,452.04,1258.64,450.42,1258.64,450.42z"/>
	<path class="st11" d="M1267.72,443.7c0,0,2.21-4.33,1.89-7.7c-1.35,0-3.64,0.27-3.64,0.27s-2.73,6.95-2.76,7.54   c-0.01,0.19-4.07,5.08-4.07,5.56c0,1.76,5.01-1.52,5.01-1.52S1266.15,446.28,1267.72,443.7z"/>
	<path class="st8" d="M1275.25,430.67h-3.81c-0.87,0-1.57,0.7-1.57,1.57v5.38h6.94v-5.38   C1276.82,431.37,1276.12,430.67,1275.25,430.67z"/>
	<rect x="1267.28" y="437.52" class="st4" width="12.15" height="16"/>
	<path class="st3" d="M1277.9,466.22l-0.67,3.22l-9.89,1.33l-5.22-2.28l-1-2.94c0,0,9-1.44,9.56-1.33   C1271.24,464.33,1277.9,466.22,1277.9,466.22z"/>
	<path class="st11" d="M1277.9,466.22l-0.67,3.22l-9.89,1.33l-5.22-2.28l-1-2.94c0,0,9-1.44,9.56-1.33   C1271.24,464.33,1277.9,466.22,1277.9,466.22z"/>
	<path class="st3" d="M1269.34,552.41L1269.34,552.41c-8.86,0-15.83-7.56-15.12-16.39l5.02-62.28h17.63l7.59,62.28   C1285.17,544.85,1278.2,552.41,1269.34,552.41z"/>
	<path class="st3" d="M1259.23,473.74c0,0-4.22-17.52-4.22-18.07c0-0.56,9.33-13.44,11.56-13.67c2.22-0.22,13.67,0,13.67,0   s6.1,2.56,4.27,13.67s-8.94,11.78-13.83,12.11c-4.89,0.33-8.11-0.44-8.11-0.44s3,3.56,14.67,2.11l-0.37,4.3H1259.23z"/>
</g>
<polygon xmlns="http://www.w3.org/2000/svg" class="st10" points="1358.25,493.89 1347.03,500.78 1335.8,493.89 1335.8,475.44 1358.25,475.44 "/>
<path xmlns="http://www.w3.org/2000/svg" class="st1" d="M1300.17,750.11c0,0-20,7.7-20,20.89c23.75,0,45.48,0,45.48,0v-20.89H1300.17z"/>
<path xmlns="http://www.w3.org/2000/svg" class="st6" d="M1300.17,750.11c0,0-20,7.7-20,20.89c23.75,0,45.48,0,45.48,0v-20.89H1300.17z"/>
<path xmlns="http://www.w3.org/2000/svg" class="st1" d="M1361.14,389.22h-32.26h-6.45h-32.26c0,0-4.58,9.48,3.23,24.11c18.34,0,27.86-10.29,32.26-17.43  c4.4,7.13,13.92,17.43,32.26,17.43C1365.73,398.7,1361.14,389.22,1361.14,389.22z"/>
<path xmlns="http://www.w3.org/2000/svg" class="st8" d="M1325.66,339.97c-20.35,0-37.22,15.78-40.36,36.44h80.72C1362.87,355.75,1346,339.97,1325.66,339.97z"/>
<polygon xmlns="http://www.w3.org/2000/svg" class="st8" points="1366.01,376.41 1285.3,376.41 1280.32,376.41 1280.32,395.37 1286.36,395.37 1364.95,395.37   1370.99,395.37 1370.99,376.41 "/>
<rect xmlns="http://www.w3.org/2000/svg" x="1315.97" y="336.16" class="st8" width="19.37" height="40.25"/>
<rect xmlns="http://www.w3.org/2000/svg" x="1315.97" y="336.16" class="st12" width="19.37" height="40.25"/>
<polygon xmlns="http://www.w3.org/2000/svg" class="st11" points="1366.01,376.41 1285.3,376.41 1280.32,376.41 1280.32,395.37 1286.36,395.37 1364.95,395.37   1370.99,395.37 1370.99,376.41 "/>
<path xmlns="http://www.w3.org/2000/svg" class="st3" d="M985.33,624.19L985.33,624.19c-4.48,0-8.11-3.63-8.11-8.11V493.33c0-4.48,3.63-8.11,8.11-8.11l0,0  c4.48,0,8.11,3.63,8.11,8.11v122.74C993.44,620.55,989.81,624.19,985.33,624.19z"/>
<polygon xmlns="http://www.w3.org/2000/svg" class="st4" points="984.77,568.78 971.07,750.11 945.59,750.11 945.59,568.78 "/>
<g xmlns="http://www.w3.org/2000/svg" class="st5">
	<polygon class="st6" points="945.59,568.78 945.59,750.11 947.9,750.11 952.67,568.78  "/>
</g>
<polygon xmlns="http://www.w3.org/2000/svg" class="st4" points="906.42,568.78 920.11,750.11 945.59,750.11 945.59,568.78 "/>
<path xmlns="http://www.w3.org/2000/svg" class="st1" d="M971.07,750.11c0,0,20,7.7,20,20.89c-23.75,0-45.48,0-45.48,0v-20.89H971.07z"/>
<path xmlns="http://www.w3.org/2000/svg" class="st6" d="M971.07,750.11c0,0,20,7.7,20,20.89c-23.75,0-45.48,0-45.48,0v-20.89H971.07z"/>
<polygon xmlns="http://www.w3.org/2000/svg" class="st6" points="945.59,771 945.59,750.11 953.19,750.11 948.52,771 "/>
<path xmlns="http://www.w3.org/2000/svg" class="st3" d="M898.63,483.15L885,547l4.27,5.41c0,0,12.91,2.89,20.02-10.74c0.44-25.48,1.19-53.78,1.19-53.78L898.63,483.15z  "/>
<path xmlns="http://www.w3.org/2000/svg" class="st7" d="M898.63,483.15L885,547l4.27,5.41c0,0,12.91,2.89,20.02-10.74c0.44-25.48,1.19-53.78,1.19-53.78L898.63,483.15z  "/>
<path xmlns="http://www.w3.org/2000/svg" class="st8" d="M913,459.12c0,0-13.19,7.29-18.67,27.88c16.59,10.67,16.59,10.67,16.59,10.67L913,459.12z"/>
<path xmlns="http://www.w3.org/2000/svg" class="st9" d="M913,459.12c0,0-13.19,7.29-18.67,27.88c16.59,10.67,16.59,10.67,16.59,10.67L913,459.12z"/>
<path xmlns="http://www.w3.org/2000/svg" class="st8" d="M978.19,459.12c0,0,13.19,7.29,18.67,27.88c-16.59,10.67-16.59,10.67-16.59,10.67L978.19,459.12z"/>
<path xmlns="http://www.w3.org/2000/svg" class="st9" d="M978.19,459.12c0,0,13.19,7.29,18.67,27.88c-16.59,10.67-16.59,10.67-16.59,10.67L978.19,459.12z"/>
<rect xmlns="http://www.w3.org/2000/svg" x="937.09" y="433.96" class="st3" width="17" height="19.56"/>
<path xmlns="http://www.w3.org/2000/svg" class="st3" d="M945.59,440.78L945.59,440.78c-18,0-32.59-14.59-32.59-32.59v-15.86h65.19v15.86  C978.19,426.19,963.59,440.78,945.59,440.78z"/>
<path xmlns="http://www.w3.org/2000/svg" class="st1" d="M942.7,400.79c-6.74,1.98-13.91,2.54-20.21,5.82c-3.44,1.79-6.93,4.43-10.68,3.73  c-3.8-0.71-6.47-4.93-6.73-9.14s1.43-8.3,3.65-11.75c5.65-8.8,15.08-14.56,24.89-15.2c7.3-0.48,19.79,2.21,24.1,9.63  C962.54,392.19,947.98,399.24,942.7,400.79z"/>
<path xmlns="http://www.w3.org/2000/svg" class="st1" d="M962.42,399.78c3.74,1.76,7.82,3.2,10.53,6.52c1.96,2.39,3.47,5.89,6.39,6.19c3.14,0.33,5.33-3.41,5.99-6.77  c1.27-6.5-0.33-13.6-4.22-18.7s-10-8.1-16.07-7.9c-5.18,0.18-12.14,3.55-12.39,10.19C952.46,394.37,958.79,398.07,962.42,399.78z"/>
<rect xmlns="http://www.w3.org/2000/svg" x="560.46" y="496.57" class="st1" width="87.2" height="156.53"/>
<rect xmlns="http://www.w3.org/2000/svg" x="466.11" y="496.57" class="st4" width="124.32" height="156.53"/>
<rect xmlns="http://www.w3.org/2000/svg" x="716.78" y="620.63" class="st13" width="308.44" height="7.11"/>
<rect xmlns="http://www.w3.org/2000/svg" x="1099.59" y="620.63" class="st13" width="308.44" height="7.11"/>
<path xmlns="http://www.w3.org/2000/svg" class="st4" d="M1365.82,972.31c-0.78,1.73-1.41,3.56-2.01,5.36C1364.5,975.9,1365.17,974.11,1365.82,972.31z"/>
<path xmlns="http://www.w3.org/2000/svg" class="st13" d="M1560.56,771H359.44c-11.05,0-20,8.95-20,20l0,0c0,11.05,8.95,20,20,20h1201.11c11.05,0,20-8.95,20-20l0,0  C1580.56,779.95,1571.6,771,1560.56,771z"/>
<path xmlns="http://www.w3.org/2000/svg" class="st16" d="M1025.22,654.41H716.78c-16.69,0-30.22-13.53-30.22-30.22v0c0-16.69,13.53-30.22,30.22-30.22h308.44  c16.69,0,30.22,13.53,30.22,30.22v0C1055.44,640.88,1041.91,654.41,1025.22,654.41z"/>
<circle xmlns="http://www.w3.org/2000/svg" class="st4" cx="716.78" cy="624.19" r="25.33"/>
<circle xmlns="http://www.w3.org/2000/svg" class="st4" cx="871" cy="624.19" r="25.33"/>
<circle xmlns="http://www.w3.org/2000/svg" class="st4" cx="1025.22" cy="624.19" r="25.33"/>
<circle xmlns="http://www.w3.org/2000/svg" class="st17" cx="716.78" cy="624.19" r="9.41"/>
<circle xmlns="http://www.w3.org/2000/svg" class="st17" cx="871" cy="624.19" r="9.41"/>
<circle xmlns="http://www.w3.org/2000/svg" class="st17" cx="1025.22" cy="624.19" r="9.41"/>
<g xmlns="http://www.w3.org/2000/svg">
	<rect x="720.7" y="659.44" class="st4" width="22.67" height="94.22"/>
	<rect x="710.48" y="753.67" class="st4" width="43.11" height="17.33"/>
	<rect x="710.48" y="753.67" class="st18" width="43.11" height="17.33"/>
	<rect x="998.63" y="659.44" class="st4" width="22.67" height="94.22"/>
	<rect x="988.41" y="753.67" class="st4" width="43.11" height="17.33"/>
	<rect x="988.41" y="753.67" class="st18" width="43.11" height="17.33"/>
</g>
<path xmlns="http://www.w3.org/2000/svg" class="st16" d="M1408.04,654.41h-308.44c-16.69,0-30.22-13.53-30.22-30.22v0c0-16.69,13.53-30.22,30.22-30.22h308.44  c16.69,0,30.22,13.53,30.22,30.22v0C1438.26,640.88,1424.73,654.41,1408.04,654.41z"/>
<circle xmlns="http://www.w3.org/2000/svg" class="st4" cx="1099.59" cy="624.19" r="25.33"/>
<circle xmlns="http://www.w3.org/2000/svg" class="st4" cx="1253.81" cy="624.19" r="25.33"/>
<circle xmlns="http://www.w3.org/2000/svg" class="st4" cx="1408.04" cy="624.19" r="25.33"/>
<circle xmlns="http://www.w3.org/2000/svg" class="st17" cx="1099.59" cy="624.19" r="9.41"/>
<circle xmlns="http://www.w3.org/2000/svg" class="st17" cx="1253.81" cy="624.19" r="9.41"/>
<circle xmlns="http://www.w3.org/2000/svg" class="st17" cx="1408.04" cy="624.19" r="9.41"/>
<g xmlns="http://www.w3.org/2000/svg">
	<rect x="1103.52" y="659.44" class="st4" width="22.67" height="94.22"/>
	<rect x="1093.3" y="753.67" class="st4" width="43.11" height="17.33"/>
	<rect x="1093.3" y="753.67" class="st18" width="43.11" height="17.33"/>
	<rect x="1381.44" y="659.44" class="st4" width="22.67" height="94.22"/>
	<rect x="1371.22" y="753.67" class="st4" width="43.11" height="17.33"/>
	<rect x="1371.22" y="753.67" class="st18" width="43.11" height="17.33"/>
</g>
<rect xmlns="http://www.w3.org/2000/svg" x="749.59" y="502.41" class="st8" width="86.54" height="86.54"/>
<rect xmlns="http://www.w3.org/2000/svg" x="749.59" y="502.41" class="st12" width="86.54" height="86.54"/>
<polygon xmlns="http://www.w3.org/2000/svg" class="st8" points="836.13,502.41 867.67,529.44 863.89,533.89 836.13,509.44 "/>
<polygon xmlns="http://www.w3.org/2000/svg" class="st8" points="749.59,502.41 718.06,529.44 721.84,533.89 749.59,509.44 "/>
<rect xmlns="http://www.w3.org/2000/svg" x="1130.05" y="502.41" class="st8" width="86.54" height="86.54"/>
<rect xmlns="http://www.w3.org/2000/svg" x="1130.05" y="502.41" class="st12" width="86.54" height="86.54"/>
<polygon xmlns="http://www.w3.org/2000/svg" class="st8" points="1216.59,502.41 1248.13,529.44 1244.35,533.89 1216.59,509.44 "/>
<polygon xmlns="http://www.w3.org/2000/svg" class="st8" points="1130.05,502.41 1098.52,529.44 1102.3,533.89 1130.05,509.44 "/>
<rect xmlns="http://www.w3.org/2000/svg" x="466.11" y="653.1" class="st4" width="205.43" height="117.9"/>
<path xmlns="http://www.w3.org/2000/svg" class="st4" d="M652.77,446.8H484.88c-10.37,0-18.77,8.41-18.77,18.77v30.99h205.43v-30.99  C671.54,455.21,663.14,446.8,652.77,446.8z"/>
<circle xmlns="http://www.w3.org/2000/svg" class="st19" cx="616" cy="708.74" r="32.4"/>
<circle xmlns="http://www.w3.org/2000/svg" class="st19" cx="616" cy="708.74" r="11.5"/>
<line xmlns="http://www.w3.org/2000/svg" class="st19" x1="616" y1="697.24" x2="616" y2="676.34"/>
<line xmlns="http://www.w3.org/2000/svg" class="st19" x1="626.01" y1="714.56" x2="641.11" y2="729.05"/>
<line xmlns="http://www.w3.org/2000/svg" class="st19" x1="590.43" y1="729.05" x2="605.52" y2="714.56"/>
<rect xmlns="http://www.w3.org/2000/svg" x="466.11" y="496.57" class="st12" width="124.32" height="156.53"/>
<g xmlns="http://www.w3.org/2000/svg">
	<path class="st20" d="M556.31,358.85c0.41,0.19,0.84,0.35,1.28,0.47l0.11-2.13L556.31,358.85z"/>
	<path class="st20" d="M563.83,359.18c0.68-0.23,1.32-0.54,1.92-0.91l-1.71-2.97L563.83,359.18z"/>
	<path class="st20" d="M569.89,353c0.29-0.91,0.45-1.88,0.45-2.89v-0.09l-2.75-1.01L569.89,353z"/>
	<path class="st4" d="M541.58,331.53l-5.56,15.16c0.41,1.07,0.64,2.22,0.64,3.43c0,0.17,0.01,0.33,0.01,0.5l12.56-8.59   C547.71,337.84,545.02,334.22,541.58,331.53z"/>
	<path class="st4" d="M550.67,350.11c0-0.5-0.02-1-0.05-1.49l-12.8,8.75c1,3.08,2.61,5.87,4.69,8.25l9.27-11.05   C551.07,353.24,550.67,351.72,550.67,350.11z"/>
	<path class="st4" d="M556.31,358.85l-9.14,10.89c2.85,1.91,6.13,3.21,9.67,3.72l0.74-14.14   C557.15,359.19,556.73,359.03,556.31,358.85z"/>
	<path class="st4" d="M563.83,359.18l-0.76,14.4c3.51-0.35,6.79-1.46,9.68-3.18l-7-12.13C565.15,358.65,564.51,358.95,563.83,359.18   z"/>
	<path class="st4" d="M570.33,350.11c0,1.01-0.16,1.98-0.45,2.89l7.8,13.5c3.04-3.14,5.22-7.11,6.15-11.54l-13.5-4.95V350.11z"/>
	<path class="st4" d="M570.33,340.8v2.59l14,5.13v-7.72c0-1.23,0.13-2.44,0.38-3.6l-13.22-4.84   C570.75,335.04,570.33,337.87,570.33,340.8z"/>
	<rect x="500.81" y="379.89" class="st4" width="14" height="10.44"/>
	<rect x="500.81" y="396.56" class="st4" width="14" height="10.44"/>
	<rect x="500.81" y="413.22" class="st4" width="14" height="9.89"/>
	<path class="st4" d="M527.07,326.52h-2.67c-0.71,0-1.41,0.04-2.1,0.1l6.1,14.01c1.02,0.14,1.99,0.45,2.89,0.89l4.83-13.18   C533.34,327.16,530.28,326.52,527.07,326.52z"/>
	<rect x="500.81" y="429.33" class="st4" width="14" height="9"/>
	<path class="st4" d="M504.45,337.55l12.15,7.01c1.24-1.74,3.04-3.05,5.14-3.66l-5.61-12.88   C511.28,329.84,507.19,333.22,504.45,337.55z"/>
	<path class="st4" d="M500.81,350.11V357h14v-6.29l-12.97-7.49C501.18,345.4,500.81,347.72,500.81,350.11z"/>
	<rect x="500.81" y="363.22" class="st4" width="14" height="10.44"/>
	<rect x="500.81" y="444.56" class="st4" width="14" height="2.94"/>
	<rect x="619.01" y="375.25" class="st4" width="14" height="11.11"/>
	<rect x="619.01" y="392.58" class="st4" width="14" height="11.11"/>
	<rect x="619.01" y="409.92" class="st4" width="14" height="11.11"/>
	<path class="st4" d="M602.68,309.49l3.5,14.59c1.17,0.32,2.3,0.75,3.36,1.29l6.41-12.45C611.94,310.86,607.44,309.64,602.68,309.49   z"/>
	<path class="st4" d="M586.54,313.37l9.07,11.21c1.29-0.48,2.64-0.83,4.05-0.99l-3.28-13.67   C592.87,310.52,589.55,311.7,586.54,313.37z"/>
	<path class="st4" d="M633.01,340.8c0-1.03-0.05-2.05-0.15-3.05l-13.85,6.03v7.92h14V340.8z"/>
	<path class="st4" d="M621.2,316.31l-6.65,12.92c1.99,2.21,3.43,4.92,4.07,7.93l12.98-5.65   C629.72,325.45,626.04,320.18,621.2,316.31z"/>
	<rect x="619.01" y="357.92" class="st4" width="14" height="11.11"/>
	<path class="st4" d="M573.77,326.56l13.33,4.88c0.87-1.35,1.93-2.57,3.13-3.63l-8.82-10.89   C578.27,319.59,575.66,322.86,573.77,326.56z"/>
	<rect x="619.01" y="427.25" class="st4" width="14" height="11.11"/>
	<rect x="619.01" y="444.58" class="st4" width="14" height="2.22"/>
	<rect x="500.81" y="423.11" class="st4" width="14" height="6.22"/>
	<rect x="500.81" y="438.33" class="st4" width="14" height="6.22"/>
	<rect x="500.81" y="407" class="st4" width="14" height="6.22"/>
	<rect x="500.81" y="390.33" class="st4" width="14" height="6.22"/>
	<rect x="500.81" y="373.67" class="st4" width="14" height="6.22"/>
	<rect x="500.81" y="357" class="st4" width="14" height="6.22"/>
	<path class="st4" d="M501.84,343.23l12.97,7.49v-0.6c0-2.07,0.67-3.98,1.78-5.55l-12.15-7.01   C503.35,339.3,502.46,341.2,501.84,343.23z"/>
	<path class="st4" d="M516.13,328.02l5.61,12.88c0.85-0.25,1.74-0.38,2.67-0.38h2.67c0.45,0,0.89,0.04,1.33,0.1l-6.1-14.01   C520.15,326.81,518.08,327.29,516.13,328.02z"/>
	<path class="st4" d="M536.13,328.33l-4.83,13.18c2.16,1.06,3.86,2.91,4.73,5.18l5.56-15.16   C539.92,330.23,538.09,329.15,536.13,328.33z"/>
	<path class="st4" d="M549.24,342.02l-12.56,8.59c0.05,2.35,0.44,4.62,1.13,6.76l12.8-8.75C550.47,346.31,550,344.1,549.24,342.02z"/>
	<path class="st4" d="M551.78,354.57l-9.27,11.05c1.37,1.57,2.94,2.95,4.67,4.11l9.14-10.89   C554.37,357.96,552.77,356.46,551.78,354.57z"/>
	<path class="st4" d="M560.74,359.7h-0.48c-0.93,0-1.82-0.14-2.67-0.39l-0.74,14.14c1.11,0.16,2.25,0.25,3.41,0.25h0.48   c0.79,0,1.56-0.04,2.33-0.12l0.76-14.4C562.86,359.52,561.82,359.7,560.74,359.7z"/>
	<path class="st4" d="M565.75,358.28l7,12.13c1.82-1.08,3.47-2.39,4.93-3.9l-7.8-13.5C569.18,355.22,567.69,357.08,565.75,358.28z"/>
	<path class="st4" d="M570.33,350.02l13.5,4.95c0.33-1.57,0.5-3.19,0.5-4.85v-1.59l-14-5.13V350.02z"/>
	<path class="st4" d="M571.5,332.36l13.22,4.84c0.44-2.08,1.26-4.02,2.38-5.75l-13.33-4.88C572.83,328.4,572.06,330.34,571.5,332.36   z"/>
	<path class="st4" d="M581.41,316.92l8.82,10.89c1.57-1.39,3.39-2.49,5.39-3.24l-9.07-11.21   C584.71,314.38,582.99,315.58,581.41,316.92z"/>
	<path class="st4" d="M601.67,309.46c-1.8,0-3.57,0.16-5.29,0.46l3.28,13.67c0.66-0.08,1.33-0.13,2.01-0.13   c1.56,0,3.07,0.23,4.51,0.61l-3.5-14.59C602.34,309.48,602.01,309.46,601.67,309.46z"/>
	<path class="st4" d="M615.95,312.91l-6.41,12.45c1.9,0.97,3.59,2.29,5.01,3.86l6.65-12.92   C619.57,315.01,617.81,313.87,615.95,312.91z"/>
	<path class="st4" d="M631.6,331.51l-12.98,5.65c0.25,1.18,0.39,2.39,0.39,3.64v2.97l13.85-6.03   C632.65,335.6,632.23,333.51,631.6,331.51z"/>
	<rect x="619.01" y="351.7" class="st4" width="14" height="6.22"/>
	<rect x="619.01" y="369.03" class="st4" width="14" height="6.22"/>
	<rect x="619.01" y="386.36" class="st4" width="14" height="6.22"/>
	<rect x="619.01" y="403.7" class="st4" width="14" height="6.22"/>
	<rect x="619.01" y="421.03" class="st4" width="14" height="6.22"/>
	<rect x="619.01" y="438.36" class="st4" width="14" height="6.22"/>
	<rect x="500.81" y="423.11" class="st21" width="14" height="6.22"/>
	<rect x="500.81" y="438.33" class="st21" width="14" height="6.22"/>
	<rect x="500.81" y="407" class="st21" width="14" height="6.22"/>
	<rect x="500.81" y="390.33" class="st21" width="14" height="6.22"/>
	<rect x="500.81" y="373.67" class="st21" width="14" height="6.22"/>
	<rect x="500.81" y="357" class="st21" width="14" height="6.22"/>
	<path class="st21" d="M501.84,343.23l12.97,7.49v-0.6c0-2.07,0.67-3.98,1.78-5.55l-12.15-7.01   C503.35,339.3,502.46,341.2,501.84,343.23z"/>
	<path class="st21" d="M516.13,328.02l5.61,12.88c0.85-0.25,1.74-0.38,2.67-0.38h2.67c0.45,0,0.89,0.04,1.33,0.1l-6.1-14.01   C520.15,326.81,518.08,327.29,516.13,328.02z"/>
	<path class="st21" d="M536.13,328.33l-4.83,13.18c2.16,1.06,3.86,2.91,4.73,5.18l5.56-15.16   C539.92,330.23,538.09,329.15,536.13,328.33z"/>
	<path class="st21" d="M549.24,342.02l-12.56,8.59c0.05,2.35,0.44,4.62,1.13,6.76l12.8-8.75C550.47,346.31,550,344.1,549.24,342.02z   "/>
	<path class="st21" d="M551.78,354.57l-9.27,11.05c1.37,1.57,2.94,2.95,4.67,4.11l9.14-10.89   C554.37,357.96,552.77,356.46,551.78,354.57z"/>
	<path class="st21" d="M560.74,359.7h-0.48c-0.93,0-1.82-0.14-2.67-0.39l-0.74,14.14c1.11,0.16,2.25,0.25,3.41,0.25h0.48   c0.79,0,1.56-0.04,2.33-0.12l0.76-14.4C562.86,359.52,561.82,359.7,560.74,359.7z"/>
	<path class="st21" d="M565.75,358.28l7,12.13c1.82-1.08,3.47-2.39,4.93-3.9l-7.8-13.5C569.18,355.22,567.69,357.08,565.75,358.28z"/>
	<path class="st21" d="M570.33,350.02l13.5,4.95c0.33-1.57,0.5-3.19,0.5-4.85v-1.59l-14-5.13V350.02z"/>
	<path class="st21" d="M571.5,332.36l13.22,4.84c0.44-2.08,1.26-4.02,2.38-5.75l-13.33-4.88   C572.83,328.4,572.06,330.34,571.5,332.36z"/>
	<path class="st21" d="M581.41,316.92l8.82,10.89c1.57-1.39,3.39-2.49,5.39-3.24l-9.07-11.21   C584.71,314.38,582.99,315.58,581.41,316.92z"/>
	<path class="st21" d="M601.67,309.46c-1.8,0-3.57,0.16-5.29,0.46l3.28,13.67c0.66-0.08,1.33-0.13,2.01-0.13   c1.56,0,3.07,0.23,4.51,0.61l-3.5-14.59C602.34,309.48,602.01,309.46,601.67,309.46z"/>
	<path class="st21" d="M615.95,312.91l-6.41,12.45c1.9,0.97,3.59,2.29,5.01,3.86l6.65-12.92   C619.57,315.01,617.81,313.87,615.95,312.91z"/>
	<path class="st21" d="M631.6,331.51l-12.98,5.65c0.25,1.18,0.39,2.39,0.39,3.64v2.97l13.85-6.03   C632.65,335.6,632.23,333.51,631.6,331.51z"/>
	<rect x="619.01" y="351.7" class="st21" width="14" height="6.22"/>
	<rect x="619.01" y="369.03" class="st21" width="14" height="6.22"/>
	<rect x="619.01" y="386.36" class="st21" width="14" height="6.22"/>
	<rect x="619.01" y="403.7" class="st21" width="14" height="6.22"/>
	<rect x="619.01" y="421.03" class="st21" width="14" height="6.22"/>
	<rect x="619.01" y="438.36" class="st21" width="14" height="6.22"/>
</g>
<circle xmlns="http://www.w3.org/2000/svg" class="st4" cx="498.26" cy="694.19" r="17.85"/>
<circle xmlns="http://www.w3.org/2000/svg" class="st4" cx="547.86" cy="694.19" r="17.85"/>
<circle xmlns="http://www.w3.org/2000/svg" class="st22" cx="498.26" cy="694.19" r="17.85"/>
<circle xmlns="http://www.w3.org/2000/svg" class="st22" cx="547.86" cy="694.19" r="17.85"/>
<g xmlns="http://www.w3.org/2000/svg">
	<path class="st4" d="M496.32,692.2l11.32-7.75c0.21-0.15,0.5-0.09,0.65,0.12c0.11,0.17,0.1,0.38-0.01,0.54l-8.08,11.08   c-0.92,1.26-2.69,1.54-3.95,0.62s-1.54-2.69-0.62-3.95C495.83,692.6,496.07,692.37,496.32,692.2z"/>
</g>
<g xmlns="http://www.w3.org/2000/svg">
	<path class="st4" d="M547.1,696.87l-12.38-5.92c-0.23-0.11-0.33-0.39-0.22-0.62c0.09-0.18,0.28-0.28,0.47-0.26l13.64,1.44   c1.55,0.16,2.68,1.56,2.51,3.11c-0.16,1.55-1.56,2.68-3.11,2.51C547.7,697.1,547.38,697.01,547.1,696.87z"/>
</g>
<g xmlns="http://www.w3.org/2000/svg">
	<polygon class="st12" points="749.59,502.41 763.19,533.89 822.54,533.89 836.13,502.41  "/>
</g>
<g xmlns="http://www.w3.org/2000/svg">
	<polygon class="st12" points="1130.05,502.41 1143.65,533.89 1202.99,533.89 1216.59,502.41  "/>
</g>
<path xmlns="http://www.w3.org/2000/svg" class="st8" d="M945.59,339.97c-20.35,0-37.22,15.78-40.36,36.44h80.72C982.81,355.75,965.94,339.97,945.59,339.97z"/>
<polygon xmlns="http://www.w3.org/2000/svg" class="st8" points="984.77,376.41 904.05,376.41 899.07,376.41 899.07,395.37 905.11,395.37 983.7,395.37 989.74,395.37   989.74,376.41 "/>
<rect xmlns="http://www.w3.org/2000/svg" x="934.72" y="336.16" class="st8" width="19.37" height="40.25"/>
<rect xmlns="http://www.w3.org/2000/svg" x="935.91" y="336.16" class="st12" width="19.37" height="40.25"/>
<polygon xmlns="http://www.w3.org/2000/svg" class="st11" points="985.95,376.41 905.23,376.41 900.26,376.41 900.26,395.37 906.3,395.37 984.89,395.37 990.93,395.37   990.93,376.41 "/>
<path xmlns="http://www.w3.org/2000/svg" class="st8" d="M984.77,568.78h-78.35v-94.49c0-11.47,9.3-20.77,20.77-20.77h36.8c11.47,0,20.77,9.3,20.77,20.77V568.78z"/>
<path xmlns="http://www.w3.org/2000/svg" class="st10" d="M984.77,568.78h-78.35v-94.49c0-11.47,9.3-20.77,20.77-20.77h36.8c11.47,0,20.77,9.3,20.77,20.77V568.78z"/>
<g xmlns="http://www.w3.org/2000/svg">
	<path class="st3" d="M878.58,450.42c-0.4-1.19,6.56-19.75,6.56-19.75s8,1.07,2.52,13.81C882.62,452.04,878.58,450.42,878.58,450.42   z"/>
	<path class="st11" d="M887.66,443.7c0,0,2.21-4.33,1.89-7.7c-1.35,0-3.64,0.27-3.64,0.27s-2.73,6.95-2.76,7.54   c-0.01,0.19-4.07,5.08-4.07,5.56c0,1.76,5.01-1.52,5.01-1.52S886.08,446.28,887.66,443.7z"/>
	<path class="st8" d="M895.19,430.67h-3.81c-0.87,0-1.57,0.7-1.57,1.57v5.38h6.94v-5.38C896.76,431.37,896.06,430.67,895.19,430.67z   "/>
	<rect x="887.21" y="437.52" class="st4" width="12.15" height="16"/>
	<path class="st3" d="M897.84,466.22l-0.67,3.22l-9.89,1.33l-5.22-2.28l-1-2.94c0,0,9-1.44,9.56-1.33S897.84,466.22,897.84,466.22z"/>
	<path class="st11" d="M897.84,466.22l-0.67,3.22l-9.89,1.33l-5.22-2.28l-1-2.94c0,0,9-1.44,9.56-1.33S897.84,466.22,897.84,466.22z   "/>
	<path class="st3" d="M889.27,552.41L889.27,552.41c-8.86,0-15.83-7.56-15.12-16.39l5.02-62.28h17.63l7.59,62.28   C905.11,544.85,898.13,552.41,889.27,552.41z"/>
	<path class="st3" d="M879.17,473.74c0,0-4.22-17.52-4.22-18.07c0-0.56,9.33-13.44,11.56-13.67c2.22-0.22,13.67,0,13.67,0   s6.1,2.56,4.27,13.67s-8.94,11.78-13.83,12.11c-4.89,0.33-8.11-0.44-8.11-0.44s3,3.56,14.67,2.11l-0.37,4.3H879.17z"/>
</g>
<polygon xmlns="http://www.w3.org/2000/svg" class="st10" points="938.33,493.89 927.11,500.78 915.89,493.89 915.89,475.44 938.33,475.44 "/>
<path xmlns="http://www.w3.org/2000/svg" class="st1" d="M920.11,750.11c0,0-20,7.7-20,20.89c23.75,0,45.48,0,45.48,0v-20.89H920.11z"/>
<path xmlns="http://www.w3.org/2000/svg" class="st6" d="M920.11,750.11c0,0-20,7.7-20,20.89c23.75,0,45.48,0,45.48,0v-20.89H920.11z"/>
</svg>