<svg width="1144" height="968" viewBox="0 0 1144 968" fill="none" xmlns="http://www.w3.org/2000/svg">
<path opacity="0.1" d="M1144 571.23C1144.06 604.326 1135.03 636.802 1117.88 665.11C1117.88 699.73 1101.74 731.11 1075.56 753.98C1069.01 759.707 1061.95 764.831 1054.48 769.29C1054.18 769.48 1053.87 769.66 1053.56 769.84C1053 770.17 1052.44 770.5 1051.87 770.84L1051.34 771.15C1026.56 784.961 998.63 792.133 970.26 791.97H217.17C165.24 791.97 118.23 773.89 84.1704 744.67C50.1104 715.45 29.1204 675.01 29.1204 630.41C10.0478 601.041 -0.069875 566.758 0.000363231 531.74C0.000363231 432.6 79.2404 352.23 177 352.23C180.46 352.23 183.89 352.35 187.3 352.54C248.64 247.94 387 175 547.74 175C646.56 175 736.89 202.55 806.08 248.07C832.29 233.254 861.893 225.485 892 225.52C989.74 225.52 1069 305.89 1069 405.03C1068.99 411.303 1068.65 417.571 1068 423.81C1091.56 440.488 1110.76 462.588 1123.99 488.245C1137.22 513.902 1144.08 542.364 1144 571.23Z" fill="#67C76B"/>
<path opacity="0.1" d="M413 627.92C629.496 627.92 805 623.219 805 617.42C805 611.621 629.496 606.92 413 606.92C196.505 606.92 21.0004 611.621 21.0004 617.42C21.0004 623.219 196.505 627.92 413 627.92Z" fill="#67C76B"/>
<g opacity="0.7">
<path opacity="0.7" d="M267 539.92H142V608.92H267V539.92Z" fill="#65617D"/>
<path opacity="0.1" d="M224 551.92H186V559.92H224V551.92Z" fill="black"/>
<path opacity="0.1" d="M219.25 552.92H190.75V558.92H219.25V552.92Z" fill="black"/>
<path opacity="0.7" d="M394 539.92H269V608.92H394V539.92Z" fill="#65617D"/>
<path opacity="0.1" d="M351 551.92H313V559.92H351V551.92Z" fill="black"/>
<path opacity="0.1" d="M346.25 552.92H317.75V558.92H346.25V552.92Z" fill="black"/>
<path opacity="0.7" d="M267 468.92H142V537.92H267V468.92Z" fill="#65617D"/>
<path opacity="0.1" d="M224 480.92H186V488.92H224V480.92Z" fill="black"/>
<path opacity="0.1" d="M219.25 481.92H190.75V487.92H219.25V481.92Z" fill="black"/>
<path opacity="0.7" d="M394 468.92H269V537.92H394V468.92Z" fill="#65617D"/>
<path opacity="0.1" d="M351 480.92H313V488.92H351V480.92Z" fill="black"/>
<path opacity="0.1" d="M346.25 481.92H317.75V487.92H346.25V481.92Z" fill="black"/>
<path opacity="0.7" d="M267 396.92H142V465.92H267V396.92Z" fill="#65617D"/>
<path opacity="0.1" d="M224 408.92H186V416.92H224V408.92Z" fill="black"/>
<path opacity="0.1" d="M219.25 409.92H190.75V415.92H219.25V409.92Z" fill="black"/>
<path opacity="0.7" d="M394 396.92H269V465.92H394V396.92Z" fill="#65617D"/>
<path opacity="0.1" d="M351 408.92H313V416.92H351V408.92Z" fill="black"/>
<path opacity="0.1" d="M346.25 409.92H317.75V415.92H346.25V409.92Z" fill="black"/>
<path opacity="0.7" d="M394 324.92H269V393.92H394V324.92Z" fill="#65617D"/>
<path opacity="0.1" d="M351 336.92H313V344.92H351V336.92Z" fill="black"/>
<path opacity="0.1" d="M346.25 337.92H317.75V343.92H346.25V337.92Z" fill="black"/>
</g>
<g opacity="0.7">
<path opacity="0.7" d="M521 538.92H396V607.92H521V538.92Z" fill="#65617D"/>
<path opacity="0.1" d="M478 550.92H440V558.92H478V550.92Z" fill="black"/>
<path opacity="0.1" d="M473.25 551.92H444.75V557.92H473.25V551.92Z" fill="black"/>
<path opacity="0.7" d="M648 538.92H523V607.92H648V538.92Z" fill="#65617D"/>
<path opacity="0.1" d="M605 550.92H567V558.92H605V550.92Z" fill="black"/>
<path opacity="0.1" d="M600.25 551.92H571.75V557.92H600.25V551.92Z" fill="black"/>
<path opacity="0.7" d="M521 467.92H396V536.92H521V467.92Z" fill="#65617D"/>
<path opacity="0.1" d="M478 479.92H440V487.92H478V479.92Z" fill="black"/>
<path opacity="0.1" d="M473.25 480.92H444.75V486.92H473.25V480.92Z" fill="black"/>
<path opacity="0.7" d="M648 467.92H523V536.92H648V467.92Z" fill="#65617D"/>
<path opacity="0.1" d="M605 479.92H567V487.92H605V479.92Z" fill="black"/>
<path opacity="0.1" d="M600.25 480.92H571.75V486.92H600.25V480.92Z" fill="black"/>
<path opacity="0.7" d="M521 395.92H396V464.92H521V395.92Z" fill="#65617D"/>
<path opacity="0.1" d="M478 407.92H440V415.92H478V407.92Z" fill="black"/>
<path opacity="0.1" d="M473.25 408.92H444.75V414.92H473.25V408.92Z" fill="black"/>
<path opacity="0.7" d="M648 395.92H523V464.92H648V395.92Z" fill="#65617D"/>
<path opacity="0.1" d="M605 407.92H567V415.92H605V407.92Z" fill="black"/>
<path opacity="0.1" d="M600.25 408.92H571.75V414.92H600.25V408.92Z" fill="black"/>
<path opacity="0.7" d="M648 323.92H523V392.92H648V323.92Z" fill="#65617D"/>
<path opacity="0.1" d="M605 335.92H567V343.92H605V335.92Z" fill="black"/>
<path opacity="0.1" d="M600.25 336.92H571.75V342.92H600.25V336.92Z" fill="black"/>
</g>
<path d="M224.19 785.42C246.398 785.42 264.4 782.376 264.4 778.62C264.4 774.864 246.398 771.82 224.19 771.82C201.983 771.82 183.98 774.864 183.98 778.62C183.98 782.376 201.983 785.42 224.19 785.42Z" fill="#67C76B"/>
<path d="M240.82 767.5C242.656 766.004 243.992 763.985 244.65 761.71C245.15 759.42 244.17 756.71 241.97 755.82C239.51 754.88 236.88 756.59 234.89 758.31C232.9 760.03 230.61 762 228.01 761.63C229.35 760.413 230.353 758.87 230.92 757.151C231.488 755.432 231.602 753.596 231.25 751.82C231.137 751.084 230.826 750.393 230.35 749.82C228.98 748.36 226.51 748.98 224.87 750.13C219.67 753.79 218.22 760.86 218.19 767.21C217.67 764.92 218.11 762.53 218.1 760.21C218.09 757.89 217.44 755.21 215.45 753.98C214.223 753.32 212.843 752.995 211.45 753.04C209.12 752.95 206.51 753.19 204.92 754.9C202.92 757.02 203.45 760.58 205.17 762.9C206.89 765.22 209.52 766.71 211.94 768.32C213.876 769.474 215.527 771.05 216.77 772.93C216.92 773.193 217.041 773.471 217.13 773.76H231.79C235.069 772.09 238.107 769.985 240.82 767.5Z" fill="#67C76B"/>
<path d="M717.36 482.67C717.278 481.913 717.007 481.188 716.572 480.562C716.137 479.937 715.552 479.43 714.87 479.09C714.296 478.845 713.679 478.719 713.055 478.718C712.431 478.717 711.814 478.841 711.239 479.084C710.664 479.326 710.144 479.682 709.71 480.13C709.275 480.578 708.935 481.108 708.71 481.69L686.5 528.42L681.5 712.42H689.5L692.5 528.83L716.94 485.57C717.382 484.672 717.529 483.657 717.36 482.67Z" fill="#3F3D56"/>
<path opacity="0.1" d="M1075.56 753.98C1069.01 759.707 1061.95 764.831 1054.48 769.29C1054.36 769.454 1054.23 769.608 1054.09 769.75C1053.3 770.423 1052.35 770.896 1051.34 771.13C1026.56 784.941 998.63 792.113 970.26 791.95H420.44C357.44 785.47 319 776.88 319 767.45C319 760.14 342.08 753.33 381.82 747.63C385.94 747.03 390.237 746.45 394.71 745.89C397.464 745.543 400.28 745.21 403.16 744.89L408.05 744.32C411.677 743.907 415.4 743.503 419.22 743.11H419.53L423.53 742.71C426.91 742.36 430.36 742.03 433.88 741.71L436.44 741.48L442.97 740.9C447.21 740.52 451.544 740.157 455.97 739.81C459.644 739.523 463.377 739.237 467.17 738.95C505.63 736.1 549.97 733.95 598.22 732.56L612 732.09L616.64 731.99L626.44 731.77L630.37 731.69L634.5 731.61L637.44 731.56L651.24 731.34L658.33 731.24H659.78C676.547 731.04 693.627 730.937 711.02 730.93C745.4 730.93 778.74 731.34 810.51 732.12C828.75 732.56 846.434 733.12 863.56 733.8H863.72C913.1 735.74 957.3 738.6 993.88 742.15L994.55 742.22C1003.94 743.13 1012.83 744.1 1021.17 745.1C1029.02 746.04 1036.39 747.03 1043.23 748.04C1045.6 748.39 1047.9 748.75 1050.14 749.1L1050.71 749.2C1060.19 750.73 1068.51 752.29 1075.56 753.98Z" fill="#67C76B"/>
<path d="M1054.48 769.29C1054.36 769.454 1054.23 769.608 1054.09 769.75C1053.3 770.423 1052.35 770.896 1051.34 771.13C1049.32 771.697 1047.24 772.033 1045.14 772.13H1044.51C1043.31 772.17 1042.11 772.13 1040.92 772.01C1040.05 771.884 1039.17 771.827 1038.29 771.84H1038.17C1036.89 772.02 1035.63 772.331 1034.42 772.77C1031.71 773.512 1028.93 773.908 1026.12 773.95H1025.12C1021.98 773.95 1018.8 773.84 1015.65 773.86C1015.14 773.86 1014.65 773.86 1014.12 773.86C1008.72 774 1003.35 774.86 997.95 774.95H996.22C990.93 774.82 985.52 773.69 981.31 770.49C980.461 769.929 979.772 769.157 979.31 768.25C978.952 767.293 978.832 766.264 978.96 765.25C979.06 763.44 979.41 761.47 980.77 760.25C981.625 759.595 982.605 759.121 983.65 758.86C985.48 758.27 987.32 757.7 989.15 757.13C990.98 756.56 993.07 755.95 995.04 755.37L995.42 755.25L996.52 754.92L997.23 754.68C998.091 754.404 998.917 754.028 999.69 753.56C1000.71 752.915 1001.57 752.05 1002.22 751.03C1002.33 750.85 1002.45 750.66 1002.55 750.47C1002.65 750.28 1002.55 750.16 1002.48 750C1002.31 748.75 1002.18 747.47 1001.96 746.25C999.146 745.598 996.58 744.146 994.57 742.07C992.844 740.359 991.39 738.392 990.26 736.24C987.77 731.56 986.49 726.33 984.63 721.36C981.78 713.8 977.63 706.82 973.45 699.9C969.63 693.52 965.79 687.12 961.45 681.09C958.56 677.09 955.45 673.28 952.59 669.27C944.5 658.081 938.696 645.405 935.51 631.97C935.023 629.392 934.331 626.858 933.44 624.39C931.72 620.19 928.57 616.77 926.13 612.93C923.507 608.791 921.711 604.183 920.84 599.36C920.34 596.62 919.5 593.66 916.77 593.36L916.48 593.93C910.82 604.93 905.01 616.13 896.48 625.11C895.116 626.43 893.868 627.865 892.75 629.4C891.854 630.888 891.052 632.431 890.35 634.02C889 636.873 887.208 639.496 885.04 641.79C884.395 642.442 883.693 643.035 882.94 643.56C881.941 644.286 880.83 644.844 879.65 645.21C879.186 645.352 878.711 645.459 878.23 645.53C878.23 645.65 878.28 645.76 878.29 645.88C878.3 646 878.35 646.14 878.37 646.27C879.842 654.271 879.211 662.516 876.54 670.2C876.47 670.44 876.39 670.67 876.3 670.91C875.887 672.03 875.437 673.13 874.95 674.21C873.73 676.86 872.28 679.4 871.14 682.09C870.95 682.55 870.76 683.01 870.59 683.47C866.59 694.18 867.59 706.14 867.07 717.65C867.025 720.167 866.726 722.673 866.18 725.13C865.5 727.9 864.41 730.76 863.81 733.62C863.263 735.764 863.219 738.006 863.68 740.17L863.44 740.26C862.37 740.66 861.28 741.02 860.19 741.36V741.51C860.58 743.75 860.96 745.99 861.35 748.22C861.68 750.14 862.07 752.22 863.41 753.58C863.775 753.88 864.11 754.215 864.41 754.58C865.2 755.82 864.5 757.46 864.65 758.93C864.87 761.01 866.79 762.78 866.49 764.85C866.355 765.469 866.072 766.045 865.664 766.529C865.256 767.014 864.737 767.391 864.15 767.63C863.658 767.853 863.141 768.018 862.61 768.12L862.28 768.19C861.68 768.3 861.08 768.36 860.48 768.42C853.03 769.16 845.48 769.9 838.1 768.64C836.64 768.39 835.19 768.06 833.71 767.94C831.841 767.857 829.967 767.934 828.11 768.17C814.42 769.466 800.651 769.734 786.92 768.97C783.35 768.77 779.25 768.19 777.36 765.14C775.79 762.61 776.36 759.34 777.15 756.45C777.377 755.387 777.786 754.372 778.36 753.45C778.425 753.35 778.499 753.256 778.58 753.17C780.42 750.88 783.88 750.74 786.86 750.83L796.6 751.12C797.559 751.198 798.525 751.124 799.46 750.9C801.04 750.44 802.24 749.18 803.72 748.47C805.58 747.58 807.92 747.47 809.26 745.95L809.43 745.73C809.667 745.408 809.887 745.074 810.09 744.73C810.09 744.66 810.18 744.59 810.23 744.52C810.267 744.458 810.307 744.398 810.35 744.34C811.58 742.72 813.73 742.18 815.48 741.15C815.745 740.995 815.996 740.818 816.23 740.62L816.43 740.44C814.546 739.096 812.903 737.442 811.57 735.55C811.056 734.997 810.676 734.333 810.46 733.61C810.338 733.067 810.38 732.499 810.58 731.98C810.623 731.852 810.677 731.729 810.74 731.61L810.79 731.51C811.47 730.17 812.87 728.96 813.64 727.59C813.67 727.547 813.693 727.499 813.71 727.45C814.77 725.45 814.98 722.35 813.41 720.74C814.21 707.57 817.83 694.74 818.63 681.53C818.95 676.3 818.82 671.05 819.06 665.8C819.3 660.55 819.86 655.46 820.45 650.31C821.77 638.54 824.97 627.01 824.52 615.19C824.482 614.088 824.529 612.985 824.66 611.89C824.656 611.81 824.656 611.73 824.66 611.65C824.981 609.228 825.736 606.884 826.89 604.73C828.34 602.296 829.982 599.982 831.8 597.81C837.95 589.81 845.34 581.81 847.53 571.97C848.66 566.89 851.16 562.24 853.65 557.67C855.12 554.95 856.65 552.16 859 550.16C860.273 549.279 861.455 548.274 862.53 547.16C864.17 545.04 864.23 542.11 865.2 539.59C865.7 538.28 866.47 537.08 866.85 535.73C866.85 535.59 866.92 535.46 866.95 535.32C867.172 533.958 867.289 532.58 867.3 531.2C867.3 530.8 867.36 530.41 867.41 530.02C867.995 526.067 869.143 522.217 870.82 518.59C871.03 518.13 871.23 517.66 871.43 517.2C866.816 514.508 862.747 510.978 859.43 506.79C858.306 505.435 857.33 503.963 856.52 502.4C854.46 498.31 853.99 493.65 853.02 489.17C850.7 478.49 845.39 468.43 844.65 457.51C844.43 454.18 844.65 450.74 843.49 447.59C843.171 446.738 842.793 445.91 842.36 445.11C842.18 444.77 842.01 444.43 841.83 444.11L841.63 443.73L841.12 442.73L840.3 443.37C819.842 459.389 798.364 474.06 776 487.29L774.08 488.43C773.081 488.912 772.21 489.625 771.54 490.51C771.46 490.64 771.39 490.77 771.32 490.9C770.86 491.85 770.74 492.9 770.32 493.9C769.42 496.19 767.11 497.65 764.75 498.33C760.481 499.428 755.952 498.844 752.1 496.7C751.61 496.45 751.1 496.19 750.66 495.9C749.491 496.548 748.258 497.074 746.98 497.47C742.98 498.63 738.79 498.58 734.65 498.57C730.51 498.56 726.28 498.57 722.36 499.93C719.74 500.82 717.2 502.29 714.48 502.43C714.167 502.45 713.853 502.45 713.54 502.43C711.99 502.252 710.481 501.809 709.08 501.12L708.26 500.75C707.836 500.549 707.422 500.325 707.02 500.08C706.583 499.81 706.177 499.491 705.81 499.13C705.281 498.599 704.896 497.941 704.69 497.22C704.555 496.699 704.555 496.151 704.69 495.63C704.729 495.396 704.85 495.183 705.03 495.03C705.209 494.924 705.413 494.872 705.62 494.88C706.767 494.868 707.912 494.965 709.04 495.17C709.703 495.261 710.372 495.298 711.04 495.28H711.4C711.99 495.217 712.56 495.033 713.076 494.741C713.592 494.448 714.043 494.053 714.4 493.58C714.51 493.434 714.598 493.272 714.66 493.1C714.781 492.819 714.843 492.516 714.84 492.21C714.846 492.133 714.846 492.057 714.84 491.98C714.42 491.79 714 491.6 713.6 491.37C713.39 491.26 713.19 491.14 712.99 491.02L712.87 490.94C712.511 490.696 712.176 490.418 711.87 490.11C711.676 489.917 711.505 489.703 711.36 489.47C711.095 489.108 710.895 488.702 710.77 488.27C709.946 488.098 709.093 488.122 708.28 488.34C707.19 488.64 706.09 489.28 705.01 489.5C704.465 489.637 703.892 489.613 703.36 489.43C701.8 488.87 701.25 486.97 700.92 485.34C700.86 485.03 700.79 484.71 700.74 484.39C700.625 483.775 700.625 483.145 700.74 482.53C701.224 481.133 702.147 479.93 703.37 479.1L706.65 476.35L706.89 476.15C706.89 475.88 706.78 475.61 706.74 475.34C706.625 474.722 706.625 474.088 706.74 473.47C707.224 472.075 708.147 470.875 709.37 470.05L716.63 463.94C717.99 462.8 719.47 461.6 721.24 461.48C723.87 461.3 725.97 463.48 727.94 465.23C730.42 467.43 733.43 469.23 736.74 469.45C738.316 469.522 739.892 469.305 741.39 468.81L742.24 468.53C742.06 468.16 741.88 467.79 741.71 467.42C741.42 466.81 741.13 466.19 740.85 465.57C745.11 465.3 748.98 462.96 752.21 460.16C755.44 457.36 758.21 454.05 761.47 451.3C764.99 448.3 769.03 446.07 772.6 443.18C780.9 436.45 786.41 426.56 795.29 420.63C798.37 418.56 801.93 416.91 804.03 413.83C804.68 412.83 805.17 411.83 805.84 410.83C807.97 407.83 811.62 406.45 814.63 404.37C817.64 402.29 820.26 399.24 822.71 396.31C824.45 394.22 826.2 392.13 827.86 389.98C829.39 387.13 830.68 384.15 832.28 381.34C833.638 378.966 835.222 376.729 837.01 374.66C837.42 373.86 837.84 373.06 838.29 372.28C838.74 371.5 839.07 370.97 839.49 370.28C839.78 369.83 840.08 369.4 840.39 368.96C839.48 367.35 838.61 365.96 838.2 365.35L838 365.08C837.118 364.14 836.176 363.259 835.18 362.44C834.135 362.282 833.1 362.061 832.08 361.78C825.909 360.089 820.464 356.415 816.587 351.324C812.709 346.234 810.612 340.009 810.62 333.61C810.615 333.58 810.615 333.55 810.62 333.52C810.624 328.937 811.714 324.42 813.8 320.34C814.22 319.52 814.67 318.73 815.16 317.96C814.703 317.816 814.259 317.635 813.83 317.42C813.101 317.06 812.464 316.537 811.97 315.89C811.563 315.314 811.299 314.649 811.2 313.95C811.031 312.302 811.279 310.638 811.92 309.11C812.193 308.375 812.504 307.654 812.85 306.95C812.878 306.909 812.901 306.865 812.92 306.82C817.39 297.82 826.92 292.29 836.44 291.9C846.71 291.49 856.71 296.31 864.81 303.21C867.227 305.193 869.39 307.467 871.25 309.98C875.48 315.86 877.39 323.38 877.95 330.83C878.161 333.134 878.12 335.454 877.83 337.75C877.724 338.568 877.557 339.377 877.33 340.17C877.2 340.64 877.03 341.11 876.85 341.58C876.67 342.05 876.56 342.26 876.4 342.58V342.63C876.25 342.95 876.08 343.25 875.91 343.55L875.82 343.68L875.69 343.89C875.77 344.08 875.86 344.28 875.95 344.47C876.04 344.66 876.12 344.84 876.22 345.02H876.34C878.34 345.18 880.19 345.46 882.23 345.62C883.19 345.666 884.142 345.813 885.07 346.06C887.07 346.66 888.58 348.12 890.26 349.3C894.42 352.24 899.54 353.61 903.63 356.65C909.63 361.13 912.63 368.53 916.27 375.16C921.07 384.04 928.89 391.6 932.34 401.1C933.9 405.413 935.467 409.72 937.04 414.02C940.11 422.45 943.18 430.92 947.35 438.87C953.15 449.93 961 459.87 965.65 471.49C966.112 472.655 966.978 473.613 968.09 474.19C974.427 483.137 980.06 492.562 984.94 502.38C987.51 507.57 989.94 512.96 990.69 518.71C991.276 523.83 990.851 529.014 989.44 533.97C988.643 536.914 987.664 539.806 986.51 542.63C986.061 543.619 985.725 544.655 985.51 545.72C985.51 545.83 985.51 545.94 985.51 546.05C985.31 547.97 986.04 549.87 986.24 551.79C986.408 553.336 986.234 554.899 985.73 556.37C985.65 556.6 985.56 556.83 985.47 557.06C984.85 558.229 984.325 559.447 983.9 560.7C983.864 560.852 983.837 561.005 983.82 561.16C983.49 563.33 984.35 565.52 984.82 567.69C986.58 575.53 986.26 583.69 985.82 591.69C985.59 595.69 988.82 598.9 991.52 601.85C996.52 607.38 1000.43 613.85 1004.2 620.29C1006.26 623.559 1007.99 627.023 1009.37 630.63C1010.8 634.75 1011.37 639.11 1012.16 643.38C1014.71 656.58 1023.04 668.24 1025.3 681.47C1026.35 687.529 1029.02 693.189 1033.03 697.85C1034.24 699.098 1035.35 700.435 1036.36 701.85C1037.06 702.977 1037.61 704.186 1038.01 705.45C1038.99 708.391 1039.46 711.48 1039.38 714.58C1039.22 716.064 1039.31 717.563 1039.63 719.02C1040.57 722.09 1043.93 723.78 1045.32 726.67C1046.71 729.56 1045.75 733.26 1046.32 736.54C1046.77 739.185 1048.2 741.563 1050.32 743.2C1049.52 743.9 1048.68 744.54 1047.82 745.2C1048.62 745.818 1049.31 746.553 1049.89 747.38C1050.28 747.934 1050.62 748.527 1050.89 749.15C1052.21 752.22 1052.25 755.87 1053.33 759.15C1053.79 760.51 1054.44 761.95 1054.04 763.33C1053.87 763.725 1053.75 764.143 1053.7 764.57C1053.7 765.47 1054.64 766.06 1055 766.88C1055.13 767.292 1055.15 767.731 1055.06 768.154C1054.97 768.577 1054.77 768.969 1054.48 769.29Z" fill="url(#paint0_linear)"/>
<path d="M842.84 379.29C848.96 377.64 854.41 374.19 859.75 370.78L878.36 358.93C873.31 358.53 868.95 354.93 866.36 350.57C863.77 346.21 862.7 341.14 861.82 336.16C853.82 339.28 846.89 344.57 840.43 350.16C837.87 352.37 832.43 355.71 831.64 359.16C830.85 362.61 835.89 365.41 837.84 367.72C838.51 368.49 844.82 378.74 842.84 379.29Z" fill="#FBBEBE"/>
<path opacity="0.1" d="M842.84 379.29C848.96 377.64 854.41 374.19 859.75 370.78L878.36 358.93C873.31 358.53 868.95 354.93 866.36 350.57C863.77 346.21 862.7 341.14 861.82 336.16C853.82 339.28 846.89 344.57 840.43 350.16C837.87 352.37 832.43 355.71 831.64 359.16C830.85 362.61 835.89 365.41 837.84 367.72C838.51 368.49 844.82 378.74 842.84 379.29Z" fill="black"/>
<path d="M741.15 477.17C737.87 478.85 734.38 480.57 730.71 480.33C727.41 480.12 724.4 478.33 721.92 476.14C719.92 474.4 717.86 472.23 715.23 472.41C713.47 472.53 711.99 473.72 710.63 474.85L703.38 480.92C702.16 481.74 701.238 482.933 700.75 484.32C700.607 485.261 700.665 486.223 700.92 487.14C701.25 488.76 701.8 490.65 703.36 491.2C704.92 491.75 706.62 490.57 708.27 490.12C709.278 489.862 710.337 489.882 711.335 490.175C712.333 490.469 713.233 491.027 713.94 491.79C714.53 492.369 714.886 493.145 714.94 493.97C714.94 495.78 712.94 496.97 711.1 497.06C709.26 497.15 707.5 496.55 705.68 496.66C705.57 496.646 705.459 496.654 705.352 496.684C705.246 496.714 705.146 496.765 705.059 496.834C704.973 496.903 704.901 496.989 704.848 497.086C704.795 497.183 704.761 497.29 704.75 497.4C704.637 498.032 704.685 498.682 704.89 499.29C705.094 499.898 705.449 500.445 705.92 500.88C706.87 501.747 707.977 502.426 709.18 502.88C710.579 503.572 712.089 504.012 713.64 504.18C716.71 504.38 719.53 502.68 722.44 501.69C726.36 500.37 730.58 500.33 734.72 500.34C738.86 500.35 743.06 500.41 747.03 499.25C751 498.09 754.77 495.52 756.32 491.69C756.503 491.333 756.563 490.925 756.49 490.53C756.336 490.109 756.039 489.755 755.65 489.53C750.07 485.4 747.81 480.38 741.53 477.41L741.15 477.17Z" fill="#FBBEBE"/>
<path opacity="0.1" d="M741.15 477.17C737.87 478.85 734.38 480.57 730.71 480.33C727.41 480.12 724.4 478.33 721.92 476.14C719.92 474.4 717.86 472.23 715.23 472.41C713.47 472.53 711.99 473.72 710.63 474.85L703.38 480.92C702.16 481.74 701.238 482.933 700.75 484.32C700.607 485.261 700.665 486.223 700.92 487.14C701.25 488.76 701.8 490.65 703.36 491.2C704.92 491.75 706.62 490.57 708.27 490.12C709.278 489.862 710.337 489.882 711.335 490.175C712.333 490.469 713.233 491.027 713.94 491.79C714.53 492.369 714.886 493.145 714.94 493.97C714.94 495.78 712.94 496.97 711.1 497.06C709.26 497.15 707.5 496.55 705.68 496.66C705.57 496.646 705.459 496.654 705.352 496.684C705.246 496.714 705.146 496.765 705.059 496.834C704.973 496.903 704.901 496.989 704.848 497.086C704.795 497.183 704.761 497.29 704.75 497.4C704.637 498.032 704.685 498.682 704.89 499.29C705.094 499.898 705.449 500.445 705.92 500.88C706.87 501.747 707.977 502.426 709.18 502.88C710.579 503.572 712.089 504.012 713.64 504.18C716.71 504.38 719.53 502.68 722.44 501.69C726.36 500.37 730.58 500.33 734.72 500.34C738.86 500.35 743.06 500.41 747.03 499.25C751 498.09 754.77 495.52 756.32 491.69C756.503 491.333 756.563 490.925 756.49 490.53C756.336 490.109 756.039 489.755 755.65 489.53C750.07 485.4 747.81 480.38 741.53 477.41L741.15 477.17Z" fill="black"/>
<path d="M858.25 370.52C856.699 369.519 854.938 368.887 853.104 368.674C851.269 368.46 849.41 368.671 847.67 369.29C844.187 370.545 841.06 372.628 838.56 375.36C836.065 377.905 833.904 380.758 832.13 383.85C830.43 386.85 829.13 389.99 827.43 392.98C824.43 398.33 820.51 403.05 816.57 407.73C814.12 410.64 811.64 413.59 808.5 415.73C805.36 417.87 801.85 419.18 799.72 422.15C799.05 423.09 798.57 424.15 797.91 425.1C795.82 428.16 792.27 429.8 789.18 431.85C780.32 437.75 774.81 447.57 766.53 454.26C762.96 457.14 758.93 459.4 755.42 462.34C752.15 465.07 749.42 468.34 746.16 471.14C742.9 473.94 739.07 476.25 734.82 476.51C737.66 482.84 741.05 489.05 745.92 493.98C750.79 498.91 758.09 502.06 764.74 500.13C767.1 499.45 769.41 498.01 770.31 495.73C770.594 494.558 770.989 493.416 771.49 492.32C772.159 491.44 773.026 490.731 774.02 490.25C800.715 474.667 826.162 457.038 850.13 437.52C856.56 432.28 862.94 427.59 869.54 422.52C871.907 420.842 874.095 418.925 876.07 416.8C878.823 413.513 880.542 409.486 881.012 405.224C881.482 400.963 880.681 396.658 878.71 392.85C876.941 389.937 874.913 387.189 872.65 384.64C868.535 379.282 863.688 374.529 858.25 370.52Z" fill="#67C76B"/>
<path opacity="0.1" d="M858.25 370.52C856.699 369.519 854.938 368.887 853.104 368.674C851.269 368.46 849.41 368.671 847.67 369.29C844.187 370.545 841.06 372.628 838.56 375.36C836.065 377.905 833.904 380.758 832.13 383.85C830.43 386.85 829.13 389.99 827.43 392.98C824.43 398.33 820.51 403.05 816.57 407.73C814.12 410.64 811.64 413.59 808.5 415.73C805.36 417.87 801.85 419.18 799.72 422.15C799.05 423.09 798.57 424.15 797.91 425.1C795.82 428.16 792.27 429.8 789.18 431.85C780.32 437.75 774.81 447.57 766.53 454.26C762.96 457.14 758.93 459.4 755.42 462.34C752.15 465.07 749.42 468.34 746.16 471.14C742.9 473.94 739.07 476.25 734.82 476.51C737.66 482.84 741.05 489.05 745.92 493.98C750.79 498.91 758.09 502.06 764.74 500.13C767.1 499.45 769.41 498.01 770.31 495.73C770.594 494.558 770.989 493.416 771.49 492.32C772.159 491.44 773.026 490.731 774.02 490.25C800.715 474.667 826.162 457.038 850.13 437.52C856.56 432.28 862.94 427.59 869.54 422.52C871.907 420.842 874.095 418.925 876.07 416.8C878.823 413.513 880.542 409.486 881.012 405.224C881.482 400.963 880.681 396.658 878.71 392.85C876.941 389.937 874.913 387.189 872.65 384.64C868.535 379.282 863.688 374.529 858.25 370.52Z" fill="black"/>
<path d="M815.28 741.49C813.53 742.49 811.38 743.05 810.15 744.67C809.75 745.19 809.48 745.8 809.05 746.3C807.72 747.86 805.36 747.93 803.51 748.82C802.03 749.52 800.83 750.82 799.26 751.23C798.321 751.453 797.353 751.527 796.39 751.45L786.67 751.16C783.59 751.07 779.98 751.23 778.19 753.74C777.609 754.66 777.196 755.676 776.97 756.74C776.22 759.61 775.61 762.86 777.18 765.38C779.06 768.38 783.18 768.99 786.73 769.19C800.444 769.949 814.196 769.681 827.87 768.39C829.72 768.154 831.587 768.077 833.45 768.16C834.93 768.28 836.38 768.61 837.84 768.86C845.21 770.11 852.75 769.38 860.19 768.64C861.448 768.579 862.687 768.316 863.86 767.86C864.444 767.622 864.961 767.245 865.367 766.763C865.773 766.28 866.056 765.706 866.19 765.09C866.5 763.03 864.57 761.28 864.36 759.21C864.21 757.75 864.91 756.12 864.11 754.88C863.811 754.515 863.476 754.18 863.11 753.88C861.77 752.49 861.38 750.46 861.05 748.56L859.3 738.29C859.251 737.566 858.955 736.881 858.46 736.35C858.093 736.085 857.668 735.91 857.22 735.84C849.6 734.12 841.79 735.69 834.22 736.65C830.325 737.221 826.384 737.419 822.45 737.24C820.75 737.13 820.09 736.93 818.82 738.04C817.55 739.15 816.87 740.56 815.28 741.49Z" fill="#3F3D56"/>
<path d="M999.29 753.85C997.953 754.598 996.52 755.16 995.03 755.52C991.104 756.667 987.184 757.863 983.27 759.11C982.229 759.368 981.252 759.838 980.4 760.49C979.04 761.69 978.69 763.65 978.59 765.49C978.461 766.504 978.581 767.534 978.94 768.49C979.409 769.387 980.097 770.151 980.94 770.71C985.42 774.1 991.27 775.15 996.89 775.15C1002.51 775.15 1008.09 774.2 1013.71 774.05C1020.5 773.87 1027.47 774.83 1034 772.93C1035.25 772.469 1036.54 772.154 1037.86 771.99C1038.74 771.977 1039.61 772.033 1040.48 772.16C1043.98 772.506 1047.52 772.184 1050.9 771.21C1051.92 770.985 1052.87 770.514 1053.66 769.84C1054.05 769.499 1054.33 769.048 1054.47 768.545C1054.6 768.041 1054.58 767.51 1054.4 767.02C1054.04 766.21 1053.12 765.62 1053.11 764.73C1053.16 764.303 1053.27 763.885 1053.44 763.49C1053.85 762.12 1053.19 760.69 1052.73 759.34C1051.44 755.48 1051.65 751.04 1049.34 747.69C1047.03 744.34 1042.79 742.96 1038.76 742.43C1035.48 741.967 1032.15 742.062 1028.91 742.71C1025.26 743.49 1021.85 745.12 1018.27 746.16C1014.12 747.355 1009.78 747.765 1005.47 747.37C1002.61 747.13 1003.59 747.58 1002.62 749.98C1001.93 751.58 1000.77 752.931 999.29 753.85Z" fill="#3F3D56"/>
<path d="M839.5 365.42C855.517 365.42 868.5 352.436 868.5 336.42C868.5 320.404 855.517 307.42 839.5 307.42C823.484 307.42 810.5 320.404 810.5 336.42C810.5 352.436 823.484 365.42 839.5 365.42Z" fill="#FBBEBE"/>
<path d="M1049.74 743.48C1040.74 751.21 1028.59 754.59 1016.74 754.71C1011.74 754.76 1006.55 754.22 1002.29 751.63C1001.99 749.99 1001.87 748.22 1001.57 746.58C996.4 745.5 992.39 741.29 989.89 736.63C987.39 731.97 986.12 726.79 984.26 721.85C981.42 714.33 977.26 707.4 973.1 700.52C969.28 694.18 965.45 687.82 961.1 681.83C958.22 677.83 955.1 674.07 952.25 670.08C944.176 658.973 938.381 646.378 935.2 633.02C934.714 630.458 934.022 627.94 933.13 625.49C931.41 621.31 928.26 617.91 925.83 614.1C923.21 609.988 921.413 605.407 920.54 600.61C920.05 597.89 919.21 594.95 916.48 594.67C910.74 605.82 904.89 617.15 896.21 626.22C894.846 627.529 893.598 628.955 892.48 630.48C891.584 631.961 890.782 633.497 890.08 635.08C888.734 637.918 886.945 640.524 884.78 642.8C882.966 644.741 880.574 646.045 877.96 646.52C879.888 656.129 878.741 666.1 874.68 675.02C873.47 677.66 872.02 680.18 870.88 682.85C866.22 693.85 867.3 706.26 866.81 718.19C866.768 720.69 866.473 723.179 865.93 725.62C864.72 730.5 862.22 735.69 863.43 740.57C850.89 745.36 836.96 745.06 823.68 743.04C821.083 742.802 818.561 742.037 816.27 740.79C814.387 739.457 812.744 737.813 811.41 735.93C810.896 735.381 810.516 734.72 810.3 734C809.78 731.72 812.3 730 813.47 728C814.64 726 814.85 722.83 813.24 721.19C814.04 708.1 817.66 695.32 818.46 682.19C818.78 676.99 818.65 671.77 818.89 666.56C819.13 661.35 819.69 656.28 820.27 651.16C821.59 639.47 824.79 628.01 824.34 616.26C824.203 612.644 825.035 609.057 826.75 605.87C828.196 603.449 829.835 601.148 831.65 598.99C837.79 591.06 845.17 583.11 847.36 573.32C848.49 568.27 850.99 563.65 853.47 559.11C854.94 556.4 856.47 553.63 858.81 551.64C860.083 550.759 861.266 549.754 862.34 548.64C863.98 546.53 864.04 543.64 865.01 541.12C865.51 539.82 866.28 538.62 866.65 537.28C866.955 535.8 867.106 534.291 867.1 532.78C867.42 527.94 869.28 523.26 871.24 518.83C866.631 516.161 862.561 512.654 859.24 508.49C858.125 507.138 857.153 505.673 856.34 504.12C854.28 500.06 853.81 495.43 852.84 490.98C850.53 480.36 845.22 470.37 844.48 459.52C844.26 456.21 844.48 452.79 843.33 449.66C842.8 448.335 842.178 447.049 841.47 445.81C840.773 444.593 840.242 443.288 839.89 441.93C839.25 438.98 840.13 435.93 839.89 432.93C839.65 430.28 838.52 427.8 837.96 425.21C837.389 421.84 837.291 418.407 837.67 415.01C837.92 411.01 838.79 406.88 838.45 402.93C837.899 396.394 838.732 389.815 840.894 383.622C843.057 377.43 846.5 371.762 851 366.99L851.23 366.76C853.14 364.76 855.23 362.99 856.95 360.87C859.29 358.03 860.95 354.69 863.42 351.93C864.5 350.7 865.72 349.6 866.79 348.36C867.772 347.059 868.859 345.842 870.04 344.72C870.638 344.165 871.362 343.765 872.15 343.554C872.938 343.343 873.765 343.328 874.56 343.51C874.761 345.001 875.228 346.444 875.94 347.77C878.02 347.93 879.87 348.22 881.94 348.38C882.9 348.426 883.852 348.573 884.78 348.82C886.73 349.41 888.29 350.82 889.96 352.03C894.12 354.96 899.23 356.32 903.32 359.34C909.32 363.79 912.32 371.14 915.94 377.73C920.73 386.56 928.54 394.07 931.94 403.51L936.63 416.35C939.7 424.73 942.77 433.14 946.93 441.04C952.72 452.04 960.56 461.95 965.21 473.46C965.675 474.614 966.537 475.565 967.64 476.14C973.972 485.02 979.599 494.382 984.47 504.14C987.04 509.3 989.47 514.66 990.21 520.37C991.3 528.44 989.1 536.6 986.04 544.14C985.546 545.22 985.209 546.365 985.04 547.54C984.84 549.45 985.57 551.33 985.77 553.24C985.963 555.024 985.698 556.827 985 558.48C984.379 559.642 983.853 560.852 983.43 562.1C982.89 564.4 983.85 566.74 984.37 569.04C986.13 576.83 985.81 584.9 985.37 592.88C985.14 596.88 988.37 600.05 991.06 602.98C996.06 608.47 999.96 614.89 1003.73 621.3C1005.78 624.551 1007.51 627.994 1008.89 631.58C1010.32 635.67 1010.89 640 1011.68 644.25C1014.22 657.36 1022.54 668.95 1024.8 682.1C1025.85 688.124 1028.52 693.749 1032.52 698.37C1033.73 699.62 1034.84 700.957 1035.85 702.37C1036.54 703.492 1037.09 704.694 1037.49 705.95C1038.47 708.87 1038.94 711.94 1038.86 715.02C1038.7 716.494 1038.79 717.984 1039.11 719.43C1040.05 722.48 1043.41 724.16 1044.79 727.03C1046.17 729.9 1045.22 733.58 1045.79 736.84C1046.22 739.473 1047.63 741.845 1049.74 743.48Z" fill="#67C76B"/>
<path d="M747.15 468.17C743.87 469.85 740.38 471.57 736.71 471.33C733.41 471.12 730.4 469.33 727.92 467.14C725.92 465.4 723.86 463.23 721.23 463.41C719.47 463.53 717.99 464.72 716.63 465.85L709.38 471.92C708.16 472.74 707.238 473.933 706.75 475.32C706.607 476.261 706.665 477.223 706.92 478.14C707.25 479.76 707.8 481.65 709.36 482.2C710.92 482.75 712.62 481.57 714.27 481.12C715.278 480.862 716.337 480.882 717.335 481.175C718.333 481.469 719.233 482.027 719.94 482.79C720.53 483.369 720.886 484.145 720.94 484.97C720.94 486.78 718.94 487.97 717.1 488.06C715.26 488.15 713.5 487.55 711.68 487.66C711.57 487.646 711.459 487.654 711.352 487.684C711.246 487.714 711.146 487.765 711.059 487.834C710.973 487.903 710.901 487.989 710.848 488.086C710.795 488.183 710.761 488.29 710.75 488.4C710.637 489.032 710.685 489.682 710.89 490.29C711.094 490.898 711.449 491.445 711.92 491.88C712.87 492.747 713.977 493.426 715.18 493.88C716.579 494.572 718.089 495.012 719.64 495.18C722.71 495.38 725.53 493.68 728.44 492.69C732.36 491.37 736.58 491.33 740.72 491.34C744.86 491.35 749.06 491.41 753.03 490.25C757 489.09 760.77 486.52 762.32 482.69C762.503 482.333 762.563 481.925 762.49 481.53C762.336 481.109 762.039 480.755 761.65 480.53C756.07 476.4 753.81 471.38 747.53 468.41L747.15 468.17Z" fill="#FBBEBE"/>
<path d="M825.39 318.6C823.66 318.88 822.19 320.05 820.55 320.7C819.45 321.128 818.271 321.317 817.092 321.255C815.913 321.193 814.76 320.881 813.71 320.34C812.978 319.984 812.338 319.464 811.84 318.82C810.5 316.96 810.97 314.26 811.79 312.08C815.67 301.77 826.03 295.39 836.29 294.98C846.55 294.57 856.53 299.36 864.62 306.21C867.027 308.187 869.186 310.446 871.05 312.94C875.27 318.79 877.18 326.26 877.74 333.66C878.075 336.765 877.869 339.905 877.13 342.94C876.775 344.415 876.127 345.803 875.223 347.021C874.319 348.239 873.179 349.263 871.87 350.03C869.01 351.49 865.58 351.03 862.69 349.63C859.8 348.23 857.32 346.02 854.84 343.91C853.717 342.827 852.387 341.98 850.93 341.42C850.204 341.161 849.418 341.118 848.668 341.295C847.917 341.473 847.234 341.863 846.7 342.42C845.36 344.03 845.7 346.67 844.48 348.42C843.26 350.17 840.72 350.42 838.58 350.42C836.44 350.42 834.27 350.24 832.99 348.54C831.82 347 831.99 344.75 832.43 342.81C832.87 340.87 833.62 338.95 833.43 336.96C833.02 332.96 829.52 330.5 828.43 326.82C827.72 324.41 829.28 323.39 829.12 321.21C829 319.29 826.94 318.35 825.39 318.6Z" fill="#3F3D56"/>
<path opacity="0.1" d="M916.5 594.42V594.67C910.76 605.82 904.91 617.15 896.23 626.22C894.866 627.53 893.618 628.955 892.5 630.48C891.604 631.961 890.802 633.498 890.1 635.08C888.754 637.918 886.965 640.524 884.8 642.8L877.56 646.42L900.56 526.42L916.5 594.42Z" fill="black"/>
<path opacity="0.1" d="M883.07 412.8C881.095 414.925 878.907 416.842 876.54 418.52C869.94 423.52 863.54 428.24 857.13 433.52C851.964 437.727 846.724 441.847 841.41 445.88C840.713 444.663 840.182 443.358 839.83 442C839.19 439.05 840.07 436 839.83 433C839.59 430.35 838.46 427.87 837.9 425.28C837.329 421.91 837.231 418.477 837.61 415.08C837.86 411.08 838.73 406.95 838.39 403C837.837 396.448 838.674 389.853 840.847 383.648C843.021 377.442 846.48 371.765 851 366.99L851.23 366.76C852.307 366.134 853.446 365.625 854.63 365.24C856.374 364.629 858.235 364.426 860.069 364.648C861.904 364.87 863.663 365.51 865.21 366.52C870.648 370.529 875.495 375.282 879.61 380.64C881.873 383.189 883.901 385.937 885.67 388.85C887.646 392.654 888.454 396.957 887.991 401.218C887.528 405.479 885.817 409.509 883.07 412.8Z" fill="black"/>
<path d="M864.25 361.52C862.699 360.519 860.938 359.887 859.104 359.674C857.269 359.46 855.41 359.671 853.67 360.29C850.187 361.545 847.06 363.628 844.56 366.36C842.065 368.905 839.904 371.758 838.13 374.85C836.43 377.85 835.13 380.99 833.43 383.98C830.43 389.33 826.51 394.05 822.57 398.73C820.12 401.64 817.64 404.59 814.5 406.73C811.36 408.87 807.85 410.18 805.72 413.15C805.05 414.09 804.57 415.15 803.91 416.1C801.82 419.16 798.27 420.8 795.18 422.85C786.32 428.75 780.81 438.57 772.53 445.26C768.96 448.14 764.93 450.4 761.42 453.34C758.15 456.07 755.42 459.34 752.16 462.14C748.9 464.94 745.07 467.25 740.82 467.51C743.66 473.84 747.05 480.05 751.92 484.98C756.79 489.91 764.09 493.06 770.74 491.13C773.1 490.45 775.41 489.01 776.31 486.73C776.594 485.558 776.989 484.416 777.49 483.32C778.159 482.44 779.026 481.731 780.02 481.25C806.715 465.667 832.162 448.038 856.13 428.52C862.56 423.28 868.94 418.59 875.54 413.52C877.907 411.842 880.095 409.925 882.07 407.8C884.823 404.513 886.542 400.486 887.012 396.224C887.482 391.963 886.681 387.658 884.71 383.85C882.941 380.937 880.913 378.189 878.65 375.64C874.535 370.282 869.688 365.529 864.25 361.52Z" fill="#67C76B"/>
<g opacity="0.1">
<path opacity="0.1" d="M840.58 346.39C838.58 346.39 836.27 346.21 834.99 344.51C833.83 342.97 833.99 340.72 834.43 338.78C834.87 336.84 835.62 334.92 835.43 332.93C835.02 328.93 831.52 326.47 830.43 322.79C829.72 320.38 831.28 319.36 831.12 317.18C830.98 315.29 828.93 314.35 827.38 314.6C825.65 314.88 824.18 316.05 822.54 316.7C821.44 317.128 820.261 317.317 819.082 317.255C817.903 317.193 816.75 316.881 815.7 316.34C814.968 315.984 814.328 315.464 813.83 314.82C812.49 312.96 812.96 310.26 813.78 308.08C813.78 308 813.85 307.93 813.88 307.85C813.044 309.188 812.341 310.605 811.78 312.08C810.96 314.26 810.49 316.96 811.83 318.82C812.328 319.464 812.968 319.984 813.7 320.34C814.75 320.881 815.903 321.193 817.082 321.255C818.261 321.317 819.44 321.128 820.54 320.7C822.18 320.05 823.65 318.88 825.38 318.6C826.93 318.35 828.98 319.29 829.12 321.18C829.28 323.36 827.72 324.38 828.43 326.79C829.5 330.47 833 332.97 833.43 336.93C833.63 338.93 832.9 340.85 832.43 342.78C831.96 344.71 831.83 346.97 832.99 348.51C834.27 350.21 836.56 350.37 838.58 350.39C840.6 350.41 843.2 350.27 844.48 348.39C845.033 347.446 845.396 346.403 845.55 345.32C844.19 346.29 842.29 346.41 840.58 346.39Z" fill="black"/>
<path opacity="0.1" d="M873.87 346.03C871.01 347.49 867.58 347.03 864.69 345.63C861.8 344.23 859.32 342.02 856.84 339.91C855.717 338.827 854.387 337.98 852.93 337.42C852.204 337.161 851.418 337.118 850.668 337.295C849.917 337.473 849.234 337.863 848.7 338.42C848.021 339.424 847.592 340.576 847.45 341.78C847.97 341.474 848.55 341.282 849.15 341.218C849.751 341.154 850.357 341.22 850.93 341.41C852.387 341.97 853.717 342.817 854.84 343.9C857.32 346.01 859.84 348.23 862.69 349.62C865.54 351.01 869.01 351.48 871.87 350.02C874.4 348.54 876.243 346.121 877 343.29C876.179 344.429 875.108 345.366 873.87 346.03Z" fill="black"/>
</g>
<path d="M625 775.92C641.569 775.92 655 762.489 655 745.92C655 729.352 641.569 715.92 625 715.92C608.432 715.92 595 729.352 595 745.92C595 762.489 608.432 775.92 625 775.92Z" fill="#3F3D56"/>
<path opacity="0.1" d="M625 775.92C641.569 775.92 655 762.489 655 745.92C655 729.352 641.569 715.92 625 715.92C608.432 715.92 595 729.352 595 745.92C595 762.489 608.432 775.92 625 775.92Z" fill="black"/>
<path d="M625 764.92C635.494 764.92 644 756.413 644 745.92C644 735.427 635.494 726.92 625 726.92C614.507 726.92 606 735.427 606 745.92C606 756.413 614.507 764.92 625 764.92Z" fill="#65617D"/>
<path opacity="0.1" d="M625 764.92C635.494 764.92 644 756.413 644 745.92C644 735.427 635.494 726.92 625 726.92C614.507 726.92 606 735.427 606 745.92C606 756.413 614.507 764.92 625 764.92Z" fill="black"/>
<path d="M602 698.92L621.68 743.42C621.973 744.087 622.451 744.656 623.057 745.061C623.663 745.465 624.372 745.688 625.101 745.703C625.829 745.718 626.547 745.524 627.168 745.144C627.79 744.764 628.291 744.215 628.61 743.56L652 695.92L602 698.92Z" fill="#3F3D56"/>
<path opacity="0.1" d="M602 698.92L621.68 743.42C621.973 744.087 622.451 744.656 623.057 745.061C623.663 745.465 624.372 745.688 625.101 745.703C625.829 745.718 626.547 745.524 627.168 745.144C627.79 744.764 628.291 744.215 628.61 743.56L652 695.92L602 698.92Z" fill="black"/>
<path d="M438 775.92C454.569 775.92 468 762.489 468 745.92C468 729.352 454.569 715.92 438 715.92C421.432 715.92 408 729.352 408 745.92C408 762.489 421.432 775.92 438 775.92Z" fill="#3F3D56"/>
<path opacity="0.1" d="M438 775.92C454.569 775.92 468 762.489 468 745.92C468 729.352 454.569 715.92 438 715.92C421.432 715.92 408 729.352 408 745.92C408 762.489 421.432 775.92 438 775.92Z" fill="black"/>
<path d="M438 764.92C448.494 764.92 457 756.413 457 745.92C457 735.427 448.494 726.92 438 726.92C427.507 726.92 419 735.427 419 745.92C419 756.413 427.507 764.92 438 764.92Z" fill="#65617D"/>
<path opacity="0.1" d="M438 764.92C448.494 764.92 457 756.413 457 745.92C457 735.427 448.494 726.92 438 726.92C427.507 726.92 419 735.427 419 745.92C419 756.413 427.507 764.92 438 764.92Z" fill="black"/>
<path d="M415 698.92L434.68 743.42C434.973 744.087 435.451 744.656 436.057 745.061C436.663 745.465 437.372 745.688 438.101 745.703C438.829 745.718 439.547 745.524 440.168 745.144C440.79 744.764 441.291 744.215 441.61 743.56L465 695.92L415 698.92Z" fill="#3F3D56"/>
<path opacity="0.1" d="M415 698.92L434.68 743.42C434.973 744.087 435.451 744.656 436.057 745.061C436.663 745.465 437.372 745.688 438.101 745.703C438.829 745.718 439.547 745.524 440.168 745.144C440.79 744.764 441.291 744.215 441.61 743.56L465 695.92L415 698.92Z" fill="black"/>
<path d="M722.36 484.67C722.278 483.913 722.007 483.188 721.572 482.562C721.137 481.937 720.552 481.43 719.87 481.09C719.296 480.845 718.679 480.719 718.055 480.718C717.431 480.717 716.814 480.841 716.239 481.084C715.664 481.326 715.144 481.682 714.71 482.13C714.275 482.578 713.935 483.108 713.71 483.69L696.5 526.42L691.5 718.42H699.5L702.5 526.83L721.94 487.57C722.382 486.672 722.529 485.657 722.36 484.67Z" fill="#3F3D56"/>
<path d="M368.5 703.42L395.5 686.42L687 683.92L694.5 703.42H368.5Z" fill="#67C76B"/>
<path d="M368.5 721.42V703.42L699.78 700.22L699.46 712.42H374.5V721.42H368.5Z" fill="#3F3D56"/>
<path d="M410.5 786.42C427.069 786.42 440.5 772.989 440.5 756.42C440.5 739.852 427.069 726.42 410.5 726.42C393.932 726.42 380.5 739.852 380.5 756.42C380.5 772.989 393.932 786.42 410.5 786.42Z" fill="#3F3D56"/>
<path d="M410.5 775.42C420.994 775.42 429.5 766.913 429.5 756.42C429.5 745.927 420.994 737.42 410.5 737.42C400.007 737.42 391.5 745.927 391.5 756.42C391.5 766.913 400.007 775.42 410.5 775.42Z" fill="#65617D"/>
<path d="M387.5 709.42L407.18 753.92C407.473 754.587 407.951 755.156 408.557 755.561C409.163 755.965 409.872 756.188 410.601 756.203C411.329 756.218 412.047 756.024 412.668 755.644C413.29 755.264 413.791 754.715 414.11 754.06L437.5 706.42L387.5 709.42Z" fill="#3F3D56"/>
<path d="M643.5 786.42C660.069 786.42 673.5 772.989 673.5 756.42C673.5 739.852 660.069 726.42 643.5 726.42C626.932 726.42 613.5 739.852 613.5 756.42C613.5 772.989 626.932 786.42 643.5 786.42Z" fill="#3F3D56"/>
<path d="M643.5 775.42C653.994 775.42 662.5 766.913 662.5 756.42C662.5 745.927 653.994 737.42 643.5 737.42C633.007 737.42 624.5 745.927 624.5 756.42C624.5 766.913 633.007 775.42 643.5 775.42Z" fill="#65617D"/>
<path d="M620.5 709.42L640.18 753.92C640.473 754.587 640.951 755.156 641.557 755.561C642.163 755.965 642.872 756.188 643.601 756.203C644.329 756.218 645.047 756.024 645.668 755.644C646.29 755.264 646.791 754.715 647.11 754.06L670.5 706.42L620.5 709.42Z" fill="#3F3D56"/>
<path d="M531 624.92H406V693.92H531V624.92Z" fill="#65617D"/>
<path opacity="0.1" d="M488 636.92H450V644.92H488V636.92Z" fill="black"/>
<path opacity="0.1" d="M483.25 637.92H454.75V643.92H483.25V637.92Z" fill="black"/>
<path d="M658 624.92H533V693.92H658V624.92Z" fill="#65617D"/>
<path opacity="0.1" d="M615 636.92H577V644.92H615V636.92Z" fill="black"/>
<path opacity="0.1" d="M610.25 637.92H581.75V643.92H610.25V637.92Z" fill="black"/>
<path d="M531 553.92H406V622.92H531V553.92Z" fill="#65617D"/>
<path opacity="0.1" d="M488 565.92H450V573.92H488V565.92Z" fill="black"/>
<path opacity="0.1" d="M483.25 566.92H454.75V572.92H483.25V566.92Z" fill="black"/>
<path d="M658 553.92H533V622.92H658V553.92Z" fill="#65617D"/>
<path opacity="0.1" d="M615 565.92H577V573.92H615V565.92Z" fill="black"/>
<path opacity="0.1" d="M610.25 566.92H581.75V572.92H610.25V566.92Z" fill="black"/>
<path d="M531 481.92H406V550.92H531V481.92Z" fill="#65617D"/>
<path opacity="0.1" d="M488 493.92H450V501.92H488V493.92Z" fill="black"/>
<path opacity="0.1" d="M483.25 494.92H454.75V500.92H483.25V494.92Z" fill="black"/>
<path d="M658 481.92H533V550.92H658V481.92Z" fill="#65617D"/>
<path opacity="0.1" d="M615 493.92H577V501.92H615V493.92Z" fill="black"/>
<path opacity="0.1" d="M610.25 494.92H581.75V500.92H610.25V494.92Z" fill="black"/>
<path d="M658 409.92H533V478.92H658V409.92Z" fill="#65617D"/>
<path opacity="0.1" d="M615 421.92H577V429.92H615V421.92Z" fill="black"/>
<path opacity="0.1" d="M610.25 422.92H581.75V428.92H610.25V422.92Z" fill="black"/>
<g clip-path="url(#clip0)">
<path d="M208.75 157.25H204.589C207.219 161.779 208.75 167.021 208.75 172.625C208.75 189.581 194.956 203.375 178 203.375C161.044 203.375 147.25 189.581 147.25 172.625C147.25 167.021 148.781 161.779 151.411 157.25H147.25C141.598 157.25 137 161.848 137 167.5V218.75C137 224.402 141.598 229 147.25 229H208.75C214.402 229 219 224.402 219 218.75V167.5C219 161.848 214.402 157.25 208.75 157.25ZM178 198.25C192.153 198.25 203.625 186.778 203.625 172.625C203.625 158.472 192.153 147 178 147C163.847 147 152.375 158.472 152.375 172.625C152.375 186.778 163.847 198.25 178 198.25ZM177.952 173.916L183.33 161.366C183.891 160.058 185.402 159.457 186.698 160.019C187.999 160.576 188.601 162.084 188.045 163.382L182.653 175.963C183.722 177.109 184.406 178.623 184.406 180.312C184.406 183.85 181.538 186.719 178 186.719C174.462 186.719 171.594 183.85 171.594 180.312C171.594 176.792 174.438 173.943 177.952 173.916Z" fill="#67C76B" fill-opacity="0.2"/>
</g>
<path d="M499.446 52.7143H521V4.39286C521 1.95848 519.304 0 517.196 0H453.804C451.696 0 450 1.95848 450 4.39286V77.6071C450 80.0415 451.696 82 453.804 82H495.643V57.1071C495.643 54.6911 497.354 52.7143 499.446 52.7143ZM519.891 62.7812L504.359 80.7188C503.646 81.5424 502.679 82 501.665 82H500.714V58.5714H521V59.688C521 60.8411 520.604 61.9576 519.891 62.7812Z" fill="#67C76B" fill-opacity="0.2"/>
<g clip-path="url(#clip1)">
<path d="M815.051 79.604L830.705 62.3428C833.791 59.2646 831.606 54 827.24 54H752.91C748.545 54 746.359 59.2646 749.445 62.3428L777.7 93.5V117.558C777.7 119.501 778.617 121.329 780.175 122.495L792.549 131.753C795.775 134.166 800.046 132.829 801.709 129.659C796.077 124.264 792.55 116.699 792.55 108.312C792.55 94.4582 802.149 82.8273 815.051 79.604ZM822.25 83.625C808.58 83.625 797.5 94.6773 797.5 108.312C797.5 121.948 808.58 133 822.25 133C835.92 133 847 121.948 847 108.312C847 94.6773 835.92 83.625 822.25 83.625ZM824.725 120.638V123.125C824.725 123.807 824.171 124.359 823.488 124.359H821.013C820.329 124.359 819.775 123.807 819.775 123.125V120.612C818.029 120.522 816.33 119.914 814.923 118.86C814.319 118.408 814.288 117.507 814.834 116.987L816.652 115.257C817.081 114.85 817.718 114.832 818.219 115.145C818.818 115.518 819.497 115.719 820.202 115.719H824.55C825.556 115.719 826.376 114.805 826.376 113.684C826.376 112.766 825.817 111.957 825.019 111.719L818.058 109.636C815.183 108.775 813.173 106.023 813.173 102.941C813.173 99.1581 816.12 96.0845 819.774 95.9873V93.5C819.774 92.818 820.327 92.2656 821.011 92.2656H823.486C824.17 92.2656 824.724 92.818 824.724 93.5V96.0135C826.47 96.103 828.169 96.7094 829.576 97.7648C830.179 98.2169 830.21 99.118 829.664 99.6379L827.847 101.368C827.418 101.775 826.781 101.793 826.28 101.48C825.681 101.105 825.002 100.906 824.297 100.906H819.948C818.943 100.906 818.123 101.82 818.123 102.941C818.123 103.859 818.682 104.668 819.48 104.906L826.441 106.989C829.316 107.85 831.326 110.602 831.326 113.684C831.326 117.468 828.38 120.541 824.725 120.638Z" fill="#67C76B" fill-opacity="0.2"/>
</g>
<path d="M310.848 886.639C310.848 890.838 310.105 894.52 308.621 897.684C307.137 900.848 305.008 903.289 302.234 905.008C299.48 906.727 296.316 907.586 292.742 907.586C289.207 907.586 286.053 906.736 283.279 905.037C280.506 903.338 278.357 900.916 276.834 897.771C275.311 894.607 274.539 890.975 274.52 886.873V884.764C274.52 880.564 275.271 876.873 276.775 873.689C278.299 870.486 280.438 868.035 283.191 866.336C285.965 864.617 289.129 863.758 292.684 863.758C296.238 863.758 299.393 864.617 302.146 866.336C304.92 868.035 307.059 870.486 308.562 873.689C310.086 876.873 310.848 880.555 310.848 884.734V886.639ZM301.941 884.705C301.941 880.232 301.141 876.834 299.539 874.51C297.938 872.186 295.652 871.023 292.684 871.023C289.734 871.023 287.459 872.176 285.857 874.48C284.256 876.766 283.445 880.125 283.426 884.559V886.639C283.426 890.994 284.227 894.373 285.828 896.775C287.43 899.178 289.734 900.379 292.742 900.379C295.691 900.379 297.957 899.227 299.539 896.922C301.121 894.598 301.922 891.219 301.941 886.785V884.705ZM324.471 875.301L324.734 878.963C327 876.131 330.037 874.715 333.846 874.715C337.205 874.715 339.705 875.701 341.346 877.674C342.986 879.646 343.826 882.596 343.865 886.521V907H335.398V886.727C335.398 884.93 335.008 883.631 334.227 882.83C333.445 882.01 332.146 881.6 330.33 881.6C327.947 881.6 326.16 882.615 324.969 884.646V907H316.502V875.301H324.471ZM359.246 907H350.75V862H359.246V907ZM375.184 907H366.688V875.301H375.184V907ZM366.189 867.098C366.189 865.828 366.609 864.783 367.449 863.963C368.309 863.143 369.471 862.732 370.936 862.732C372.381 862.732 373.533 863.143 374.393 863.963C375.252 864.783 375.682 865.828 375.682 867.098C375.682 868.387 375.242 869.441 374.363 870.262C373.504 871.082 372.361 871.492 370.936 871.492C369.51 871.492 368.357 871.082 367.479 870.262C366.619 869.441 366.189 868.387 366.189 867.098ZM389.979 875.301L390.242 878.963C392.508 876.131 395.545 874.715 399.354 874.715C402.713 874.715 405.213 875.701 406.854 877.674C408.494 879.646 409.334 882.596 409.373 886.521V907H400.906V886.727C400.906 884.93 400.516 883.631 399.734 882.83C398.953 882.01 397.654 881.6 395.838 881.6C393.455 881.6 391.668 882.615 390.477 884.646V907H382.01V875.301H389.979ZM430.408 907.586C425.76 907.586 421.971 906.16 419.041 903.309C416.131 900.457 414.676 896.658 414.676 891.912V891.092C414.676 887.908 415.291 885.066 416.521 882.566C417.752 880.047 419.49 878.113 421.736 876.766C424.002 875.398 426.58 874.715 429.471 874.715C433.807 874.715 437.215 876.082 439.695 878.816C442.195 881.551 443.445 885.428 443.445 890.447V893.904H423.26C423.533 895.975 424.354 897.635 425.721 898.885C427.107 900.135 428.855 900.76 430.965 900.76C434.227 900.76 436.775 899.578 438.611 897.215L442.771 901.873C441.502 903.67 439.783 905.076 437.615 906.092C435.447 907.088 433.045 907.586 430.408 907.586ZM429.441 881.57C427.762 881.57 426.395 882.137 425.34 883.27C424.305 884.402 423.641 886.023 423.348 888.133H435.125V887.459C435.086 885.584 434.578 884.139 433.602 883.123C432.625 882.088 431.238 881.57 429.441 881.57ZM497 894.695L502.742 864.344H511.502L502.039 907H493.191L486.248 878.465L479.305 907H470.457L460.994 864.344H469.754L475.525 894.637L482.557 864.344H489.998L497 894.695ZM529.373 907.586C524.725 907.586 520.936 906.16 518.006 903.309C515.096 900.457 513.641 896.658 513.641 891.912V891.092C513.641 887.908 514.256 885.066 515.486 882.566C516.717 880.047 518.455 878.113 520.701 876.766C522.967 875.398 525.545 874.715 528.436 874.715C532.771 874.715 536.18 876.082 538.66 878.816C541.16 881.551 542.41 885.428 542.41 890.447V893.904H522.225C522.498 895.975 523.318 897.635 524.686 898.885C526.072 900.135 527.82 900.76 529.93 900.76C533.191 900.76 535.74 899.578 537.576 897.215L541.736 901.873C540.467 903.67 538.748 905.076 536.58 906.092C534.412 907.088 532.01 907.586 529.373 907.586ZM528.406 881.57C526.727 881.57 525.359 882.137 524.305 883.27C523.27 884.402 522.605 886.023 522.312 888.133H534.09V887.459C534.051 885.584 533.543 884.139 532.566 883.123C531.59 882.088 530.203 881.57 528.406 881.57ZM556.18 907H547.684V875.301H556.18V907ZM547.186 867.098C547.186 865.828 547.605 864.783 548.445 863.963C549.305 863.143 550.467 862.732 551.932 862.732C553.377 862.732 554.529 863.143 555.389 863.963C556.248 864.783 556.678 865.828 556.678 867.098C556.678 868.387 556.238 869.441 555.359 870.262C554.5 871.082 553.357 871.492 551.932 871.492C550.506 871.492 549.354 871.082 548.475 870.262C547.615 869.441 547.186 868.387 547.186 867.098ZM561.951 890.916C561.951 886.053 563.104 882.137 565.408 879.168C567.732 876.199 570.857 874.715 574.783 874.715C578.26 874.715 580.965 875.906 582.898 878.289L583.25 875.301H590.926V905.945C590.926 908.719 590.291 911.131 589.021 913.182C587.771 915.232 586.004 916.795 583.719 917.869C581.434 918.943 578.758 919.48 575.691 919.48C573.367 919.48 571.102 919.012 568.895 918.074C566.688 917.156 565.018 915.965 563.885 914.5L567.635 909.344C569.744 911.707 572.303 912.889 575.311 912.889C577.557 912.889 579.305 912.283 580.555 911.072C581.805 909.881 582.43 908.182 582.43 905.975V904.275C580.477 906.482 577.908 907.586 574.725 907.586C570.916 907.586 567.83 906.102 565.467 903.133C563.123 900.145 561.951 896.189 561.951 891.268V890.916ZM570.418 891.531C570.418 894.402 570.994 896.658 572.146 898.299C573.299 899.92 574.881 900.73 576.893 900.73C579.471 900.73 581.316 899.764 582.43 897.83V884.5C581.297 882.566 579.471 881.6 576.951 881.6C574.92 881.6 573.318 882.43 572.146 884.09C570.994 885.75 570.418 888.23 570.418 891.531ZM605.721 878.758C607.967 876.062 610.789 874.715 614.188 874.715C621.062 874.715 624.549 878.709 624.646 886.697V907H616.18V886.932C616.18 885.115 615.789 883.777 615.008 882.918C614.227 882.039 612.928 881.6 611.111 881.6C608.631 881.6 606.834 882.557 605.721 884.471V907H597.254V862H605.721V878.758ZM639.969 907H631.473V875.301H639.969V907ZM630.975 867.098C630.975 865.828 631.395 864.783 632.234 863.963C633.094 863.143 634.256 862.732 635.721 862.732C637.166 862.732 638.318 863.143 639.178 863.963C640.037 864.783 640.467 865.828 640.467 867.098C640.467 868.387 640.027 869.441 639.148 870.262C638.289 871.082 637.146 871.492 635.721 871.492C634.295 871.492 633.143 871.082 632.264 870.262C631.404 869.441 630.975 868.387 630.975 867.098ZM654.764 875.301L655.027 878.963C657.293 876.131 660.33 874.715 664.139 874.715C667.498 874.715 669.998 875.701 671.639 877.674C673.279 879.646 674.119 882.596 674.158 886.521V907H665.691V886.727C665.691 884.93 665.301 883.631 664.52 882.83C663.738 882.01 662.439 881.6 660.623 881.6C658.24 881.6 656.453 882.615 655.262 884.646V907H646.795V875.301H654.764ZM679.373 890.916C679.373 886.053 680.525 882.137 682.83 879.168C685.154 876.199 688.279 874.715 692.205 874.715C695.682 874.715 698.387 875.906 700.32 878.289L700.672 875.301H708.348V905.945C708.348 908.719 707.713 911.131 706.443 913.182C705.193 915.232 703.426 916.795 701.141 917.869C698.855 918.943 696.18 919.48 693.113 919.48C690.789 919.48 688.523 919.012 686.316 918.074C684.109 917.156 682.439 915.965 681.307 914.5L685.057 909.344C687.166 911.707 689.725 912.889 692.732 912.889C694.979 912.889 696.727 912.283 697.977 911.072C699.227 909.881 699.852 908.182 699.852 905.975V904.275C697.898 906.482 695.33 907.586 692.146 907.586C688.338 907.586 685.252 906.102 682.889 903.133C680.545 900.145 679.373 896.189 679.373 891.268V890.916ZM687.84 891.531C687.84 894.402 688.416 896.658 689.568 898.299C690.721 899.92 692.303 900.73 694.314 900.73C696.893 900.73 698.738 899.764 699.852 897.83V884.5C698.719 882.566 696.893 881.6 694.373 881.6C692.342 881.6 690.74 882.43 689.568 884.09C688.416 885.75 687.84 888.23 687.84 891.531ZM752.498 895.809C752.498 894.148 751.912 892.879 750.74 892C749.568 891.102 747.459 890.164 744.412 889.188C741.365 888.191 738.953 887.215 737.176 886.258C732.332 883.641 729.91 880.115 729.91 875.682C729.91 873.377 730.555 871.326 731.844 869.529C733.152 867.713 735.018 866.297 737.439 865.281C739.881 864.266 742.615 863.758 745.643 863.758C748.689 863.758 751.404 864.314 753.787 865.428C756.17 866.521 758.016 868.074 759.324 870.086C760.652 872.098 761.316 874.383 761.316 876.941H752.527C752.527 874.988 751.912 873.475 750.682 872.4C749.451 871.307 747.723 870.76 745.496 870.76C743.348 870.76 741.678 871.219 740.486 872.137C739.295 873.035 738.699 874.227 738.699 875.711C738.699 877.098 739.393 878.26 740.779 879.197C742.186 880.135 744.246 881.014 746.961 881.834C751.961 883.338 755.604 885.203 757.889 887.43C760.174 889.656 761.316 892.43 761.316 895.75C761.316 899.441 759.92 902.342 757.127 904.451C754.334 906.541 750.574 907.586 745.848 907.586C742.566 907.586 739.578 906.99 736.883 905.799C734.188 904.588 732.127 902.938 730.701 900.848C729.295 898.758 728.592 896.336 728.592 893.582H737.41C737.41 898.289 740.223 900.643 745.848 900.643C747.938 900.643 749.568 900.223 750.74 899.383C751.912 898.523 752.498 897.332 752.498 895.809ZM778.572 895.018L784.432 875.301H793.514L780.77 911.922L780.066 913.592C778.172 917.732 775.047 919.803 770.691 919.803C769.461 919.803 768.211 919.617 766.941 919.246V912.83L768.23 912.859C769.832 912.859 771.023 912.615 771.805 912.127C772.605 911.639 773.23 910.828 773.68 909.695L774.676 907.088L763.572 875.301H772.684L778.572 895.018ZM814.021 898.24C814.021 897.205 813.504 896.395 812.469 895.809C811.453 895.203 809.812 894.666 807.547 894.197C800.008 892.615 796.238 889.412 796.238 884.588C796.238 881.775 797.4 879.432 799.725 877.557C802.068 875.662 805.125 874.715 808.895 874.715C812.918 874.715 816.131 875.662 818.533 877.557C820.955 879.451 822.166 881.912 822.166 884.939H813.699C813.699 883.729 813.309 882.732 812.527 881.951C811.746 881.15 810.525 880.75 808.865 880.75C807.439 880.75 806.336 881.072 805.555 881.717C804.773 882.361 804.383 883.182 804.383 884.178C804.383 885.115 804.822 885.877 805.701 886.463C806.6 887.029 808.104 887.527 810.213 887.957C812.322 888.367 814.1 888.836 815.545 889.363C820.018 891.004 822.254 893.846 822.254 897.889C822.254 900.779 821.014 903.123 818.533 904.92C816.053 906.697 812.85 907.586 808.924 907.586C806.268 907.586 803.904 907.117 801.834 906.18C799.783 905.223 798.172 903.924 797 902.283C795.828 900.623 795.242 898.836 795.242 896.922H803.27C803.348 898.426 803.904 899.578 804.939 900.379C805.975 901.18 807.361 901.58 809.1 901.58C810.721 901.58 811.941 901.277 812.762 900.672C813.602 900.047 814.021 899.236 814.021 898.24ZM837.869 867.508V875.301H843.289V881.512H837.869V897.332C837.869 898.504 838.094 899.344 838.543 899.852C838.992 900.359 839.852 900.613 841.121 900.613C842.059 900.613 842.889 900.545 843.611 900.408V906.824C841.951 907.332 840.242 907.586 838.484 907.586C832.547 907.586 829.52 904.588 829.402 898.592V881.512H824.773V875.301H829.402V867.508H837.869ZM862.596 907.586C857.947 907.586 854.158 906.16 851.229 903.309C848.318 900.457 846.863 896.658 846.863 891.912V891.092C846.863 887.908 847.479 885.066 848.709 882.566C849.939 880.047 851.678 878.113 853.924 876.766C856.189 875.398 858.768 874.715 861.658 874.715C865.994 874.715 869.402 876.082 871.883 878.816C874.383 881.551 875.633 885.428 875.633 890.447V893.904H855.447C855.721 895.975 856.541 897.635 857.908 898.885C859.295 900.135 861.043 900.76 863.152 900.76C866.414 900.76 868.963 899.578 870.799 897.215L874.959 901.873C873.689 903.67 871.971 905.076 869.803 906.092C867.635 907.088 865.232 907.586 862.596 907.586ZM861.629 881.57C859.949 881.57 858.582 882.137 857.527 883.27C856.492 884.402 855.828 886.023 855.535 888.133H867.312V887.459C867.273 885.584 866.766 884.139 865.789 883.123C864.812 882.088 863.426 881.57 861.629 881.57ZM888.406 875.301L888.67 878.846C890.916 876.092 893.953 874.715 897.781 874.715C901.863 874.715 904.666 876.326 906.189 879.549C908.416 876.326 911.59 874.715 915.711 874.715C919.148 874.715 921.707 875.721 923.387 877.732C925.066 879.725 925.906 882.732 925.906 886.756V907H917.41V886.785C917.41 884.988 917.059 883.68 916.355 882.859C915.652 882.02 914.412 881.6 912.635 881.6C910.096 881.6 908.338 882.811 907.361 885.232L907.391 907H898.924V886.814C898.924 884.979 898.562 883.65 897.84 882.83C897.117 882.01 895.887 881.6 894.148 881.6C891.746 881.6 890.008 882.596 888.934 884.588V907H880.467V875.301H888.406Z" fill="#67C76B"/>
<path d="M384.102 958V940.383H380.879V936.867H384.102V934.934C384.102 932.59 384.753 930.78 386.055 929.504C387.357 928.228 389.18 927.59 391.523 927.59C392.357 927.59 393.242 927.707 394.18 927.941L394.062 931.652C393.542 931.548 392.936 931.496 392.246 931.496C389.98 931.496 388.848 932.661 388.848 934.992V936.867H393.145V940.383H388.848V958H384.102ZM395.723 947.238C395.723 945.168 396.133 943.306 396.953 941.652C397.773 939.986 398.926 938.71 400.41 937.824C401.895 936.926 403.6 936.477 405.527 936.477C408.379 936.477 410.69 937.395 412.461 939.23C414.245 941.066 415.208 943.501 415.352 946.535L415.371 947.648C415.371 949.732 414.967 951.594 414.16 953.234C413.366 954.875 412.22 956.145 410.723 957.043C409.238 957.941 407.52 958.391 405.566 958.391C402.585 958.391 400.195 957.401 398.398 955.422C396.615 953.43 395.723 950.78 395.723 947.473V947.238ZM400.469 947.648C400.469 949.823 400.918 951.529 401.816 952.766C402.715 953.99 403.965 954.602 405.566 954.602C407.168 954.602 408.411 953.977 409.297 952.727C410.195 951.477 410.645 949.647 410.645 947.238C410.645 945.103 410.182 943.41 409.258 942.16C408.346 940.91 407.103 940.285 405.527 940.285C403.978 940.285 402.747 940.904 401.836 942.141C400.924 943.365 400.469 945.201 400.469 947.648ZM430.449 941.203C429.824 941.099 429.18 941.047 428.516 941.047C426.341 941.047 424.876 941.88 424.121 943.547V958H419.375V936.867H423.906L424.023 939.23C425.169 937.395 426.758 936.477 428.789 936.477C429.466 936.477 430.026 936.568 430.469 936.75L430.449 941.203ZM456.035 958C455.827 957.596 455.645 956.939 455.488 956.027C453.978 957.603 452.129 958.391 449.941 958.391C447.819 958.391 446.087 957.785 444.746 956.574C443.405 955.363 442.734 953.866 442.734 952.082C442.734 949.829 443.568 948.104 445.234 946.906C446.914 945.695 449.31 945.09 452.422 945.09H455.332V943.703C455.332 942.609 455.026 941.737 454.414 941.086C453.802 940.422 452.871 940.09 451.621 940.09C450.54 940.09 449.655 940.363 448.965 940.91C448.275 941.444 447.93 942.128 447.93 942.961H443.184C443.184 941.802 443.568 940.721 444.336 939.719C445.104 938.703 446.146 937.909 447.461 937.336C448.789 936.763 450.267 936.477 451.895 936.477C454.368 936.477 456.341 937.102 457.812 938.352C459.284 939.589 460.039 941.333 460.078 943.586V953.117C460.078 955.018 460.345 956.535 460.879 957.668V958H456.035ZM450.82 954.582C451.758 954.582 452.637 954.354 453.457 953.898C454.29 953.443 454.915 952.831 455.332 952.062V948.078H452.773C451.016 948.078 449.694 948.384 448.809 948.996C447.923 949.608 447.48 950.474 447.48 951.594C447.48 952.505 447.78 953.234 448.379 953.781C448.991 954.315 449.805 954.582 450.82 954.582ZM470.098 958H465.352V936.867H470.098V958ZM465.059 931.379C465.059 930.65 465.286 930.044 465.742 929.562C466.211 929.081 466.875 928.84 467.734 928.84C468.594 928.84 469.258 929.081 469.727 929.562C470.195 930.044 470.43 930.65 470.43 931.379C470.43 932.095 470.195 932.694 469.727 933.176C469.258 933.645 468.594 933.879 467.734 933.879C466.875 933.879 466.211 933.645 465.742 933.176C465.286 932.694 465.059 932.095 465.059 931.379ZM486.348 941.203C485.723 941.099 485.078 941.047 484.414 941.047C482.24 941.047 480.775 941.88 480.02 943.547V958H475.273V936.867H479.805L479.922 939.23C481.068 937.395 482.656 936.477 484.688 936.477C485.365 936.477 485.924 936.568 486.367 936.75L486.348 941.203ZM507.988 954.602C509.173 954.602 510.156 954.257 510.938 953.566C511.719 952.876 512.135 952.023 512.188 951.008H516.66C516.608 952.323 516.198 953.553 515.43 954.699C514.661 955.832 513.62 956.73 512.305 957.395C510.99 958.059 509.57 958.391 508.047 958.391C505.091 958.391 502.747 957.434 501.016 955.52C499.284 953.605 498.418 950.962 498.418 947.59V947.102C498.418 943.885 499.277 941.314 500.996 939.387C502.715 937.447 505.059 936.477 508.027 936.477C510.54 936.477 512.585 937.212 514.16 938.684C515.749 940.142 516.582 942.062 516.66 944.445H512.188C512.135 943.234 511.719 942.238 510.938 941.457C510.169 940.676 509.186 940.285 507.988 940.285C506.452 940.285 505.267 940.845 504.434 941.965C503.6 943.072 503.177 944.758 503.164 947.023V947.785C503.164 950.077 503.574 951.789 504.395 952.922C505.228 954.042 506.426 954.602 507.988 954.602ZM532.871 958C532.663 957.596 532.48 956.939 532.324 956.027C530.814 957.603 528.965 958.391 526.777 958.391C524.655 958.391 522.923 957.785 521.582 956.574C520.241 955.363 519.57 953.866 519.57 952.082C519.57 949.829 520.404 948.104 522.07 946.906C523.75 945.695 526.146 945.09 529.258 945.09H532.168V943.703C532.168 942.609 531.862 941.737 531.25 941.086C530.638 940.422 529.707 940.09 528.457 940.09C527.376 940.09 526.491 940.363 525.801 940.91C525.111 941.444 524.766 942.128 524.766 942.961H520.02C520.02 941.802 520.404 940.721 521.172 939.719C521.94 938.703 522.982 937.909 524.297 937.336C525.625 936.763 527.103 936.477 528.73 936.477C531.204 936.477 533.177 937.102 534.648 938.352C536.12 939.589 536.875 941.333 536.914 943.586V953.117C536.914 955.018 537.181 956.535 537.715 957.668V958H532.871ZM527.656 954.582C528.594 954.582 529.473 954.354 530.293 953.898C531.126 953.443 531.751 952.831 532.168 952.062V948.078H529.609C527.852 948.078 526.53 948.384 525.645 948.996C524.759 949.608 524.316 950.474 524.316 951.594C524.316 952.505 524.616 953.234 525.215 953.781C525.827 954.315 526.641 954.582 527.656 954.582ZM552.949 941.203C552.324 941.099 551.68 941.047 551.016 941.047C548.841 941.047 547.376 941.88 546.621 943.547V958H541.875V936.867H546.406L546.523 939.23C547.669 937.395 549.258 936.477 551.289 936.477C551.966 936.477 552.526 936.568 552.969 936.75L552.949 941.203ZM554.727 947.277C554.727 943.996 555.495 941.379 557.031 939.426C558.581 937.46 560.632 936.477 563.184 936.477C565.592 936.477 567.487 937.316 568.867 938.996L569.082 936.867H573.359V957.355C573.359 960.129 572.493 962.316 570.762 963.918C569.043 965.52 566.719 966.32 563.789 966.32C562.24 966.32 560.723 965.995 559.238 965.344C557.767 964.706 556.647 963.866 555.879 962.824L558.125 959.973C559.583 961.704 561.38 962.57 563.516 962.57C565.091 962.57 566.335 962.141 567.246 961.281C568.158 960.435 568.613 959.185 568.613 957.531V956.105C567.246 957.629 565.423 958.391 563.145 958.391C560.671 958.391 558.646 957.408 557.07 955.441C555.508 953.475 554.727 950.754 554.727 947.277ZM559.453 947.688C559.453 949.81 559.883 951.483 560.742 952.707C561.615 953.918 562.819 954.523 564.355 954.523C566.27 954.523 567.689 953.703 568.613 952.062V942.766C567.715 941.164 566.309 940.363 564.395 940.363C562.832 940.363 561.615 940.982 560.742 942.219C559.883 943.456 559.453 945.279 559.453 947.688ZM577.363 947.238C577.363 945.168 577.773 943.306 578.594 941.652C579.414 939.986 580.566 938.71 582.051 937.824C583.535 936.926 585.241 936.477 587.168 936.477C590.02 936.477 592.331 937.395 594.102 939.23C595.885 941.066 596.849 943.501 596.992 946.535L597.012 947.648C597.012 949.732 596.608 951.594 595.801 953.234C595.007 954.875 593.861 956.145 592.363 957.043C590.879 957.941 589.16 958.391 587.207 958.391C584.225 958.391 581.836 957.401 580.039 955.422C578.255 953.43 577.363 950.78 577.363 947.473V947.238ZM582.109 947.648C582.109 949.823 582.559 951.529 583.457 952.766C584.355 953.99 585.605 954.602 587.207 954.602C588.809 954.602 590.052 953.977 590.938 952.727C591.836 951.477 592.285 949.647 592.285 947.238C592.285 945.103 591.823 943.41 590.898 942.16C589.987 940.91 588.743 940.285 587.168 940.285C585.618 940.285 584.388 940.904 583.477 942.141C582.565 943.365 582.109 945.201 582.109 947.648ZM629.551 951.457L632.91 936.867H637.539L631.777 958H627.871L623.34 943.488L618.887 958H614.98L609.199 936.867H613.828L617.246 951.301L621.582 936.867H625.156L629.551 951.457ZM653.34 958C653.132 957.596 652.949 956.939 652.793 956.027C651.283 957.603 649.434 958.391 647.246 958.391C645.124 958.391 643.392 957.785 642.051 956.574C640.71 955.363 640.039 953.866 640.039 952.082C640.039 949.829 640.872 948.104 642.539 946.906C644.219 945.695 646.615 945.09 649.727 945.09H652.637V943.703C652.637 942.609 652.331 941.737 651.719 941.086C651.107 940.422 650.176 940.09 648.926 940.09C647.845 940.09 646.96 940.363 646.27 940.91C645.579 941.444 645.234 942.128 645.234 942.961H640.488C640.488 941.802 640.872 940.721 641.641 939.719C642.409 938.703 643.451 937.909 644.766 937.336C646.094 936.763 647.572 936.477 649.199 936.477C651.673 936.477 653.646 937.102 655.117 938.352C656.589 939.589 657.344 941.333 657.383 943.586V953.117C657.383 955.018 657.65 956.535 658.184 957.668V958H653.34ZM648.125 954.582C649.062 954.582 649.941 954.354 650.762 953.898C651.595 953.443 652.22 952.831 652.637 952.062V948.078H650.078C648.32 948.078 646.999 948.384 646.113 948.996C645.228 949.608 644.785 950.474 644.785 951.594C644.785 952.505 645.085 953.234 645.684 953.781C646.296 954.315 647.109 954.582 648.125 954.582ZM673.418 941.203C672.793 941.099 672.148 941.047 671.484 941.047C669.31 941.047 667.845 941.88 667.09 943.547V958H662.344V936.867H666.875L666.992 939.23C668.138 937.395 669.727 936.477 671.758 936.477C672.435 936.477 672.995 936.568 673.438 936.75L673.418 941.203ZM685.332 958.391C682.324 958.391 679.883 957.447 678.008 955.559C676.146 953.658 675.215 951.132 675.215 947.98V947.395C675.215 945.285 675.618 943.404 676.426 941.75C677.246 940.083 678.392 938.788 679.863 937.863C681.335 936.939 682.975 936.477 684.785 936.477C687.663 936.477 689.883 937.395 691.445 939.23C693.021 941.066 693.809 943.664 693.809 947.023V948.938H680C680.143 950.682 680.723 952.062 681.738 953.078C682.767 954.094 684.056 954.602 685.605 954.602C687.78 954.602 689.551 953.723 690.918 951.965L693.477 954.406C692.63 955.669 691.497 956.652 690.078 957.355C688.672 958.046 687.09 958.391 685.332 958.391ZM684.766 940.285C683.464 940.285 682.409 940.741 681.602 941.652C680.807 942.564 680.299 943.833 680.078 945.461H689.121V945.109C689.017 943.521 688.594 942.323 687.852 941.516C687.109 940.695 686.081 940.285 684.766 940.285ZM702.188 939.172C703.737 937.375 705.697 936.477 708.066 936.477C712.572 936.477 714.857 939.048 714.922 944.191V958H710.176V944.367C710.176 942.909 709.857 941.88 709.219 941.281C708.594 940.669 707.669 940.363 706.445 940.363C704.544 940.363 703.125 941.21 702.188 942.902V958H697.441V928H702.188V939.172ZM718.848 947.238C718.848 945.168 719.258 943.306 720.078 941.652C720.898 939.986 722.051 938.71 723.535 937.824C725.02 936.926 726.725 936.477 728.652 936.477C731.504 936.477 733.815 937.395 735.586 939.23C737.37 941.066 738.333 943.501 738.477 946.535L738.496 947.648C738.496 949.732 738.092 951.594 737.285 953.234C736.491 954.875 735.345 956.145 733.848 957.043C732.363 957.941 730.645 958.391 728.691 958.391C725.71 958.391 723.32 957.401 721.523 955.422C719.74 953.43 718.848 950.78 718.848 947.473V947.238ZM723.594 947.648C723.594 949.823 724.043 951.529 724.941 952.766C725.84 953.99 727.09 954.602 728.691 954.602C730.293 954.602 731.536 953.977 732.422 952.727C733.32 951.477 733.77 949.647 733.77 947.238C733.77 945.103 733.307 943.41 732.383 942.16C731.471 940.91 730.228 940.285 728.652 940.285C727.103 940.285 725.872 940.904 724.961 942.141C724.049 943.365 723.594 945.201 723.594 947.648ZM755.312 955.93C753.919 957.57 751.94 958.391 749.375 958.391C747.083 958.391 745.345 957.72 744.16 956.379C742.988 955.038 742.402 953.098 742.402 950.559V936.867H747.148V950.5C747.148 953.182 748.262 954.523 750.488 954.523C752.793 954.523 754.349 953.697 755.156 952.043V936.867H759.902V958H755.43L755.312 955.93ZM776.582 952.258C776.582 951.411 776.23 950.767 775.527 950.324C774.837 949.882 773.685 949.491 772.07 949.152C770.456 948.814 769.108 948.384 768.027 947.863C765.658 946.717 764.473 945.057 764.473 942.883C764.473 941.06 765.241 939.536 766.777 938.312C768.314 937.089 770.267 936.477 772.637 936.477C775.163 936.477 777.201 937.102 778.75 938.352C780.312 939.602 781.094 941.223 781.094 943.215H776.348C776.348 942.303 776.009 941.548 775.332 940.949C774.655 940.337 773.757 940.031 772.637 940.031C771.595 940.031 770.742 940.272 770.078 940.754C769.427 941.236 769.102 941.88 769.102 942.688C769.102 943.417 769.408 943.983 770.02 944.387C770.632 944.79 771.868 945.201 773.73 945.617C775.592 946.021 777.051 946.509 778.105 947.082C779.173 947.642 779.961 948.319 780.469 949.113C780.99 949.908 781.25 950.871 781.25 952.004C781.25 953.905 780.462 955.448 778.887 956.633C777.311 957.805 775.247 958.391 772.695 958.391C770.964 958.391 769.421 958.078 768.066 957.453C766.712 956.828 765.658 955.969 764.902 954.875C764.147 953.781 763.77 952.603 763.77 951.34H768.379C768.444 952.46 768.867 953.326 769.648 953.938C770.43 954.536 771.465 954.836 772.754 954.836C774.004 954.836 774.954 954.602 775.605 954.133C776.257 953.651 776.582 953.026 776.582 952.258ZM794.707 958.391C791.699 958.391 789.258 957.447 787.383 955.559C785.521 953.658 784.59 951.132 784.59 947.98V947.395C784.59 945.285 784.993 943.404 785.801 941.75C786.621 940.083 787.767 938.788 789.238 937.863C790.71 936.939 792.35 936.477 794.16 936.477C797.038 936.477 799.258 937.395 800.82 939.23C802.396 941.066 803.184 943.664 803.184 947.023V948.938H789.375C789.518 950.682 790.098 952.062 791.113 953.078C792.142 954.094 793.431 954.602 794.98 954.602C797.155 954.602 798.926 953.723 800.293 951.965L802.852 954.406C802.005 955.669 800.872 956.652 799.453 957.355C798.047 958.046 796.465 958.391 794.707 958.391ZM794.141 940.285C792.839 940.285 791.784 940.741 790.977 941.652C790.182 942.564 789.674 943.833 789.453 945.461H798.496V945.109C798.392 943.521 797.969 942.323 797.227 941.516C796.484 940.695 795.456 940.285 794.141 940.285Z" fill="#67C76B"/>
<defs>
<linearGradient id="paint0_linear" x1="877.83" y1="775.06" x2="877.83" y2="291.92" gradientUnits="userSpaceOnUse">
<stop stop-color="#808080" stop-opacity="0.25"/>
<stop offset="0.54" stop-color="#808080" stop-opacity="0.12"/>
<stop offset="1" stop-color="#808080" stop-opacity="0.1"/>
</linearGradient>
<clipPath id="clip0">
<rect width="82" height="82" fill="white" transform="translate(137 147)"/>
</clipPath>
<clipPath id="clip1">
<rect width="99" height="79" fill="white" transform="translate(748 54)"/>
</clipPath>
</defs>
</svg>
