<svg width="1178" height="726" viewBox="0 0 1178 726" fill="none" xmlns="http://www.w3.org/2000/svg">
<g clip-path="url(#clip0)">
<path opacity="0.1" d="M1177.82 465.31C1177.84 484.939 1175.47 504.496 1170.75 523.55C1169.16 529.963 1167.32 536.25 1165.22 542.41C1162.65 550.004 1159.67 557.455 1156.3 564.73C1154.6 568.403 1152.8 572.01 1150.91 575.55C1150.94 595.678 1146.8 615.594 1138.74 634.04C1124.17 667.131 1098.2 693.888 1065.56 709.44C1045.12 719.188 1022.79 724.309 1000.15 724.44H223.59C189.037 724.517 155.079 715.443 125.17 698.14C120.75 695.58 116.443 692.853 112.25 689.96C103.145 683.67 94.591 676.618 86.68 668.88C75.9699 658.404 66.5346 646.7 58.57 634.01C39.8579 604.298 29.9452 569.893 29.98 534.78C11.03 501.53 -0.0200195 461.7 -0.0200195 418.9C-0.0200195 364.9 17.54 315.64 46.39 278.35C52.4047 270.559 58.993 263.229 66.1 256.42C73.1123 249.682 80.6494 243.513 88.64 237.97C95.0307 233.527 101.712 229.518 108.64 225.97C111.53 224.49 114.43 223.11 117.38 221.82C119.97 220.67 122.59 219.6 125.24 218.59C128.42 217.377 131.64 216.267 134.9 215.26C138.16 214.253 141.377 213.367 144.55 212.6C149.217 211.46 153.963 210.533 158.79 209.82C162.79 209.23 166.79 208.82 170.79 208.5C173.97 208.273 177.177 208.14 180.41 208.1H182.16C185.72 208.1 189.26 208.24 192.77 208.48C193.14 207.74 193.54 206.99 193.91 206.25C195.31 203.59 196.76 200.93 198.22 198.32V198.25C198.47 197.8 198.72 197.35 198.98 196.91C200.16 194.78 201.39 192.67 202.65 190.58C203.23 189.58 203.8 188.64 204.39 187.69C204.52 187.46 204.65 187.24 204.8 187.01C205.4 186.01 206.01 185.01 206.63 184.01C209.717 179.083 212.927 174.233 216.26 169.46C216.55 169.05 216.82 168.65 217.11 168.25C217.63 167.51 218.11 166.78 218.69 166.05C220.07 164.12 221.49 162.18 222.92 160.27C223.92 158.92 224.92 157.57 226 156.27C228.6 152.91 231.27 149.57 234 146.27C236.73 142.97 239.61 139.65 242.52 136.4C242.92 135.95 243.32 135.51 243.74 135.06L248.01 130.41C248.22 130.19 248.4 129.99 248.6 129.79C249.11 129.24 249.6 128.69 250.15 128.15C252.44 125.73 254.79 123.34 257.15 120.98C269.205 109.002 282.046 97.8441 295.59 87.5801C296.12 87.1601 296.66 86.7601 297.19 86.3601C299.73 84.4401 302.31 82.5501 304.89 80.6901C319.083 70.5131 333.917 61.2606 349.3 52.9901C350.36 52.3901 351.44 51.8201 352.53 51.2501C366.325 43.9573 380.509 37.4274 395.02 31.6901C402.927 28.5634 410.973 25.6434 419.16 22.9301C424.58 21.1601 430.02 19.4701 435.53 17.9301C444.05 15.4834 452.677 13.2767 461.41 11.3101C487.139 5.53691 513.314 1.97063 539.65 0.650058C547.65 0.230058 555.74 0.0200608 563.92 0.0200608C603.39 -0.0321931 642.706 4.94112 680.92 14.8201C681.315 15.4171 681.856 15.9039 682.491 16.2345C683.126 16.5652 683.834 16.7288 684.55 16.7101H687.91C689.37 17.1001 690.82 17.5101 692.28 17.9301C700.433 20.2834 708.47 22.8467 716.39 25.6201L718.39 26.3401C737.938 33.2909 756.957 41.646 775.3 51.3401C791.833 60.0613 807.753 69.8973 822.95 80.7801C825.29 82.4601 827.597 84.1567 829.87 85.87C832.63 84.09 835.437 82.3934 838.29 80.7801C849.309 74.5076 861.013 69.5216 873.17 65.9201C898.588 58.3982 925.482 57.3464 951.41 62.8601C984.66 69.9101 1014.76 87.4101 1039.07 112.3C1048.97 122.451 1057.79 133.604 1065.39 145.58C1065.94 146.44 1066.49 147.31 1067.02 148.19C1073.54 158.825 1079.14 169.996 1083.76 181.58C1083.93 182 1084.1 182.41 1084.25 182.83C1088.52 193.671 1091.96 204.82 1094.55 216.18C1094.67 216.75 1094.81 217.33 1094.93 217.91C1097.35 228.904 1098.99 240.055 1099.85 251.28C1099.85 251.68 1099.85 252.09 1099.93 252.5C1100.35 258.307 1100.56 264.177 1100.57 270.11C1100.57 275.41 1100.39 280.67 1100.06 285.88C1100.06 286.45 1099.98 287.05 1099.93 287.63C1099.84 289.15 1099.71 290.63 1099.58 292.16C1107.22 298.317 1114.37 305.057 1120.96 312.32C1123.87 315.5 1126.69 318.803 1129.42 322.23C1137.73 332.638 1145.03 343.811 1151.22 355.6C1168.1 387.58 1177.82 425.12 1177.82 465.31Z" fill="#67C76B"/>
<path opacity="0.1" d="M1064.82 662.14C1064.82 684.87 1041.26 706.14 1000.15 724.46H223.59C187.66 724.46 154.01 711.46 125.17 688.79C117.92 680.19 114.1 671.28 114.1 662.13C114.1 637.97 140.74 615.42 186.8 596.36L188.1 595.84C201.1 590.51 215.63 585.48 231.51 580.75C231.91 580.63 232.32 580.52 232.72 580.38C245.32 576.68 258.723 573.173 272.93 569.86C273.38 569.76 273.82 569.65 274.27 569.57C279.75 568.27 285.34 567.06 291.05 565.85L293.25 565.39C334.8 556.77 382.03 549.93 433.25 545.29H433.31C440.483 544.623 447.733 544.027 455.06 543.5C463.21 542.85 471.46 542.3 479.8 541.79C486.17 541.38 492.62 541.03 499.09 540.71C499.114 540.7 499.139 540.695 499.165 540.695C499.191 540.695 499.216 540.7 499.24 540.71C528.43 539.24 558.59 538.47 589.43 538.47C665.69 538.47 737.77 543.15 801.64 551.47C801.7 551.46 801.76 551.46 801.82 551.47C811.64 552.75 821.28 554.1 830.68 555.54C833.37 555.96 836.05 556.38 838.68 556.81C849.287 558.523 859.62 560.333 869.68 562.24C987.98 584.73 1064.82 621.12 1064.82 662.14Z" fill="#67C76B"/>
<path d="M871.5 243.28C871.5 243.28 860.92 238.99 827.26 254.42C793.6 269.85 789.4 267.9 780.69 265.58C771.98 263.26 767.12 262.66 757.78 249.77C757.78 249.77 751.19 214.06 744.78 208.52C738.37 202.98 711.31 211.68 711.31 211.68C711.31 211.68 678.82 219.13 672.63 175.68C672.63 175.68 677.02 142.96 671.04 132.92C671.04 132.92 683.12 138.12 703.04 129.72C722.96 121.32 738.91 138.77 738.91 138.77C738.91 138.77 743.91 151.77 743.41 159.53C742.91 167.29 746.07 170.2 755.57 166.45C755.57 166.45 760.24 159.81 753.63 148.83C747.02 137.85 742.3 129.68 744.14 121.16C745.98 112.64 751.29 100.81 768.34 94.9C785.39 88.99 808.54 87.9 819.65 83.23C830.76 78.56 833.5 75.58 833.5 75.58C833.5 75.58 826.66 82.43 842.77 111.48C858.88 140.53 848.61 153.13 848.61 153.13C848.61 153.13 840.04 173.56 802.2 171.9C802.2 171.9 765.74 173.23 785.62 188.69C785.62 188.69 798.35 186.1 817.38 180.05C836.41 174 850.15 198.97 853.56 216.34C856.97 233.71 871.5 243.28 871.5 243.28Z" fill="#67C76B"/>
<path d="M822.49 97.58L822.69 97.52C824.15 103.06 807.86 125.34 793.93 143.05L793.77 142.92C813.41 117.98 823.62 101.87 822.49 97.58Z" fill="#444053"/>
<path d="M794.05 142.58L794.14 142.8C783.01 156.94 769.02 173.8 757.82 186.33C756.75 187.52 755.69 188.77 754.67 190.05L754.35 189.79C755.35 188.51 756.44 187.25 757.51 186.06C768.7 173.58 782.91 156.73 794.05 142.58Z" fill="#444053"/>
<path d="M754.62 189.47L754.84 189.85C734.46 215.3 733.11 254.85 733.06 255.16L728.76 250.16C728.81 249.84 734.1 215.1 754.62 189.47Z" fill="#444053"/>
<path d="M847.91 229.48C847.91 229.48 823.91 216.98 805.15 221.48C786.39 225.98 744.2 205.58 744.2 205.58C744.2 205.58 726.3 198.31 722.7 190.02C722.7 190.02 710.41 177.02 709.7 170.31C708.99 163.6 697.04 146.69 689.24 146.04" stroke="#444053" stroke-miterlimit="10"/>
<path d="M844.38 241.51C844.38 241.51 832.28 233.35 833.69 223.85" stroke="#444053" stroke-miterlimit="10"/>
<path d="M825.82 252.04C825.82 252.04 808.51 245.76 806.82 221.12" stroke="#444053" stroke-miterlimit="10"/>
<path d="M797.91 258.42C797.91 258.42 781.37 244.7 786.86 220.72" stroke="#444053" stroke-miterlimit="10"/>
<path d="M764.32 251.72C764.32 251.72 753.32 228.62 763.11 213.59" stroke="#444053" stroke-miterlimit="10"/>
<path d="M848.14 214.25C848.14 214.25 835.63 218.25 838.31 224.81" stroke="#444053" stroke-miterlimit="10"/>
<path d="M833.04 191.58C833.04 191.58 816.29 196.89 815.9 220.58" stroke="#444053" stroke-miterlimit="10"/>
<path d="M809.68 186.06C809.68 186.06 794.43 204.88 795.55 221.98" stroke="#444053" stroke-miterlimit="10"/>
<path d="M782.98 193.44C782.98 193.44 767.84 207.92 769.77 215.97" stroke="#444053" stroke-miterlimit="10"/>
<path d="M773.85 188.33C773.85 188.33 759.65 190.87 757.66 186.21" stroke="#444053" stroke-miterlimit="10"/>
<path d="M755.4 171.19C755.4 171.19 762.57 180.69 764.4 178.56" stroke="#444053" stroke-miterlimit="10"/>
<path d="M826.52 165.18C826.52 165.18 790.72 167.78 782.62 156.98" stroke="#444053" stroke-miterlimit="10"/>
<path d="M747.91 123.31C747.91 123.31 764.7 159.36 776.91 163.95" stroke="#444053" stroke-miterlimit="10"/>
<path d="M765.49 106.14C765.49 106.14 775.8 139.3 788.58 149.65" stroke="#444053" stroke-miterlimit="10"/>
<path d="M841.58 137.81C841.58 137.81 814.36 149.49 798.02 137.67" stroke="#444053" stroke-width="0.75" stroke-miterlimit="10"/>
<path d="M789.73 99.07C789.73 99.07 795.95 123.44 804.33 129.33" stroke="#444053" stroke-width="0.75" stroke-miterlimit="10"/>
<path d="M837.47 110.5C837.47 110.5 822.17 116.3 816.47 111.86" stroke="#444053" stroke-width="0.75" stroke-miterlimit="10"/>
<path d="M742.29 179.15C742.29 179.15 742.29 200.4 736.51 201.91" stroke="#444053" stroke-miterlimit="10"/>
<path d="M695 206.68C695 206.68 718 208.68 728.57 196.79" stroke="#444053" stroke-miterlimit="10"/>
<path d="M736.37 154.05C736.37 154.05 730.81 175.6 715.47 181.41" stroke="#444053" stroke-miterlimit="10"/>
<path d="M681.22 183.98C681.22 183.98 697.48 189.63 711.47 175.24" stroke="#444053" stroke-miterlimit="10"/>
<path d="M718.28 135.52C718.28 135.52 716.75 153.82 706.8 162.39" stroke="#444053" stroke-miterlimit="10"/>
<path d="M681.84 156.09C681.84 156.09 695.33 156.18 698.49 151.78" stroke="#444053" stroke-miterlimit="10"/>
<path d="M779.41 225.58H395.21V419.52H779.41V225.58Z" fill="#33323D"/>
<path d="M900.31 478.44H275.53V606.1H900.31V478.44Z" fill="#33323D"/>
<path d="M424.67 510.35H745.04L808.87 725.16H357.16L424.67 510.35Z" fill="white"/>
<path d="M257.73 402.33V468.62V482.58V606.09H377.41V488.26H798.43V606.09H918.11V482.58V468.62V402.33H257.73Z" fill="#FDBD57"/>
<path opacity="0.1" d="M918.11 402.33H257.73V468.61H918.11V402.33Z" fill="#33323D"/>
<path opacity="0.8" d="M882.52 445.3C887.943 445.3 892.34 440.903 892.34 435.48C892.34 430.057 887.943 425.66 882.52 425.66C877.097 425.66 872.7 430.057 872.7 435.48C872.7 440.903 877.097 445.3 882.52 445.3Z" fill="#8CCF4D"/>
<path opacity="0.8" d="M838.33 445.3C843.753 445.3 848.15 440.903 848.15 435.48C848.15 430.057 843.753 425.66 838.33 425.66C832.907 425.66 828.51 430.057 828.51 435.48C828.51 440.903 832.907 445.3 838.33 445.3Z" fill="#FA5959"/>
<path d="M765.3 178.93H409.33V390.05H765.3V178.93Z" fill="white"/>
<path d="M819.45 487.07C820.2 495.24 814.03 503.17 815.83 511.17C816.21 512.88 816.95 514.5 817.22 516.17C817.96 520.92 815.13 525.42 812.42 529.4L789.19 563.58C788.258 565.079 787.143 566.457 785.87 567.68C781.42 571.68 774.76 571.22 768.93 572.4C764.831 573.231 760.96 574.936 757.58 577.4C757.433 577.517 757.335 577.685 757.308 577.87C757.28 578.056 757.323 578.245 757.43 578.4C758.391 579.718 759.667 580.775 761.141 581.474C762.615 582.173 764.241 582.491 765.87 582.4C766.48 583.2 765.87 584.4 765.03 584.96C763.78 585.82 762.03 586.05 761.82 588.17C761.732 588.906 761.879 589.652 762.24 590.3C763.18 591.732 764.639 592.743 766.31 593.12C774.31 595.58 783.04 591.26 789.06 585.38C795.08 579.5 799.4 572.08 805.31 566.09C808.58 562.78 812.31 559.94 815.67 556.73C822.39 550.33 827.67 542.54 832.67 534.73C834.321 532.465 835.566 529.931 836.35 527.24C836.97 524.58 836.69 521.77 837.41 519.13C838.35 515.68 840.88 512.93 842.98 510.03C847.11 504.35 849.86 497.41 849.31 490.41C848.76 483.41 844.44 476.52 837.84 474.14C835.794 473.325 833.54 473.188 831.41 473.75C828.7 474.58 826.71 476.82 824.86 478.96L820.45 484.05C819.351 485.177 818.478 486.504 817.88 487.96C817.596 488.694 817.531 489.494 817.692 490.265C817.854 491.035 818.235 491.742 818.79 492.3" fill="#FBBEBE"/>
<path opacity="0.05" d="M819.45 487.07C820.2 495.24 814.03 503.17 815.83 511.17C816.21 512.88 816.95 514.5 817.22 516.17C817.96 520.92 815.13 525.42 812.42 529.4L789.19 563.58C788.258 565.079 787.143 566.457 785.87 567.68C781.42 571.68 774.76 571.22 768.93 572.4C764.831 573.231 760.96 574.936 757.58 577.4C757.433 577.517 757.335 577.685 757.308 577.87C757.28 578.056 757.323 578.245 757.43 578.4C758.391 579.718 759.667 580.775 761.141 581.474C762.615 582.173 764.241 582.491 765.87 582.4C766.48 583.2 765.87 584.4 765.03 584.96C763.78 585.82 762.03 586.05 761.82 588.17C761.732 588.906 761.879 589.652 762.24 590.3C763.18 591.732 764.639 592.743 766.31 593.12C774.31 595.58 783.04 591.26 789.06 585.38C795.08 579.5 799.4 572.08 805.31 566.09C808.58 562.78 812.31 559.94 815.67 556.73C822.39 550.33 827.67 542.54 832.67 534.73C834.321 532.465 835.566 529.931 836.35 527.24C836.97 524.58 836.69 521.77 837.41 519.13C838.35 515.68 840.88 512.93 842.98 510.03C847.11 504.35 849.86 497.41 849.31 490.41C848.76 483.41 844.44 476.52 837.84 474.14C835.794 473.325 833.54 473.188 831.41 473.75C828.7 474.58 826.71 476.82 824.86 478.96L820.45 484.05C819.351 485.177 818.478 486.504 817.88 487.96C817.596 488.694 817.531 489.494 817.692 490.265C817.854 491.035 818.235 491.742 818.79 492.3" fill="black"/>
<path d="M837.04 697.36C831.96 700.45 825.64 700.65 819.74 699.92C818.74 699.81 817.67 699.74 817.06 700.47C816.18 701.54 817.22 703.1 818.29 703.96C821.776 706.569 825.867 708.252 830.18 708.85C834.03 709.387 837.913 709.644 841.8 709.62C852.4 709.8 863.06 709.98 873.56 708.45C874.166 708.405 874.756 708.231 875.29 707.94C875.968 707.467 876.437 706.75 876.6 705.94C877.33 703.22 875.94 700.28 873.85 698.39C871.76 696.5 869.07 695.44 866.44 694.39L857.22 690.8C855.05 689.95 851.58 687.72 849.22 687.89C844.91 688.24 840.7 695.22 837.04 697.36Z" fill="#3F3D56"/>
<path opacity="0.05" d="M837.04 697.36C831.96 700.45 825.64 700.65 819.74 699.92C818.74 699.81 817.67 699.74 817.06 700.47C816.18 701.54 817.22 703.1 818.29 703.96C821.776 706.569 825.867 708.252 830.18 708.85C834.03 709.387 837.913 709.644 841.8 709.62C852.4 709.8 863.06 709.98 873.56 708.45C874.166 708.405 874.756 708.231 875.29 707.94C875.968 707.467 876.437 706.75 876.6 705.94C877.33 703.22 875.94 700.28 873.85 698.39C871.76 696.5 869.07 695.44 866.44 694.39L857.22 690.8C855.05 689.95 851.58 687.72 849.22 687.89C844.91 688.24 840.7 695.22 837.04 697.36Z" fill="black"/>
<path d="M843.47 574.91C839.64 580.02 835.66 585.91 836.61 592.24C837.12 595.65 839.03 598.66 840.43 601.81C842.183 606.144 843.479 610.648 844.3 615.25C845.74 621.94 847.18 628.65 848.06 635.44C849.06 643.11 844.36 665.3 843.92 673.03C843.81 674.89 843.6 676.91 842.3 678.25C841.79 678.78 841.11 679.25 840.89 679.9C840.75 680.562 840.857 681.252 841.19 681.84C843.36 686.73 847.79 690.36 852.71 692.44C857.63 694.52 869.6 698.09 874.94 698.28C875.649 698.366 876.368 698.269 877.03 698C877.751 697.569 878.318 696.921 878.65 696.15C882.51 688.78 878.8 662.54 878.86 654.21C878.86 647.21 880.55 640.37 880.25 633.43C880 627.86 878.51 622.43 877.97 616.87C877.08 607.76 878.75 598.62 880.43 589.62C881.71 582.73 882.99 575.83 884.63 569.01C885.63 564.86 886.79 560.66 889.08 557.01C890.89 554.14 893.35 551.75 895.42 549.01C901.157 541.49 903.704 532.013 902.51 522.63C902.39 521.71 889.19 525.98 888.04 526.48C883.303 528.494 878.944 531.301 875.15 534.78C872.15 537.68 869.7 541.57 867.02 544.83C863.24 549.43 859.51 554.067 855.83 558.74C851.65 564.107 847.53 569.497 843.47 574.91Z" fill="#464353"/>
<path d="M800.78 462.4C812.671 462.4 822.31 452.761 822.31 440.87C822.31 428.979 812.671 419.34 800.78 419.34C788.889 419.34 779.25 428.979 779.25 440.87C779.25 452.761 788.889 462.4 800.78 462.4Z" fill="#FBBEBE"/>
<path d="M820.16 439.97C822.148 443.145 824.755 445.888 827.825 448.035C830.895 450.183 834.365 451.691 838.03 452.47L836.41 458.34C833.61 468.47 830.41 479.18 822.64 486.2C823.49 482.77 822.39 479.08 820.45 476.13C818.375 473.26 815.915 470.689 813.14 468.49L800.75 457.71C800.381 457.437 800.065 457.098 799.82 456.71C799.52 455.952 799.52 455.108 799.82 454.35C801.4 449.44 805.91 446.35 809.56 443.05C811.396 441.33 813.039 439.416 814.46 437.34C817 433.81 818.53 437.34 820.16 439.97Z" fill="#FBBEBE"/>
<path d="M772.41 419.23L771.93 415.23C775.33 416.11 778.55 413.23 780.72 410.23C782.89 407.23 784.91 403.71 788.22 402.47C792.22 400.95 796.5 403.38 800.34 405.38C804.645 407.776 809.371 409.321 814.26 409.93C815.04 409.956 815.813 410.084 816.56 410.31C819.06 411.2 820.25 414.31 820.61 417.18C820.97 420.05 820.87 423.05 822.11 425.59C823.04 427.51 824.65 428.94 825.63 430.83C828.26 435.93 825.72 442.89 828.5 447.89L821.6 441.56C820.96 440.98 820.07 440.38 819.38 440.87C818.69 441.36 818.79 442.1 818.56 442.77C817.89 444.77 815.44 445.33 813.65 444.56C811.86 443.79 810.57 442.09 809.26 440.56C806.21 436.96 802.58 433.8 798.26 432.26C796.39 431.543 794.389 431.234 792.39 431.353C790.392 431.472 788.441 432.016 786.67 432.95C783.45 434.77 781.09 439.01 777.15 439.16C771.74 439.36 769.49 429.29 766.98 425.31C767.894 424.618 768.536 423.628 768.796 422.512C769.055 421.396 768.915 420.224 768.4 419.2C768.84 419.03 772.34 418.58 772.41 419.23Z" fill="#464353"/>
<path d="M862.15 697.19C857.895 700.984 852.371 703.043 846.67 702.96C845.22 702.96 843.21 703.24 843.2 704.69C843.225 705.121 843.371 705.537 843.62 705.89C845.426 708.89 848.274 711.119 851.62 712.15C854.72 713.09 858.04 712.93 861.28 712.77L870.73 712.28C872.51 712.18 874.3 712.09 876.08 711.87C877.86 711.65 879.78 711.28 881.64 711.01C886.196 710.359 890.803 710.141 895.4 710.36C896.62 710.41 898.03 710.36 898.79 709.44C899.55 708.52 899.14 706.86 898.86 705.53C898.3 702.79 898.86 699.92 898.34 697.17C897.43 692.34 893.28 688.65 888.7 686.9C884.45 685.28 876.91 683.43 872.88 686.12C868.56 689.02 865.96 693.74 862.15 697.19Z" fill="#3F3D56"/>
<path d="M871.51 535.58C872.35 539.58 876.18 542.58 876.3 546.58C876.39 549.82 874.07 552.58 872.41 555.33C870.824 558.211 869.486 561.222 868.41 564.33C865.254 572.397 861.343 580.148 856.73 587.48C854.51 590.99 852.03 594.81 852.54 598.94C852.889 600.867 853.566 602.721 854.54 604.42L861.19 617.63C862.651 620.269 863.792 623.072 864.59 625.98C865.16 628.49 865.22 631.09 865.59 633.65C866.64 641.75 870.44 649.91 868.2 657.76C868 658.44 867.3 659.26 866.77 658.76C868.96 662.86 870.77 667 870.56 671.65C870.47 674.09 869.72 676.65 870.63 678.91C871.145 679.79 871.485 680.761 871.63 681.77C871.63 682.43 871.32 683.06 871.25 683.77C871.07 685.64 872.78 687.2 874.57 687.77C876.36 688.34 878.29 688.32 880.09 688.86C883.56 689.86 886.02 692.86 888.99 694.94C891.998 697.026 895.551 698.184 899.21 698.27C899.729 698.325 900.252 698.221 900.71 697.97C900.972 697.742 901.183 697.461 901.328 697.146C901.472 696.83 901.548 696.487 901.55 696.14C901.71 694.484 901.459 692.814 900.821 691.278C900.182 689.741 899.176 688.386 897.89 687.33C897.331 686.974 896.868 686.486 896.54 685.91C896.371 685.398 896.327 684.853 896.41 684.32C896.95 677.05 896.82 669.746 896.02 662.5C895.659 660.205 895.542 657.879 895.67 655.56C895.87 653.63 896.45 651.71 896.23 649.78C896.01 647.85 895.04 646.11 894.46 644.25C893.46 640.95 893.72 637.41 893.61 633.95C893.43 627.95 892.06 622.07 890.69 616.23C890.16 613.94 889.56 611.53 887.93 609.83C886.55 608.39 884.32 607 884.84 605.08C885.124 604.369 885.553 603.725 886.1 603.19C886.745 602.384 887.219 601.454 887.492 600.459C887.765 599.463 887.833 598.423 887.69 597.4C888.275 597.556 888.896 597.501 889.444 597.245C889.993 596.989 890.434 596.548 890.69 596C901.5 590.91 910.24 580.71 914.09 569.39C914.306 568.555 914.643 567.757 915.09 567.02C916.09 565.62 917.83 565.02 919.37 564.24C924.21 561.81 927.56 557.24 930.63 552.77C932.42 550.17 934.2 547.49 934.97 544.44C935.391 542.468 935.592 540.456 935.57 538.44L935.84 528.02C935.894 527.347 935.827 526.669 935.64 526.02C935.385 525.398 935.004 524.836 934.52 524.37C931.588 521.247 927.733 519.145 923.52 518.37C920.68 517.86 917.78 517.96 914.91 517.72C909.34 517.26 903.84 515.54 898.27 515.94C889.51 516.58 881.72 522.65 877.59 530.4C876.14 533.17 874.62 535.58 871.51 535.58Z" fill="#375438"/>
<path d="M822.91 467.82C823.037 469.427 822.822 471.042 822.28 472.56C821.6 474.02 819.88 475.15 818.39 474.56C818.84 473.56 817.64 472.37 816.53 472.5C815.981 472.622 815.47 472.876 815.041 473.241C814.613 473.605 814.279 474.068 814.07 474.59C813.324 476.076 813.075 477.762 813.36 479.4C813.71 481.4 814.89 483.4 814.58 485.4C814.33 487.1 813.08 488.8 813.75 490.4C814.181 491.119 814.721 491.767 815.35 492.32C816.229 493.398 816.66 494.772 816.554 496.159C816.448 497.546 815.813 498.838 814.78 499.77L831.56 500.1C830.95 502.91 832.2 505.78 833.64 508.27C837.67 515.114 843.229 520.932 849.882 525.269C856.535 529.606 864.102 532.345 871.99 533.27C871.564 533.521 871.2 533.864 870.922 534.273C870.644 534.682 870.461 535.148 870.384 535.636C870.308 536.125 870.34 536.624 870.48 537.098C870.619 537.573 870.862 538.01 871.19 538.38C872.55 539.73 874.86 539.56 876.57 538.68C878.28 537.8 879.63 536.35 881.19 535.23C883.942 533.269 887.305 532.361 890.67 532.67C892.77 532.87 894.81 533.55 896.92 533.67C903.14 534 908.48 529.53 914.43 527.67C918.79 526.33 923.72 526.33 927.43 523.61C929.01 522.44 930.3 520.52 929.84 518.61C929.45 517.514 928.833 516.512 928.03 515.67C925.92 512.95 924.68 509.67 923.18 506.58C920.188 500.456 916.074 494.947 911.05 490.34C907.266 487.023 903.256 483.972 899.05 481.21C898.026 480.446 896.935 479.777 895.79 479.21C894.263 478.712 892.772 478.108 891.33 477.4C889.33 476.16 888.22 473.97 886.71 472.2C883.38 468.32 878.27 466.53 874.17 463.48C871.42 461.48 869 458.74 865.71 457.75C864.12 457.27 862.42 457.23 860.82 456.75C857.2 455.65 854.56 452.43 851 451.13C848.18 450.13 845.08 450.37 842.1 450C838.822 449.593 835.69 448.403 832.97 446.53C832.067 445.802 831.054 445.222 829.97 444.81C825.48 443.44 825.11 451.81 824.69 454.72C824.02 459.17 822.91 463.45 822.91 467.82Z" fill="#67C76B"/>
<path d="M827.29 495.92C828.04 504.09 821.87 512.01 823.67 520.02C824.05 521.73 824.79 523.35 825.06 525.02C825.81 529.77 822.97 534.27 820.26 538.24L797.03 572.34C796.098 573.839 794.983 575.217 793.71 576.44C789.26 580.44 782.6 579.98 776.77 581.16C772.672 581.993 768.801 583.698 765.42 586.16C765.273 586.277 765.175 586.445 765.148 586.63C765.12 586.816 765.163 587.005 765.27 587.16C766.229 588.48 767.505 589.539 768.979 590.238C770.454 590.937 772.081 591.254 773.71 591.16C774.32 591.97 773.71 593.16 772.87 593.72C771.62 594.59 769.87 594.82 769.66 596.94C769.572 597.676 769.719 598.422 770.08 599.07C771.023 600.499 772.481 601.509 774.15 601.89C782.15 604.35 790.88 600.03 796.9 594.15C802.92 588.27 807.24 580.85 813.16 574.86C816.43 571.55 820.16 568.71 823.51 565.5C830.24 559.1 835.46 551.31 840.51 543.5C842.159 541.234 843.404 538.7 844.19 536.01C844.81 533.35 844.53 530.54 845.25 527.9C846.19 524.45 848.72 521.69 850.82 518.8C854.95 513.12 857.7 506.18 857.15 499.18C856.6 492.18 852.28 485.29 845.68 482.91C843.635 482.09 841.379 481.953 839.25 482.52C836.55 483.35 834.55 485.59 832.7 487.73L828.29 492.82C827.19 493.944 826.321 495.273 825.73 496.73C825.444 497.461 825.377 498.26 825.537 499.029C825.697 499.797 826.076 500.503 826.63 501.06" fill="#FBBEBE"/>
<path d="M839.05 462.35C835.99 462.53 832.63 462.83 830.47 465.01C829.57 466.011 828.841 467.153 828.31 468.39C826.22 472.66 824.18 477.12 824.03 481.87C823.9 485.67 825.03 489.38 825.58 493.14C826.06 496.26 824.84 499.44 824.58 502.6C828.37 501.44 833.37 499.86 836.81 497.9C839.064 496.425 841.459 495.179 843.96 494.18C847.61 492.97 853.74 495.05 857.18 496.76C857.37 494.32 855.55 490.09 855.74 487.65C855.77 486.629 855.952 485.618 856.28 484.65C856.798 483.625 857.411 482.651 858.11 481.74C859.436 479.594 860.047 477.082 859.855 474.566C859.663 472.05 858.677 469.66 857.04 467.74C853.97 464.28 849.15 462.98 844.56 462.45C841.666 462.112 838.75 462.008 835.84 462.14" fill="#67C76B"/>
<path d="M386 392.39L366.28 363.79C366.28 363.79 365.91 356.71 364.62 355.06C363.33 353.41 364.34 349.73 364.34 349.73C364.34 349.73 365.73 347.73 364.53 347.52C363.33 347.31 364.34 342.83 364.34 342.83L364.25 335.66C364.25 335.66 365.36 328.76 364.44 327.11C364.168 326.662 364.032 326.145 364.048 325.622C364.064 325.098 364.232 324.59 364.53 324.16C364.53 324.16 365.63 320.21 364.53 319.16C363.43 318.11 363.7 311.99 363.97 307.11C364.24 302.23 362.04 299.48 362.04 298.75C362.04 298.02 354.76 290.84 354.76 290.19C354.76 289.54 350.15 286.88 347.38 286.19C344.61 285.5 343.24 284.9 343.33 284.53C343.42 284.16 339 282.7 339 282.7C339 282.7 335.13 282.42 333.65 280.49C332.17 278.56 327.65 278 327.54 277.98L327.45 277.6C327.45 277.46 327.4 277.32 327.37 277.18C327.735 276.598 328.069 275.997 328.37 275.38L328.63 274.82C330.25 274.83 331.832 274.338 333.16 273.41C333.814 272.868 334.348 272.196 334.728 271.437C335.109 270.678 335.327 269.848 335.37 269C335.449 267.3 335.076 265.609 334.29 264.1C333.48 262.45 332.29 260.73 332.71 258.93C332.89 258.16 333.35 257.48 333.59 256.72C333.948 255.236 333.711 253.671 332.93 252.36C332.23 251.03 331.26 249.85 330.48 248.56C329.491 246.908 328.829 245.082 328.53 243.18C328.474 242.168 328.234 241.175 327.82 240.25C327.402 239.598 326.849 239.043 326.2 238.62C323.314 236.562 319.833 235.508 316.29 235.62C313.78 235.7 311.29 236.38 308.79 236.07C307.301 235.814 305.835 235.433 304.41 234.93C301.32 234.01 297.75 233.64 295.06 235.41C292.37 237.18 291.3 240.66 289.47 243.41C287.86 245.81 285.47 247.83 284.27 250.41C284.27 250.41 284.27 250.31 284.27 250.27C283.968 250.857 283.736 251.478 283.58 252.12C283.237 254.157 283.377 256.247 283.99 258.22C284.125 259.282 284.658 260.254 285.48 260.94C286.39 261.53 287.64 261.39 288.7 261.58L288.58 262.1C287.501 267.269 288.404 272.655 291.11 277.19C293.816 281.724 298.128 285.076 303.19 286.58C303.19 286.77 303.19 286.95 303.19 287.14C303.188 287.668 303.154 288.196 303.09 288.72C303.09 288.72 293.82 286.81 291.33 288.1C288.84 289.39 283.96 290.4 283.22 291.1C282.48 291.8 280.64 291.29 278.98 295.61C277.32 299.93 277.14 304.34 274.98 306.37C272.82 308.4 271.76 309.77 271.66 311.24C271.56 312.71 271.94 313.08 271.11 313.54C270.28 314 269.11 315.93 269.45 316.67C269.577 317.176 269.55 317.708 269.372 318.198C269.193 318.688 268.872 319.114 268.45 319.42C268.013 319.727 267.663 320.144 267.437 320.628C267.211 321.112 267.115 321.647 267.16 322.18C267.16 322.18 266.6 324.18 265.31 324.67C264.02 325.16 263.19 328.16 263.19 328.16L259.01 332.96L250.73 323.8C250.108 323.115 249.24 322.705 248.317 322.658C247.393 322.611 246.488 322.932 245.8 323.55L241.73 327.21C240.162 327.591 238.744 328.434 237.66 329.63C236.778 330.545 236.064 331.608 235.55 332.77L233.33 334.77C232.629 335.639 232.199 336.696 232.096 337.807C231.993 338.919 232.22 340.037 232.75 341.02L238.06 346.89V346.94C236.179 347.106 234.391 347.834 232.93 349.03C225.01 356.03 224.93 362.46 226.11 365.4C227.29 368.34 237.35 379.65 237.35 379.65C237.35 379.65 243.19 387.24 251.62 391.27L251.56 391.34C251.386 391.521 251.223 391.711 251.07 391.91L250.93 392.09L250.8 392.27L250.65 392.49C250.61 392.548 250.573 392.608 250.54 392.67L250.38 392.93C250.343 392.988 250.309 393.048 250.28 393.11C250.21 393.23 250.15 393.35 250.09 393.47C250.068 393.509 250.048 393.549 250.03 393.59C249.95 393.75 249.87 393.91 249.8 394.09L249.72 394.27C249.67 394.39 249.63 394.51 249.58 394.64C249.549 394.718 249.522 394.799 249.5 394.88L249.38 395.24C249.347 395.325 249.321 395.412 249.3 395.5C249.3 395.63 249.22 395.76 249.19 395.9C249.16 396.04 249.14 396.06 249.12 396.15C249.1 396.24 249.02 396.58 248.98 396.81C248.98 396.89 248.98 396.98 248.93 397.07C248.88 397.16 248.88 397.38 248.85 397.54C248.82 397.7 248.85 397.76 248.85 397.88L248.79 398.33V398.69C248.79 398.86 248.79 399.03 248.74 399.21C248.69 399.39 248.74 399.42 248.74 399.53C248.74 399.82 248.74 400.11 248.74 400.42C248.56 411.18 249.19 412.74 249.19 412.74C249.601 413.734 250.272 414.599 251.132 415.245C251.993 415.89 253.011 416.293 254.08 416.41C254.605 416.451 255.132 416.424 255.65 416.33C260.45 415.5 271.65 413.57 275.65 414.33C278.04 414.77 282.45 414.11 285.59 413.52L286.42 413.36L286.99 415.19L288.81 414.69L290.36 415.58L291.36 416.15C293.18 422.31 300.56 420.21 300.56 420.21L302.31 421.21L320.1 421.67C322.097 422.873 324.207 423.878 326.4 424.67C326.69 424.765 326.988 424.831 327.29 424.87C328.953 425.005 330.623 425.035 332.29 424.96C333.65 424.96 334.7 424.87 334.7 424.87C334.7 424.87 334.52 420.04 334.26 414.63C339.775 414.494 345.277 414.043 350.74 413.28C360.24 411.62 364.2 402.98 365.66 398.36C366.097 400.247 366.408 402.161 366.59 404.09C366.978 405.786 367.473 407.456 368.07 409.09C368.579 410.396 369.251 411.632 370.07 412.77C377.07 410.38 372.83 406.77 371.36 405.23C369.89 403.69 372.36 402.38 372.36 402.38C372.36 402.38 374.3 401.09 374.11 399.9C373.92 398.71 373.83 397.42 380.11 397.51C386.39 397.6 386 392.39 386 392.39ZM288.68 333.68C288.76 334.2 289.68 339.87 290.42 341.36C290.641 342.344 290.712 343.355 290.63 344.36C286.92 344.06 283.05 343.9 283.05 343.9C283.159 344.035 283.228 344.198 283.25 344.37L282.66 344.24L281.82 344.04L288.66 333.63L288.68 333.68ZM275.12 355.24L281.55 356.24L282.09 356.32C281.908 357.311 281.798 358.313 281.76 359.32C281.76 359.42 281.9 359.53 282.11 359.66C282.021 360.165 281.98 360.677 281.99 361.19C282.09 361.69 285.09 362.79 288.54 363.7C288.49 363.89 288.45 364.07 288.4 364.23C285.35 362.63 280.56 361.88 280.01 360.69C279.46 359.5 263.14 353.8 263.14 353.8L261.52 352.99L265.81 353.8L266.99 353.68C269.663 354.376 272.379 354.897 275.12 355.24V355.24Z" fill="url(#paint0_linear)"/>
<path d="M365.02 396.39C365.02 396.39 362.47 411.83 349.5 414.11C336.53 416.39 293.23 415.94 293.23 415.94C293.23 415.94 268.47 412.37 259.52 391.46C250.57 370.55 244.81 362.22 252.52 361.86C260.23 361.5 301.58 375.86 303.95 376.02C306.32 376.18 367.31 344.23 365.02 396.39Z" fill="#65617D"/>
<path opacity="0.05" d="M365.02 396.39C365.02 396.39 362.47 411.83 349.5 414.11C336.53 416.39 293.23 415.94 293.23 415.94C293.23 415.94 268.47 412.37 259.52 391.46C250.57 370.55 244.81 362.22 252.52 361.86C260.23 361.5 301.58 375.86 303.95 376.02C306.32 376.18 367.31 344.23 365.02 396.39Z" fill="black"/>
<path d="M248.91 413.58C249.312 414.569 249.974 415.43 250.826 416.073C251.679 416.715 252.689 417.115 253.75 417.23C254.275 417.262 254.802 417.232 255.32 417.14C260.07 416.32 271.21 414.4 275.14 415.14C277.5 415.57 281.87 414.92 284.98 414.34C287.05 413.95 288.57 413.58 288.57 413.58C288.57 413.58 284.91 401.43 284.46 401.07C284.01 400.71 268.01 391.07 268.01 391.07L255.35 390.16C253.646 390.415 252.105 391.318 251.05 392.68C249.72 394.3 248.57 396.95 248.49 401.3C248.28 412.01 248.91 413.58 248.91 413.58Z" fill="#3F3D56"/>
<path opacity="0.05" d="M248.91 413.58C249.312 414.569 249.974 415.43 250.826 416.073C251.679 416.715 252.689 417.115 253.75 417.23C252.51 415.629 251.362 413.96 250.31 412.23L250.38 403.37C250.128 400.94 250.45 398.485 251.318 396.201C252.186 393.917 253.577 391.869 255.38 390.22V390.22C255.38 390.22 248.71 390.67 248.52 401.36C248.33 412.05 248.91 413.58 248.91 413.58Z" fill="black"/>
<path opacity="0.1" d="M303.82 394.2L315.61 384.97L334.15 366.7L329.15 366.47C328.4 366.95 326.3 368.47 326.22 370.29C326.13 372.52 321.22 370.45 318.65 371.72C316.08 372.99 303.58 389.02 301.39 388.91C299.2 388.8 297.46 387.8 296.54 389.36L296.48 389.46L303.82 394.2Z" fill="black"/>
<path opacity="0.1" d="M251.02 392.7C251.44 392.9 251.87 393.1 252.3 393.28C261.25 397.12 272.3 405.16 273.13 406.62C273.63 407.51 280.04 411.4 284.98 414.32C287.05 413.93 288.57 413.56 288.57 413.56C288.57 413.56 284.91 401.41 284.46 401.05C284.01 400.69 268.01 391.05 268.01 391.05L255.35 390.14C253.629 390.398 252.075 391.316 251.02 392.7V392.7Z" fill="black"/>
<path d="M226.18 366.52C227.36 369.44 237.32 380.68 237.32 380.68C237.32 380.68 243.62 388.9 252.58 392.68C261.54 396.46 272.58 404.56 273.4 406.02C273.93 406.96 281.07 411.26 286.09 414.21L287.22 414.87L289.71 416.32L291.03 417.07C291.03 417.07 294.09 414.62 297.14 412.15C300.19 409.68 303.14 407.26 303.14 407.15C303.14 407.04 304.42 403.77 304.14 403.59C303.86 403.41 303.37 402.23 302.21 400.76C300.986 399.13 299.392 397.814 297.56 396.92C294.91 395.558 292.796 393.342 291.56 390.63C291.56 390.63 291.16 390.34 290.56 389.95C289.316 389.095 287.927 388.475 286.46 388.12C284.46 387.87 280.7 383.76 280.7 383.76C279.238 382.808 278.019 381.527 277.14 380.02C276.14 378.02 262.01 368.28 260.7 367.38L295.04 389.44L303.26 394.72L315.05 385.5L333.59 367.23L327.47 366.95C318.47 366.56 302.47 365.95 300.47 366.41C298.832 366.787 297.144 366.899 295.47 366.74C295.47 366.74 290.91 366.94 287.89 365.35C284.87 363.76 280.12 363.01 279.57 361.83C279.02 360.65 262.86 354.99 262.86 354.99C262.86 354.99 240.86 343.3 232.99 350.24C225.12 357.18 224.99 363.58 226.18 366.52Z" fill="#65617D"/>
<path d="M297.15 299.47L299.98 308.88L303.64 330.07L317.07 330.98L320.91 324.58L324.79 318.14C324.79 318.14 327.21 309.58 328.95 301.3C330.48 293.97 331.49 286.85 329.82 286.08C328.33 285.4 327.36 282.93 326.72 280.27C326.64 279.95 326.57 279.61 326.51 279.27C326.062 277.022 325.761 274.747 325.61 272.46C325.61 272.46 297.48 271 301.41 282.6C302.111 284.582 302.47 286.668 302.47 288.77C302.47 289.31 302.47 289.84 302.37 290.34C302.175 292.139 301.611 293.879 300.712 295.45C299.814 297.021 298.601 298.389 297.15 299.47V299.47Z" fill="#EE8E9E"/>
<path d="M291.31 297.92L292.31 313.92L294.59 327.53L297.15 333.84L299.44 368.32C299.44 368.32 321.44 370.87 326.82 368.27C327.217 368.118 327.563 367.858 327.82 367.52C334.29 357.75 332.17 329.45 332.17 329.45L334.63 311.18L332.99 301.7L328.99 301.28L325.93 300.95C325.93 300.95 325.24 301.8 324.24 303.12C321.53 306.69 316.55 313.73 316.89 316.66C317.34 320.66 316.34 324.79 314.78 325.43C313.22 326.07 311.95 327.17 311.68 326.07C311.291 325.148 311.194 324.129 311.4 323.15C311.68 321.59 310.21 316.84 310.21 316.84C310.21 316.84 307.75 311.27 307.93 308.9C308.11 306.53 307.66 303.78 306.93 303.14C306.2 302.5 305.19 301.86 306.01 298.94C306.83 296.02 302.41 290.33 302.41 290.33L291.31 297.92Z" fill="#E3E8F4"/>
<path opacity="0.1" d="M320.4 337.84L321.32 365.15L326.59 368.08C326.986 367.921 327.331 367.659 327.59 367.32C334.06 357.55 331.94 329.25 331.94 329.25L334.41 310.98L332.76 301.5L328.76 301.08C330.3 293.75 331.3 286.64 329.63 285.86C328.14 285.18 327.17 282.71 326.54 280.06L323.69 299.38C323.69 299.38 323.93 301.12 324.01 302.92C324.128 304.058 324.051 305.208 323.78 306.32C323.411 307.815 323.349 309.37 323.6 310.89C321.95 313.79 321.13 319.17 320.73 324.36C320.19 331.26 320.4 337.84 320.4 337.84Z" fill="black"/>
<path d="M326.62 279.58C326.62 279.58 331.23 280.15 332.69 282.07C334.15 283.99 337.99 284.27 337.99 284.27C337.99 284.27 342.37 285.73 342.28 286.09C342.19 286.45 343.56 287.01 346.28 287.74C349 288.47 353.59 291.12 353.59 291.74C353.59 292.36 360.8 299.5 360.8 300.23C360.8 300.96 362.99 303.7 362.72 308.54C362.45 313.38 362.17 319.54 363.27 320.54C364.37 321.54 363.27 325.47 363.27 325.47C362.974 325.898 362.809 326.402 362.793 326.922C362.777 327.441 362.911 327.955 363.18 328.4C364.09 330.04 362.99 336.89 362.99 336.89L363.09 344.02C363.09 344.02 362.09 348.49 363.27 348.68C364.45 348.87 363.09 350.87 363.09 350.87C363.09 350.87 362.09 354.52 363.36 356.17C364.63 357.82 365 364.84 365 364.84L384.55 393.25C384.55 393.25 384.83 398.46 378.62 398.37C372.41 398.28 372.49 399.56 372.68 400.74C372.87 401.92 370.94 403.21 370.94 403.21C370.94 403.21 368.48 404.49 369.94 406.04C371.4 407.59 375.6 411.16 368.66 413.53C367.842 412.402 367.17 411.176 366.66 409.88C366.072 408.268 365.584 406.622 365.2 404.95C365.2 404.95 364.56 398 363.28 397.09C362 396.18 362.18 391.79 362.18 391.79C362.18 391.79 364.01 388.23 361.45 386.79C358.89 385.35 321.81 364.79 321.81 364.79L320.91 337.47C320.91 337.47 320.27 317.28 324.11 310.52C323.859 309 323.921 307.445 324.29 305.95C324.93 304.31 324.2 299.01 324.2 299.01L326.62 279.58Z" fill="#3F3D56"/>
<path opacity="0.1" d="M302.68 290.58C302.68 290.58 293.5 288.69 291.03 289.97C288.56 291.25 283.73 292.25 283.03 292.97C282.33 293.69 280.48 293.16 278.83 297.45C277.18 301.74 277.01 306.13 274.9 308.14C272.79 310.15 271.71 311.52 271.62 312.98C271.53 314.44 271.89 314.81 271.07 315.26C270.25 315.71 269.07 317.64 269.42 318.37C269.77 319.1 288.42 335.18 288.42 335.18C288.42 335.18 289.34 341.3 290.16 342.85C290.98 344.4 289.25 365.78 287.42 367.24C285.59 368.7 299.71 368.58 299.71 368.58C299.71 368.58 300.35 354.58 300.9 353.82C301.45 353.06 300.53 338.11 300.53 338.11C300.53 338.11 300.44 325.32 301.63 321.94C302.82 318.56 302.63 307.32 302.63 307.32C302.63 307.32 303.68 300.58 304.96 299.01C306.24 297.44 302.68 290.58 302.68 290.58Z" fill="black"/>
<path d="M302.41 290.31C302.41 290.31 293.23 288.42 290.76 289.69C288.29 290.96 283.45 291.98 282.76 292.69C282.07 293.4 280.2 292.87 278.56 297.17C276.92 301.47 276.73 305.84 274.63 307.85C272.53 309.86 271.43 311.23 271.34 312.69C271.25 314.15 271.62 314.52 270.79 314.98C269.96 315.44 268.79 317.35 269.15 318.08C269.51 318.81 288.15 334.89 288.15 334.89C288.15 334.89 289.06 341.01 289.89 342.56C290.72 344.11 288.97 365.49 287.14 366.95C285.31 368.41 299.48 368.28 299.48 368.28C299.48 368.28 300.12 354.28 300.66 353.53C301.2 352.78 300.3 337.81 300.3 337.81C300.3 337.81 300.21 325.03 301.4 321.65C302.59 318.27 302.45 307.03 302.45 307.03C302.45 307.03 303.5 300.29 304.78 298.72C306.06 297.15 302.41 290.31 302.41 290.31Z" fill="#3F3D56"/>
<path opacity="0.1" d="M301.45 282.58C302.151 284.562 302.51 286.648 302.51 288.75C306.997 290.064 311.794 289.843 316.142 288.123C320.489 286.402 324.138 283.279 326.51 279.25C326.062 277.002 325.761 274.727 325.61 272.44C325.61 272.44 297.52 270.97 301.45 282.58Z" fill="black"/>
<path d="M287.56 268.14C287.556 273.501 289.61 278.66 293.298 282.551C296.986 286.443 302.027 288.77 307.381 289.055C312.735 289.339 317.994 287.557 322.073 284.078C326.152 280.599 328.74 275.687 329.304 270.355C329.868 265.023 328.364 259.679 325.103 255.423C321.842 251.167 317.072 248.326 311.777 247.484C306.482 246.642 301.066 247.864 296.646 250.898C292.225 253.932 289.138 258.546 288.02 263.79C287.714 265.22 287.559 266.678 287.56 268.14V268.14Z" fill="#EE8E9E"/>
<path d="M274.13 316.58L269.13 318.13C269.258 318.634 269.231 319.165 269.052 319.654C268.874 320.143 268.553 320.567 268.13 320.87C267.695 321.174 267.348 321.587 267.125 322.068C266.902 322.55 266.811 323.082 266.86 323.61C266.86 323.61 266.31 325.61 265.03 326.08C263.75 326.55 262.93 329.55 262.93 329.55L258.73 334.39C258.73 334.39 257.17 335.67 257.45 336.31C257.73 336.95 255.8 337.13 255.8 337.13L256.8 353.39L265.48 355.04L270.87 354.49L275.25 352.85L279.09 350.56L280.82 346.09L288.5 334.39L274.13 316.58Z" fill="#3F3D56"/>
<path d="M257.05 338.38C257.05 338.38 245.91 322.31 237.59 330.98C229.27 339.65 240.97 353.73 243.71 353.27C246.45 352.81 259.52 352.08 259.52 352.08L257.05 338.38Z" fill="#EE8E9E"/>
<path d="M283.294 331.431L234.084 306.314C233.326 305.927 232.399 306.228 232.012 306.985L212.823 344.581C212.436 345.339 212.737 346.267 213.494 346.653L262.705 371.771C263.463 372.157 264.39 371.857 264.777 371.099L283.966 333.503C284.353 332.745 284.052 331.818 283.294 331.431Z" fill="#3F3D56"/>
<path d="M278.717 333.665L235.047 311.375L218.249 344.286L261.919 366.575L278.717 333.665Z" fill="#67C76B"/>
<path d="M224.97 327.76C225.412 327.76 225.77 327.402 225.77 326.96C225.77 326.518 225.412 326.16 224.97 326.16C224.528 326.16 224.17 326.518 224.17 326.96C224.17 327.402 224.528 327.76 224.97 327.76Z" fill="#E6E8EC"/>
<path d="M272.24 352.51C272.975 352.51 273.57 351.915 273.57 351.18C273.57 350.445 272.975 349.85 272.24 349.85C271.505 349.85 270.91 350.445 270.91 351.18C270.91 351.915 271.505 352.51 272.24 352.51Z" fill="#E6E8EC"/>
<path d="M249.84 341.76C249.74 353.82 274.68 356.38 274.68 356.38L281.05 357.38L283.91 357.83L285.1 346.05C285.1 346.05 283.79 345.85 282.16 345.47C279.74 344.91 276.61 343.94 275.96 342.57C274.91 340.3 249.91 329.7 249.84 341.76Z" fill="#EE8E9E"/>
<path opacity="0.1" d="M288.02 263.79C288.593 263.832 289.134 264.073 289.55 264.47C290.25 265.22 290.29 266.55 291.21 267.01C291.554 267.155 291.933 267.197 292.3 267.13C294.73 266.79 296.13 264.05 298.47 263.29C299.83 262.94 301.269 263.064 302.55 263.64C303.07 263.809 303.539 264.108 303.91 264.51C304.69 265.51 304.14 267.01 304.5 268.23C305 269.93 307.03 270.6 308.78 270.82C310.53 271.04 312.51 271.17 313.68 272.49C314.067 272.985 314.345 273.556 314.495 274.167C314.645 274.777 314.664 275.412 314.55 276.03C314.445 276.46 314.445 276.91 314.55 277.34C315.03 278.71 317.4 278.5 318.02 277.42C318.48 276.63 318.34 275.98 319.41 275.76C320.174 275.699 320.942 275.833 321.64 276.15C323.502 276.789 325.462 277.09 327.43 277.04C328.682 274.371 329.355 271.467 329.406 268.519C329.456 265.572 328.884 262.647 327.725 259.936C326.566 257.225 324.847 254.79 322.681 252.79C320.516 250.79 317.951 249.27 315.157 248.33C312.363 247.39 309.401 247.052 306.467 247.337C303.533 247.622 300.692 248.524 298.13 249.983C295.569 251.443 293.345 253.428 291.604 255.807C289.864 258.186 288.646 260.907 288.03 263.79H288.02Z" fill="black"/>
<path d="M314.54 276.79C314.435 276.36 314.435 275.91 314.54 275.48C314.654 274.864 314.636 274.23 314.486 273.621C314.336 273.012 314.058 272.443 313.67 271.95C312.5 270.62 310.53 270.5 308.77 270.27C307.01 270.04 304.99 269.38 304.49 267.68C304.13 266.46 304.68 264.97 303.9 263.97C303.535 263.561 303.064 263.26 302.54 263.1C301.26 262.521 299.822 262.394 298.46 262.74C296.12 263.5 294.72 266.24 292.29 266.58C291.923 266.652 291.543 266.61 291.2 266.46C290.28 266 290.2 264.67 289.54 263.92C288.43 262.75 286.32 263.51 284.97 262.64C284.151 261.957 283.622 260.988 283.49 259.93C282.885 257.969 282.748 255.894 283.09 253.87C283.88 250.48 286.92 248.15 288.85 245.24C290.66 242.54 291.68 239.12 294.39 237.33C297.1 235.54 300.59 235.94 303.66 236.85C305.071 237.354 306.523 237.735 308 237.99C310.47 238.29 312.95 237.62 315.43 237.54C318.945 237.426 322.399 238.481 325.25 240.54C325.893 240.959 326.439 241.512 326.85 242.16C327.262 243.079 327.506 244.065 327.57 245.07C327.862 246.958 328.518 248.771 329.5 250.41C330.26 251.7 331.23 252.86 331.92 254.19C332.691 255.494 332.928 257.046 332.58 258.52C332.34 259.27 331.88 259.95 331.7 260.72C331.3 262.5 332.47 264.21 333.27 265.85C334.048 267.351 334.418 269.031 334.34 270.72C334.297 271.562 334.081 272.386 333.704 273.139C333.327 273.893 332.798 274.561 332.15 275.1C330.792 276.042 329.173 276.535 327.52 276.51C325.516 276.571 323.517 276.27 321.62 275.62C320.92 275.308 320.154 275.174 319.39 275.23C318.32 275.45 318.46 276.1 318 276.89C317.39 277.95 315.03 278.16 314.54 276.79Z" fill="#3F3D56"/>
<path opacity="0.1" d="M303.27 394.74L315.06 385.52L333.6 367.25L327.48 366.97C326.761 367.62 326.303 368.508 326.19 369.47C326.1 371.7 321.19 369.62 318.62 370.9C316.05 372.18 303.55 388.2 301.36 388.09C299.17 387.98 297.43 386.98 296.51 388.53L296.45 388.63C296.085 389.05 295.594 389.342 295.05 389.46L303.27 394.74Z" fill="black"/>
<path d="M279.52 394.1L285.44 413.01L286.37 416.01L289.19 415.24L295.41 413.53L323.09 405.93C326.577 405.779 329.989 404.871 333.09 403.27C338.323 400.338 344.311 399.032 350.29 399.52C353.95 399.86 358.02 398.28 361.4 392.04C361.4 392.04 369.07 369.39 349.71 362.9C330.35 356.41 329.42 366.35 329.42 366.35L329.15 366.51C328.4 366.99 326.3 368.51 326.22 370.33C326.13 372.56 321.22 370.49 318.65 371.76C316.08 373.03 303.58 389.06 301.39 388.95C299.2 388.84 297.46 387.84 296.54 389.4L296.48 389.5C295.8 390.43 293.77 390.65 292.42 390.68C292 390.702 291.58 390.702 291.16 390.68L290.98 390.73L289.58 391.15L279.52 394.1Z" fill="#65617D"/>
<path opacity="0.1" d="M281.05 357.39L283.91 357.84L285.1 346.06C285.1 346.06 283.79 345.86 282.16 345.48C282.59 347.13 281.61 353.48 281.05 357.39Z" fill="black"/>
<path opacity="0.1" d="M355.75 302.33C355.75 302.33 364.24 299.86 362.14 323.98C360.682 338.702 354.424 352.535 344.33 363.35C344.33 363.35 326.24 371.29 318.11 370.01C309.98 368.73 304.05 368.46 304.05 368.46C301.488 367.167 298.686 366.421 295.82 366.27C291.26 366.09 281.67 363.27 281.48 362.34C281.29 361.41 283.86 348 282.76 347C282.76 347 295.55 347.52 296.83 348.44C298.11 349.36 299.94 348.71 301.31 348.44C302.68 348.17 306.88 344.53 315.19 347.73C315.19 347.73 318.02 348 319.12 347.27C320.017 346.852 321.038 346.788 321.98 347.09C322.691 346.854 323.364 346.517 323.98 346.09C324.25 345.73 326.45 346.09 326.45 346.09C326.581 346.149 326.723 346.178 326.866 346.177C327.01 346.176 327.151 346.144 327.281 346.083C327.411 346.022 327.527 345.934 327.619 345.825C327.712 345.716 327.781 345.588 327.82 345.45C328.109 344.705 328.544 344.025 329.1 343.45C329.1 343.45 331.56 329.57 336.22 324.36C336.592 324.035 336.878 323.623 337.052 323.16C337.227 322.698 337.284 322.2 337.22 321.71C336.84 320.23 344.79 299.4 355.75 302.33Z" fill="black"/>
<path d="M355.52 300.47C355.52 300.47 364.02 298.01 361.92 322.12C360.466 336.842 354.207 350.677 344.11 361.49C344.11 361.49 326.02 369.44 317.89 368.16C309.76 366.88 303.82 366.58 303.82 366.58C301.262 365.286 298.463 364.54 295.6 364.39C291.03 364.2 281.44 361.39 281.26 360.46C281.08 359.53 283.63 346.12 282.54 345.11C282.54 345.11 295.33 345.64 296.61 346.56C297.89 347.48 299.71 346.82 301.08 346.56C302.45 346.3 306.65 342.65 314.97 345.84C314.97 345.84 317.8 346.12 318.89 345.39C319.787 344.976 320.806 344.908 321.75 345.2C322.459 344.958 323.131 344.622 323.75 344.2C324.02 343.83 326.21 344.2 326.21 344.2C326.341 344.258 326.483 344.288 326.626 344.287C326.77 344.286 326.911 344.254 327.041 344.193C327.171 344.132 327.287 344.044 327.38 343.935C327.472 343.826 327.541 343.698 327.58 343.56C327.869 342.815 328.304 342.135 328.86 341.56C328.86 341.56 331.33 327.68 335.99 322.47C336.362 322.145 336.648 321.733 336.822 321.27C336.997 320.808 337.054 320.31 336.99 319.82C336.62 318.38 344.56 297.58 355.52 300.47Z" fill="#67C76B"/>
<path opacity="0.1" d="M289.55 391.1L301.61 405.7L301.69 405.62C301.78 405.34 302.97 402.24 302.69 402.05C302.41 401.86 300.32 397.3 296.12 395.38C293.984 394.338 292.19 392.708 290.95 390.68L289.55 391.1Z" fill="black"/>
<path opacity="0.1" d="M289.71 416.37L291.03 417.12C291.03 417.12 294.09 414.67 297.14 412.2C300.19 409.73 303.14 407.31 303.14 407.2C303.14 407.09 304.42 403.82 304.14 403.64C303.86 403.46 303.37 402.28 302.21 400.81C294.03 398.52 299.21 404.2 299.93 404.46C299.93 404.46 289.98 402.17 289.43 413.02C289.383 414.144 289.477 415.27 289.71 416.37V416.37Z" fill="black"/>
<path d="M299.8 420.96L301.54 421.96L319.17 422.41C321.147 423.612 323.237 424.617 325.41 425.41C325.698 425.496 325.992 425.559 326.29 425.6C327.926 425.734 329.57 425.764 331.21 425.69C332.56 425.69 333.6 425.6 333.6 425.6C333.6 425.6 332.77 403.37 332.14 401.03C331.84 399.91 330.36 400.15 328.9 400.71C327.806 401.158 326.749 401.693 325.74 402.31C325.74 402.31 318.26 403.04 317.07 403.68C315.88 404.32 312.5 403.31 310.4 403.68C308.3 404.05 304.55 401.21 304.55 401.21C294.32 397.83 300.08 404.13 300.81 404.41C300.81 404.41 290.81 402.12 290.3 412.97C289.79 423.82 299.8 420.96 299.8 420.96Z" fill="#3F3D56"/>
<path d="M325.29 412.38C325.48 416.98 329.07 422.69 331.21 425.71C332.56 425.71 333.6 425.62 333.6 425.62C333.6 425.62 332.77 403.39 332.14 401.05C331.84 399.93 330.36 400.17 328.9 400.73C327.13 404.05 325.13 408.66 325.29 412.38Z" fill="#565387"/>
<path opacity="0.1" d="M325.29 412.38C325.48 416.98 329.07 422.69 331.21 425.71C332.56 425.71 333.6 425.62 333.6 425.62C333.6 425.62 332.77 403.39 332.14 401.05C331.84 399.93 330.36 400.17 328.9 400.73C327.13 404.05 325.13 408.66 325.29 412.38Z" fill="black"/>
<path opacity="0.05" d="M322.27 412.99C323.49 417.43 323.47 422.41 325.41 425.43C325.698 425.516 325.992 425.579 326.29 425.62C327.926 425.754 329.57 425.784 331.21 425.71C332.56 425.71 333.6 425.62 333.6 425.62C333.6 425.62 332.77 403.39 332.14 401.05C331.84 399.93 330.36 400.17 328.9 400.73C327.806 401.178 326.749 401.713 325.74 402.33C325.74 402.33 320.72 407.3 322.27 412.99Z" fill="black"/>
<path opacity="0.1" d="M261.45 367.92C261.45 367.92 270.21 370.76 277.63 380.86L261.45 367.92Z" fill="black"/>
<g opacity="0.1">
<path opacity="0.1" d="M332.61 258.3C332.61 258.37 332.61 258.43 332.56 258.5C332.476 258.761 332.372 259.015 332.25 259.26C332.346 258.932 332.467 258.611 332.61 258.3Z" fill="black"/>
<path opacity="0.1" d="M283.07 253.87C283.218 253.231 283.447 252.612 283.75 252.03C283.75 252.18 283.65 252.34 283.61 252.5C283.277 254.525 283.417 256.599 284.02 258.56C284.153 259.616 284.677 260.583 285.49 261.27C286.85 262.14 288.96 261.38 290.07 262.55C290.77 263.3 290.81 264.63 291.73 265.09C292.073 265.24 292.453 265.282 292.82 265.21C295.25 264.87 296.65 262.13 298.99 261.37C300.351 261.02 301.791 261.147 303.07 261.73C303.594 261.89 304.065 262.191 304.43 262.6C305.21 263.6 304.66 265.09 305.02 266.31C305.52 268.01 307.55 268.68 309.3 268.9C311.05 269.12 313.03 269.25 314.2 270.58C314.588 271.073 314.866 271.642 315.016 272.251C315.166 272.86 315.184 273.494 315.07 274.11C314.965 274.54 314.965 274.99 315.07 275.42C315.55 276.79 317.92 276.58 318.54 275.5C319 274.71 318.86 274.06 319.93 273.84C320.694 273.784 321.46 273.918 322.16 274.23C324.057 274.88 326.056 275.181 328.06 275.12C329.713 275.145 331.332 274.652 332.69 273.71C333.284 273.244 333.768 272.653 334.11 271.98C333.801 273.205 333.099 274.294 332.11 275.08C330.752 276.022 329.133 276.515 327.48 276.49C325.476 276.551 323.477 276.25 321.58 275.6C320.88 275.288 320.114 275.154 319.35 275.21C318.28 275.43 318.42 276.08 317.97 276.87C317.34 277.95 314.97 278.16 314.49 276.79C314.39 276.359 314.39 275.911 314.49 275.48C314.604 274.864 314.586 274.23 314.436 273.621C314.286 273.012 314.008 272.443 313.62 271.95C312.45 270.62 310.48 270.5 308.72 270.27C306.96 270.04 304.94 269.38 304.44 267.68C304.08 266.46 304.63 264.97 303.85 263.97C303.487 263.563 303.021 263.262 302.5 263.1C301.217 262.521 299.775 262.394 298.41 262.74C296.08 263.5 294.67 266.24 292.24 266.58C291.873 266.652 291.493 266.61 291.15 266.46C290.23 266 290.15 264.67 289.49 263.92C288.38 262.75 286.28 263.51 284.92 262.64C284.101 261.957 283.572 260.988 283.44 259.93C282.845 257.967 282.719 255.891 283.07 253.87V253.87Z" fill="black"/>
</g>
<path opacity="0.1" d="M334.03 326.99C332.35 329.25 330.44 331.34 328.96 333.72C327.352 336.066 326.571 338.881 326.74 341.72C328.27 340.15 328.98 337.97 329.94 336C331.58 332.66 334.02 329.83 336.09 326.77C336.48 326.18 339 322.77 337.73 322.63C336.67 322.48 334.6 326.22 334.03 326.99Z" fill="black"/>
<path d="M343.03 540.96C344.24 544.84 345.46 548.73 346.97 552.5C349.691 559.054 353.114 565.294 357.18 571.11C359.801 574.939 362.619 578.631 365.62 582.17C369.38 586.6 373.62 591.06 374.9 596.72C375.67 599.99 375.41 603.4 375.73 606.72C376.05 610.04 377.14 613.6 379.85 615.6C381.78 617.03 384.25 617.46 386.62 617.83C388.32 618.1 390.44 618.19 391.32 616.72C391.628 616.12 391.789 615.455 391.79 614.78L392.2 609.89C392.28 608.83 392.66 607.48 393.72 607.43C394.78 607.38 395.31 608.79 396.21 609.43C397.41 610.27 399.21 609.43 399.87 608.16C400.418 606.785 400.454 605.259 399.97 603.86C399.242 601.077 397.932 598.479 396.128 596.238C394.323 593.998 392.064 592.165 389.5 590.86C387.719 590.142 386.011 589.255 384.4 588.21C382.763 586.787 381.407 585.071 380.4 583.15C371.12 567.87 361.79 552.51 355.24 535.88C353.949 532.908 353.078 529.772 352.65 526.56C352.33 523.29 352.84 520 353.05 516.72C353.438 510.828 352.891 504.911 351.43 499.19C351.111 497.688 350.547 496.249 349.76 494.93C347.06 490.84 340.76 490.23 336.76 493.05C335.287 494.183 334.066 495.61 333.174 497.24C332.283 498.871 331.74 500.669 331.58 502.52C331.29 505.84 333.2 509.28 334.17 512.37C337.11 521.91 340.063 531.44 343.03 540.96Z" fill="#A1616A"/>
<path opacity="0.05" d="M343.03 540.96C344.24 544.84 345.46 548.73 346.97 552.5C349.691 559.054 353.114 565.294 357.18 571.11C359.801 574.939 362.619 578.631 365.62 582.17C369.38 586.6 373.62 591.06 374.9 596.72C375.67 599.99 375.41 603.4 375.73 606.72C376.05 610.04 377.14 613.6 379.85 615.6C381.78 617.03 384.25 617.46 386.62 617.83C388.32 618.1 390.44 618.19 391.32 616.72C391.628 616.12 391.789 615.455 391.79 614.78L392.2 609.89C392.28 608.83 392.66 607.48 393.72 607.43C394.78 607.38 395.31 608.79 396.21 609.43C397.41 610.27 399.21 609.43 399.87 608.16C400.418 606.785 400.454 605.259 399.97 603.86C399.242 601.077 397.932 598.479 396.128 596.238C394.323 593.998 392.064 592.165 389.5 590.86C387.719 590.142 386.011 589.255 384.4 588.21C382.763 586.787 381.407 585.071 380.4 583.15C371.12 567.87 361.79 552.51 355.24 535.88C353.949 532.908 353.078 529.772 352.65 526.56C352.33 523.29 352.84 520 353.05 516.72C353.438 510.828 352.891 504.911 351.43 499.19C351.111 497.688 350.547 496.249 349.76 494.93C347.06 490.84 340.76 490.23 336.76 493.05C335.287 494.183 334.066 495.61 333.174 497.24C332.283 498.871 331.74 500.669 331.58 502.52C331.29 505.84 333.2 509.28 334.17 512.37C337.11 521.91 340.063 531.44 343.03 540.96Z" fill="black"/>
<path d="M284.73 704.34C286.539 704.969 288.463 705.201 290.37 705.02C290.51 703.46 292.61 703.11 294.17 703.19C294.925 703.165 295.672 703.337 296.34 703.69C296.73 703.94 297.03 704.3 297.41 704.56C298.088 704.931 298.847 705.127 299.62 705.13L307.74 705.81C311.36 706.12 315.13 706.4 318.52 705.11C319.195 704.896 319.796 704.494 320.25 703.95C321.17 702.63 320.25 700.74 318.98 699.78C317.71 698.82 316.07 698.39 314.79 697.41C311.97 695.26 311.58 691.24 310.09 688.02C309.031 685.99 307.724 684.099 306.2 682.39C305.096 680.923 303.808 679.602 302.37 678.46C299.11 676.11 295.37 676.16 291.54 675.82C288.84 675.58 286.3 675.42 284.36 677.82C281.96 680.82 282.92 686.82 283.07 690.32C283.257 695.029 283.812 699.717 284.73 704.34Z" fill="#514E7F"/>
<path opacity="0.05" d="M284.73 704.34C286.539 704.969 288.463 705.201 290.37 705.02C290.51 703.46 292.61 703.11 294.17 703.19C294.925 703.165 295.672 703.337 296.34 703.69C296.73 703.94 297.03 704.3 297.41 704.56C298.088 704.931 298.847 705.127 299.62 705.13L307.74 705.81C311.36 706.12 315.13 706.4 318.52 705.11C319.195 704.896 319.796 704.494 320.25 703.95C321.17 702.63 320.25 700.74 318.98 699.78C317.71 698.82 316.07 698.39 314.79 697.41C311.97 695.26 311.58 691.24 310.09 688.02C309.031 685.99 307.724 684.099 306.2 682.39C305.096 680.923 303.808 679.602 302.37 678.46C299.11 676.11 295.37 676.16 291.54 675.82C288.84 675.58 286.3 675.42 284.36 677.82C281.96 680.82 282.92 686.82 283.07 690.32C283.257 695.029 283.812 699.717 284.73 704.34Z" fill="black"/>
<path d="M288.01 546.39C285.53 547.19 284.45 550.28 284.91 552.85C285.37 555.42 286.91 557.64 288.18 559.92C291.8 566.39 293.36 573.79 296.4 580.54C298.67 585.54 301.74 590.24 303.98 595.3C306.22 600.36 307.61 606.07 306.25 611.44C305.59 614.05 304.31 616.44 303.46 619.01C302.619 621.796 302.069 624.661 301.82 627.56C300.719 637.408 300.521 647.336 301.23 657.22C301.236 658.425 301.488 659.616 301.97 660.72C302.48 661.72 303.36 662.72 302.97 663.72C302.8 664.13 302.43 664.43 302.25 664.83C301.73 665.95 302.77 667.14 303.72 667.94C303.55 668.241 303.322 668.504 303.049 668.716C302.776 668.927 302.464 669.081 302.13 669.17C302.811 669.604 303.335 670.246 303.623 671C303.911 671.755 303.949 672.582 303.73 673.36C302.89 673.49 302.84 674.78 303.37 675.46C303.9 676.14 304.74 676.56 305.12 677.33C305.344 677.957 305.319 678.646 305.052 679.256C304.784 679.866 304.293 680.35 303.68 680.61C302.431 681.091 301.068 681.195 299.76 680.91C297.543 680.601 295.353 680.12 293.21 679.47C292.09 679.25 291.087 678.633 290.385 677.733C289.683 676.833 289.33 675.71 289.39 674.57C288.895 670.5 288.744 666.395 288.94 662.3C289.29 642.46 288.94 622.6 288.08 602.77C287.73 594.77 285.33 587.02 282.24 579.66C280.532 575.899 278.633 572.227 276.55 568.66C272.09 560.5 268.15 551.46 269.17 542.21C269.28 541.21 269.64 540.02 270.63 539.86C271.017 539.818 271.408 539.884 271.76 540.05C273.814 541.009 275.802 542.105 277.71 543.33C280.845 545.168 284.38 546.218 288.01 546.39Z" fill="#464353"/>
<path opacity="0.05" d="M288.01 546.39C285.53 547.19 284.45 550.28 284.91 552.85C285.37 555.42 286.91 557.64 288.18 559.92C291.8 566.39 293.36 573.79 296.4 580.54C298.67 585.54 301.74 590.24 303.98 595.3C306.22 600.36 307.61 606.07 306.25 611.44C305.59 614.05 304.31 616.44 303.46 619.01C302.619 621.796 302.069 624.661 301.82 627.56C300.719 637.408 300.521 647.336 301.23 657.22C301.236 658.425 301.488 659.616 301.97 660.72C302.48 661.72 303.36 662.72 302.97 663.72C302.8 664.13 302.43 664.43 302.25 664.83C301.73 665.95 302.77 667.14 303.72 667.94C303.55 668.241 303.322 668.504 303.049 668.716C302.776 668.927 302.464 669.081 302.13 669.17C302.811 669.604 303.335 670.246 303.623 671C303.911 671.755 303.949 672.582 303.73 673.36C302.89 673.49 302.84 674.78 303.37 675.46C303.9 676.14 304.74 676.56 305.12 677.33C305.344 677.957 305.319 678.646 305.052 679.256C304.784 679.866 304.293 680.35 303.68 680.61C302.431 681.091 301.068 681.195 299.76 680.91C297.543 680.601 295.353 680.12 293.21 679.47C292.09 679.25 291.087 678.633 290.385 677.733C289.683 676.833 289.33 675.71 289.39 674.57C288.895 670.5 288.744 666.395 288.94 662.3C289.29 642.46 288.94 622.6 288.08 602.77C287.73 594.77 285.33 587.02 282.24 579.66C280.532 575.899 278.633 572.227 276.55 568.66C272.09 560.5 268.15 551.46 269.17 542.21C269.28 541.21 269.64 540.02 270.63 539.86C271.017 539.818 271.408 539.884 271.76 540.05C273.814 541.009 275.802 542.105 277.71 543.33C280.845 545.168 284.38 546.218 288.01 546.39Z" fill="black"/>
<path d="M254.48 522.27C253.187 521.44 251.695 520.97 250.16 520.91C248.38 521 246.86 522.17 245.47 523.29C243.823 524.554 242.26 525.924 240.79 527.39C237.746 530.634 235.626 534.633 234.648 538.973C233.671 543.312 233.872 547.834 235.23 552.07C236.7 556.48 239.39 560.37 242.05 564.18L247.45 571.94C255.69 583.77 263.93 595.6 272.56 607.15C272.562 607.434 272.654 607.71 272.823 607.938C272.992 608.167 273.229 608.335 273.5 608.42C273.81 608.5 274.2 608.49 274.39 608.75C274.478 608.912 274.516 609.096 274.5 609.28C274.481 610.134 274.318 610.979 274.02 611.78C273.88 612.044 273.844 612.351 273.92 612.64C274.2 613.29 275.38 612.92 275.76 613.53C276.01 613.93 275.7 614.45 275.37 614.79C275.04 615.13 274.63 615.51 274.69 615.98C274.75 616.45 275.57 616.98 275.54 617.56C275.54 617.9 275.24 618.16 275.03 618.43C274.736 618.86 274.602 619.38 274.651 619.899C274.701 620.418 274.93 620.903 275.3 621.27C275.87 626.91 272.8 632.27 272.19 637.89C271.19 646.77 275.24 655.44 275.73 664.35C275.701 665.353 275.892 666.349 276.29 667.27C277.12 668.81 279.29 669.74 279.18 671.49C279.023 672.209 278.819 672.917 278.57 673.61C278.4 674.61 278.88 675.61 278.9 676.61C278.92 677.61 278.03 678.84 277.09 678.44C277.797 680.8 278.427 683.18 278.98 685.58L297.88 687.14C298.084 685.441 298.026 683.721 297.71 682.04C297.32 680.21 296.5 678.51 296.07 676.7C295.79 675.809 295.712 674.867 295.84 673.942C295.968 673.017 296.299 672.132 296.81 671.35C296.317 671.356 295.838 671.188 295.458 670.875C295.077 670.562 294.82 670.124 294.73 669.64C294.572 668.665 294.589 667.669 294.78 666.7C295.28 661.77 293.21 656.91 293.27 651.96C293.33 648.06 294.7 644.31 295.39 640.48C296.87 632.28 295.33 623.39 298.98 615.9C301.19 611.39 304.25 606.39 301.77 602.02C300.55 599.86 298.39 598.38 296.98 596.34C295.831 594.412 294.968 592.327 294.42 590.15C291.51 581.15 286.8 572.79 282.67 564.23C281.524 562.084 280.673 559.794 280.14 557.42C279.848 555.337 279.741 553.232 279.82 551.13C279.82 547.356 279.59 543.586 279.13 539.84C279.037 538.199 278.568 536.601 277.76 535.17C276.944 534.087 275.925 533.174 274.76 532.48C268.56 528.23 261.18 525.8 254.48 522.27Z" fill="#464353"/>
<path d="M277.13 711.27C278.945 711.891 280.87 712.119 282.78 711.94C282.92 710.38 285.01 710.03 286.57 710.11C287.325 710.085 288.072 710.257 288.74 710.61C289.13 710.86 289.43 711.23 289.82 711.48C290.496 711.856 291.257 712.052 292.03 712.05L300.14 712.73C303.77 713.04 307.53 713.33 310.93 712.03C311.604 711.819 312.202 711.416 312.65 710.87C313.57 709.55 312.65 707.67 311.38 706.71C310.11 705.75 308.47 705.31 307.2 704.33C304.37 702.18 303.99 698.17 302.49 694.95C301.441 692.913 300.137 691.018 298.61 689.31C297.502 687.845 296.211 686.528 294.77 685.39C291.52 683.03 287.77 683.08 283.95 682.74C281.24 682.5 278.7 682.35 276.77 684.74C274.37 687.74 275.33 693.74 275.47 697.25C275.658 701.959 276.213 706.647 277.13 711.27Z" fill="#514E7F"/>
<path d="M360.9 489.54C371.239 489.54 379.62 481.159 379.62 470.82C379.62 460.481 371.239 452.1 360.9 452.1C350.561 452.1 342.18 460.481 342.18 470.82C342.18 481.159 350.561 489.54 360.9 489.54Z" fill="#A1616A"/>
<path d="M343.24 476.38C340.56 478.69 336.71 478.86 333.19 479.22C325.663 479.993 318.337 482.114 311.56 485.48C310.622 485.884 309.773 486.469 309.06 487.2C308.452 487.993 308.019 488.907 307.79 489.88C307.146 491.986 306.905 494.195 307.08 496.39C307.325 498.519 307.938 500.59 308.89 502.51C311.488 507.889 315.497 512.461 320.49 515.74C321.37 516.395 322.368 516.874 323.43 517.15C325.89 517.66 328.27 516.24 330.7 515.6C332.91 515.023 335.24 515.096 337.41 515.81C339.41 516.49 341.6 517.73 343.58 516.9C344.847 516.191 345.832 515.069 346.37 513.72C348.282 510.106 349.989 506.387 351.48 502.58C352.016 501.094 352.633 499.638 353.33 498.22C355.5 494.09 359.25 490.9 361.12 486.61C361.31 486.283 361.424 485.917 361.456 485.54C361.487 485.163 361.434 484.784 361.3 484.43C360.953 483.952 360.473 483.587 359.92 483.38C357.155 481.797 354.635 479.82 352.44 477.51C351.21 476.33 348.95 473.14 347.18 472.86C345.19 472.52 344.59 475.22 343.24 476.38Z" fill="#A1616A"/>
<path d="M343.68 514.42C341.51 515.42 338.95 514.99 336.6 514.5C330.54 513.23 324.41 511.95 318.8 509.33C317.047 508.659 315.529 507.492 314.43 505.97C313.748 504.669 313.333 503.244 313.21 501.78L312.21 494.78C311.85 492.35 312.47 490.1 312.53 487.64C312.568 487.367 312.552 487.09 312.481 486.824C312.411 486.558 312.288 486.308 312.12 486.09C311.778 485.802 311.335 485.662 310.89 485.7C308.08 485.75 306.38 488.7 304.41 490.7C303.271 491.854 301.911 492.766 300.41 493.38C298.61 494.12 296.41 494.64 295.66 496.44C295.36 497.19 295.4 498.04 295.08 498.79C293.82 501.79 288.45 500.79 287.08 503.79C286.69 504.63 286.72 505.68 286.08 506.34C285.44 507 284.24 506.99 283.25 507.15C279.34 507.79 277.45 512.3 274.11 514.43C271.3 516.23 267.68 516.19 264.65 517.59C262.97 518.37 261.48 519.59 259.7 520.1C257.92 520.61 255.91 520.34 254 520.39C253.796 520.371 253.591 520.394 253.396 520.457C253.202 520.521 253.023 520.624 252.87 520.76C252.751 520.941 252.673 521.145 252.64 521.359C252.607 521.573 252.621 521.792 252.68 522C253.606 527.913 256.056 533.483 259.79 538.161C263.523 542.839 268.41 546.465 273.97 548.68C274.615 548.885 275.228 549.182 275.79 549.56C277.49 550.83 277.79 553.56 279.72 554.46C280.417 554.705 281.167 554.753 281.889 554.597C282.611 554.442 283.276 554.09 283.81 553.58C284.875 552.555 285.877 551.466 286.81 550.32C288.572 548.479 290.885 547.262 293.4 546.85C295.72 546.48 298.31 546.75 300.19 545.32C300.959 544.614 301.674 543.852 302.33 543.04C303.723 541.741 305.376 540.752 307.18 540.14C312.109 538.193 317.319 537.048 322.61 536.75C327.54 536.48 332.61 536.93 337.27 535.33C338.48 534.955 339.595 534.324 340.54 533.48C341.542 532.396 342.287 531.101 342.72 529.69C344.401 524.778 344.733 519.504 343.68 514.42V514.42Z" fill="#67C76B"/>
<path d="M319.55 486.83C320.93 486.7 322.32 486.83 323.71 486.83C325.34 486.83 326.95 486.43 328.58 486.42C331.161 486.462 333.661 487.328 335.716 488.891C337.77 490.455 339.271 492.633 340 495.11C340.137 495.506 340.162 495.931 340.07 496.34C340.016 496.542 339.892 496.717 339.719 496.835C339.546 496.952 339.337 497.004 339.13 496.98C338.589 495.501 337.881 494.089 337.02 492.77C335.47 490.654 333.261 489.114 330.74 488.39C328.227 487.678 325.578 487.582 323.02 488.11C321.95 488.31 320.91 488.59 319.87 488.88L314.87 490.26C313.95 490.51 313.02 490.76 312.13 491.09C311.44 491.35 310.26 492.3 309.58 492.34C308.66 492.34 309.4 491.54 309.81 491C310.626 489.886 311.769 489.055 313.08 488.62C315.158 487.769 317.33 487.168 319.55 486.83V486.83Z" fill="#67C76B"/>
<path d="M332.17 543.06C333.38 546.94 334.59 550.83 336.11 554.6C338.827 561.156 342.25 567.396 346.32 573.21C348.941 577.039 351.759 580.731 354.76 584.27C358.51 588.7 362.7 593.16 364.04 598.81C364.81 602.09 364.55 605.5 364.87 608.81C365.19 612.12 366.28 615.69 368.98 617.69C370.92 619.11 373.39 619.54 375.76 619.92C377.45 620.19 379.57 620.28 380.46 618.81C380.762 618.207 380.923 617.544 380.93 616.87L381.33 611.98C381.42 610.92 381.8 609.57 382.85 609.52C383.9 609.47 384.45 610.88 385.35 611.52C386.55 612.36 388.35 611.52 389.01 610.25C389.554 608.874 389.589 607.35 389.11 605.95C388.378 603.168 387.067 600.572 385.263 598.332C383.459 596.092 381.202 594.258 378.64 592.95C376.857 592.23 375.146 591.342 373.53 590.3C371.89 588.876 370.533 587.156 369.53 585.23C360.24 569.96 350.91 554.6 344.37 537.96C343.08 534.991 342.205 531.858 341.77 528.65C341.46 525.38 341.96 522.09 342.18 518.81C342.568 512.918 342.021 507.001 340.56 501.28C340.241 499.776 339.674 498.336 338.88 497.02C336.19 492.92 329.88 492.32 325.88 495.14C324.406 496.273 323.183 497.699 322.29 499.329C321.396 500.96 320.851 502.758 320.69 504.61C320.4 507.93 322.32 511.37 323.28 514.46C326.233 524.007 329.197 533.54 332.17 543.06Z" fill="#A1616A"/>
<path d="M388.13 457.58C388.28 456.02 386.88 454.58 385.29 453.58C383.615 452.722 382.008 451.739 380.48 450.64C379.06 449.41 378.28 447.81 376.86 446.58C375.246 445.351 373.413 444.438 371.46 443.89C367.305 442.433 362.943 441.653 358.54 441.58C354.09 441.58 349.54 442.58 346.19 444.85C345.363 445.37 344.649 446.05 344.09 446.85C343.562 447.81 343.222 448.862 343.09 449.95C342.292 453.305 341.211 456.587 339.86 459.76C338.47 463.29 336.99 466.95 333.72 469.68C330.22 472.59 324.87 474.27 322.56 477.79C322.305 478.103 322.125 478.471 322.037 478.865C321.948 479.259 321.953 479.668 322.05 480.06C322.38 480.95 323.44 481.56 324.42 482.12C330.1 485.38 335 489.61 337.52 494.66C340.04 499.71 339.97 505.66 336.38 510.31C335.06 512.03 333.24 514.07 334.53 515.8C336.53 518.43 343.22 516.92 344.78 519.7C345.27 520.59 344.98 521.6 344.98 522.57C344.98 525.49 347.79 528.08 351.2 529.43C354.61 530.78 358.56 531.1 362.4 531.27C363.419 528.979 363.52 526.383 362.68 524.02C362.424 523.51 362.323 522.936 362.39 522.37C362.676 521.741 363.121 521.196 363.68 520.79C367.78 516.91 366.91 511.21 364.45 506.6C361.99 501.99 358.15 497.78 356.72 492.93C356.01 490.52 356.01 487.81 357.92 485.81C359.016 484.848 360.198 483.988 361.45 483.24C363.687 481.722 365.41 479.559 366.39 477.04C367.54 473.85 367.39 470.04 370.73 467.89C373.94 465.89 378.45 466.47 382 465.1C384.73 464.02 387.91 459.87 388.13 457.58Z" fill="#464353"/>
</g>
<defs>
<linearGradient id="paint0_linear" x1="305.81" y1="425.06" x2="305.81" y2="234.16" gradientUnits="userSpaceOnUse">
<stop stop-color="#808080" stop-opacity="0.25"/>
<stop offset="0.54" stop-color="#808080" stop-opacity="0.12"/>
<stop offset="1" stop-color="#808080" stop-opacity="0.1"/>
</linearGradient>
<clipPath id="clip0">
<rect width="1177.82" height="725.16" fill="white"/>
</clipPath>
</defs>
</svg>
